<svg width="24" height="24" viewBox="0 0 24 24" fill="none" xmlns="http://www.w3.org/2000/svg">
<g clip-path="url(#clip0_2_16784)">
<path d="M3.89001 15.6721L6.25501 0.461058C6.27197 0.348226 6.32411 0.243625 6.404 0.162157C6.48388 0.0806895 6.58744 0.0265107 6.69992 0.00733964C6.8124 -0.0118315 6.92806 0.00498303 7.03042 0.0553876C7.13278 0.105792 7.21663 0.187216 7.27001 0.288058L9.81301 5.05906L3.89001 15.6721ZM20.684 19.3641L18.434 5.36406C18.4186 5.26512 18.3759 5.17242 18.3109 5.09631C18.2458 5.02021 18.1608 4.9637 18.0655 4.93309C17.9702 4.90249 17.8682 4.89899 17.771 4.92301C17.6738 4.94702 17.5851 4.99758 17.515 5.06906L3.31601 19.3651L11.172 23.7921C11.4145 23.9283 11.6879 23.9998 11.966 23.9998C12.2441 23.9998 12.5175 23.9283 12.76 23.7921L20.684 19.3641ZM14.3 7.14706L12.48 3.66506C12.4341 3.57749 12.3651 3.50416 12.2805 3.45299C12.1959 3.40183 12.0989 3.37478 12 3.37478C11.9011 3.37478 11.8041 3.40183 11.7195 3.45299C11.6349 3.50416 11.5659 3.57749 11.52 3.66506L3.53001 17.9841L14.3 7.14706Z" fill="black"/>
</g>
<defs>
<clipPath id="clip0_2_16784">
<rect width="24" height="24" fill="white"/>
</clipPath>
</defs>
</svg>
