<svg width="375" height="677" viewBox="0 0 375 677" fill="none" xmlns="http://www.w3.org/2000/svg">
<rect width="375" height="677" fill="white"/>
<rect width="375" height="102" fill="#FFDCA9"/>
<path d="M307.25 53H350.75M307.25 38.5H350.75M307.25 67.5H350.75" stroke="#FAAB78" stroke-width="2" stroke-linecap="round" stroke-linejoin="round"/>
<path d="M43.68 30.096C46.1547 30.096 48.3587 30.676 50.292 31.836C52.2253 32.9573 53.7333 34.5233 54.816 36.534C55.8987 38.506 56.44 40.7293 56.44 43.204V43.958C56.44 46.4327 55.8987 48.6753 54.816 50.686C53.7333 52.6967 52.2253 54.282 50.292 55.442C48.3587 56.5633 46.1547 57.124 43.68 57.124H34.11V70H21.292V30.096H43.68ZM34.11 47.786H39.388C40.7413 47.786 41.7467 47.438 42.404 46.742C43.1 46.046 43.448 45.0987 43.448 43.9V43.436C43.448 42.1987 43.1 41.2513 42.404 40.594C41.7467 39.898 40.7413 39.55 39.388 39.55H34.11V47.786ZM76.5125 38.68C81.1912 38.68 84.9999 39.4727 87.9385 41.058C90.8772 42.6047 92.3465 45.1373 92.3465 48.656V60.604C92.3465 61.2613 92.5012 61.8027 92.8105 62.228C93.1199 62.6533 93.5839 62.866 94.2025 62.866H96.2905V69.536C96.1745 69.6133 95.8652 69.7487 95.3625 69.942C94.8985 70.0967 94.2219 70.2513 93.3325 70.406C92.4432 70.5993 91.4185 70.696 90.2585 70.696C88.0159 70.696 86.1599 70.3673 84.6905 69.71C83.2599 69.014 82.2739 68.0667 81.7325 66.868C80.2632 68.028 78.6199 68.956 76.8025 69.652C74.9852 70.348 72.8585 70.696 70.4225 70.696C63.2305 70.696 59.6345 67.8347 59.6345 62.112C59.6345 59.1347 60.4272 56.8727 62.0125 55.326C63.6365 53.7407 65.9565 52.658 68.9725 52.078C71.9885 51.498 75.9325 51.208 80.8045 51.208V49.7C80.8045 48.5013 80.3792 47.5927 79.5285 46.974C78.7165 46.3553 77.6532 46.046 76.3385 46.046C75.1399 46.046 74.0959 46.2587 73.2065 46.684C72.3559 47.1093 71.9305 47.786 71.9305 48.714V48.946H60.5625C60.5239 48.7527 60.5045 48.482 60.5045 48.134C60.5045 45.234 61.8772 42.9333 64.6225 41.232C67.4065 39.5307 71.3699 38.68 76.5125 38.68ZM80.8045 56.66C77.5179 56.66 75.0819 57.0273 73.4965 57.762C71.9499 58.458 71.1765 59.4053 71.1765 60.604C71.1765 62.5373 72.4912 63.504 75.1205 63.504C76.6285 63.504 77.9432 63.098 79.0645 62.286C80.2245 61.474 80.8045 60.4687 80.8045 59.27V56.66ZM121.172 38.68C124.729 38.68 127.397 39.666 129.176 41.638C130.955 43.61 131.844 46.452 131.844 50.164V70H120.302V51.556C120.302 50.2413 119.954 49.1973 119.258 48.424C118.601 47.612 117.653 47.206 116.416 47.206C114.985 47.206 113.825 47.67 112.936 48.598C112.047 49.526 111.602 50.6667 111.602 52.02V70H100.06V39.376H109.514L110.268 44.016C111.467 42.392 113.033 41.0967 114.966 40.13C116.938 39.1633 119.007 38.68 121.172 38.68ZM159.162 39.376V47.206H152.666V58.864C152.666 60.256 152.898 61.2807 153.362 61.938C153.826 62.5567 154.676 62.866 155.914 62.866H159.162V69.652C158.234 69.9613 157.035 70.2127 155.566 70.406C154.096 70.5993 152.82 70.696 151.738 70.696C148.335 70.696 145.706 70.0773 143.85 68.84C142.032 67.6027 141.124 65.4953 141.124 62.518V47.206H136.832V39.376H141.588L144.082 30.096H152.666V39.376H159.162ZM183.135 38.622C184.024 38.622 184.817 38.738 185.513 38.97C186.209 39.1633 186.557 39.2793 186.557 39.318V49.004H182.845C180.448 49.004 178.708 49.6227 177.625 50.86C176.581 52.0973 176.059 53.934 176.059 56.37V70H164.517V39.376H173.971L174.725 44.016C175.421 42.2373 176.523 40.9033 178.031 40.014C179.539 39.086 181.24 38.622 183.135 38.622ZM214.684 69.072C213.099 73.364 211.146 76.612 208.826 78.816C206.545 81.0587 203.336 82.18 199.198 82.18C196.685 82.18 194.462 81.832 192.528 81.136V74.234H197.168C200.068 74.234 201.789 72.8227 202.33 70L190.15 39.376H202.562L208.42 59.734H208.826L214.22 39.376H225.588L214.684 69.072ZM223.708 70V58.458H236.004V70H223.708Z" fill="#FAAB78"/>
<path d="M65.6 207V197.08C65.6 195.853 65.64 194.6 65.72 193.32C65.8267 192.013 65.9333 190.92 66.04 190.04C66.1467 189.16 66.2133 188.6 66.24 188.36H66.08L61 207H54.08L48.96 188.4H48.8C48.8267 188.64 48.8933 189.2 49 190.08C49.1333 190.933 49.2533 192.013 49.36 193.32C49.4667 194.6 49.52 195.853 49.52 197.08V207H41.4V179.48H53.88L58.04 195.36H58.2L62.32 179.48H74.36V207H65.6ZM93.6934 206.36C92.6001 209.32 91.2534 211.56 89.6534 213.08C88.0801 214.627 85.8668 215.4 83.0134 215.4C81.2801 215.4 79.7468 215.16 78.4134 214.68V209.92H81.6134C83.6134 209.92 84.8001 208.947 85.1734 207L76.7734 185.88H85.3334L89.3734 199.92H89.6534L93.3734 185.88H101.213L93.6934 206.36ZM132.947 179.48C134.654 179.48 136.174 179.88 137.507 180.68C138.84 181.453 139.88 182.533 140.627 183.92C141.374 185.28 141.747 186.813 141.747 188.52V189.04C141.747 190.747 141.374 192.293 140.627 193.68C139.88 195.067 138.84 196.16 137.507 196.96C136.174 197.733 134.654 198.12 132.947 198.12H126.347V207H117.507V179.48H132.947ZM126.347 191.68H129.987C130.92 191.68 131.614 191.44 132.067 190.96C132.547 190.48 132.787 189.827 132.787 189V188.68C132.787 187.827 132.547 187.173 132.067 186.72C131.614 186.24 130.92 186 129.987 186H126.347V191.68ZM155.59 185.4C158.817 185.4 161.443 185.947 163.47 187.04C165.497 188.107 166.51 189.853 166.51 192.28V200.52C166.51 200.973 166.617 201.347 166.83 201.64C167.043 201.933 167.363 202.08 167.79 202.08H169.23V206.68C169.15 206.733 168.937 206.827 168.59 206.96C168.27 207.067 167.803 207.173 167.19 207.28C166.577 207.413 165.87 207.48 165.07 207.48C163.523 207.48 162.243 207.253 161.23 206.8C160.243 206.32 159.563 205.667 159.19 204.84C158.177 205.64 157.043 206.28 155.79 206.76C154.537 207.24 153.07 207.48 151.39 207.48C146.43 207.48 143.95 205.507 143.95 201.56C143.95 199.507 144.497 197.947 145.59 196.88C146.71 195.787 148.31 195.04 150.39 194.64C152.47 194.24 155.19 194.04 158.55 194.04V193C158.55 192.173 158.257 191.547 157.67 191.12C157.11 190.693 156.377 190.48 155.47 190.48C154.643 190.48 153.923 190.627 153.31 190.92C152.723 191.213 152.43 191.68 152.43 192.32V192.48H144.59C144.563 192.347 144.55 192.16 144.55 191.92C144.55 189.92 145.497 188.333 147.39 187.16C149.31 185.987 152.043 185.4 155.59 185.4ZM158.55 197.8C156.283 197.8 154.603 198.053 153.51 198.56C152.443 199.04 151.91 199.693 151.91 200.52C151.91 201.853 152.817 202.52 154.63 202.52C155.67 202.52 156.577 202.24 157.35 201.68C158.15 201.12 158.55 200.427 158.55 199.6V197.8ZM186.39 185.4C188.843 185.4 190.683 186.08 191.91 187.44C193.136 188.8 193.75 190.76 193.75 193.32V207H185.79V194.28C185.79 193.373 185.55 192.653 185.07 192.12C184.616 191.56 183.963 191.28 183.11 191.28C182.123 191.28 181.323 191.6 180.71 192.24C180.096 192.88 179.79 193.667 179.79 194.6V207H171.83V185.88H178.35L178.87 189.08C179.696 187.96 180.776 187.067 182.11 186.4C183.47 185.733 184.896 185.4 186.39 185.4ZM212.589 185.88V191.28H208.109V199.32C208.109 200.28 208.269 200.987 208.589 201.44C208.909 201.867 209.496 202.08 210.349 202.08H212.589V206.76C211.949 206.973 211.123 207.147 210.109 207.28C209.096 207.413 208.216 207.48 207.469 207.48C205.123 207.48 203.309 207.053 202.029 206.2C200.776 205.347 200.149 203.893 200.149 201.84V191.28H197.189V185.88H200.469L202.189 179.48H208.109V185.88H212.589ZM229.123 185.36C229.736 185.36 230.283 185.44 230.763 185.6C231.243 185.733 231.483 185.813 231.483 185.84V192.52H228.923C227.269 192.52 226.069 192.947 225.323 193.8C224.603 194.653 224.243 195.92 224.243 197.6V207H216.283V185.88H222.803L223.323 189.08C223.803 187.853 224.563 186.933 225.603 186.32C226.643 185.68 227.816 185.36 229.123 185.36ZM250.881 206.36C249.788 209.32 248.441 211.56 246.841 213.08C245.268 214.627 243.054 215.4 240.201 215.4C238.468 215.4 236.934 215.16 235.601 214.68V209.92H238.801C240.801 209.92 241.988 208.947 242.361 207L233.961 185.88H242.521L246.561 199.92H246.841L250.561 185.88H258.401L250.881 206.36Z" fill="#FAAB78"/>
<rect x="41.5" y="223.5" width="294" height="390" rx="17.5" fill="white" stroke="#FAAB78" stroke-width="5"/>
<circle cx="188" cy="397" r="54.5" fill="white" stroke="#FAAB78" stroke-width="5"/>
<line x1="188.5" y1="376" x2="188.5" y2="422" stroke="#FAAB78" stroke-width="5"/>
<line x1="211" y1="399.5" x2="165" y2="399.5" stroke="#FAAB78" stroke-width="5"/>
<path d="M129.597 491L137.073 471.792H141.665L149.169 491H145.221L143.681 486.912H134.889L133.349 491H129.597ZM136.037 483.832H142.505L140.573 478.624C140.498 478.437 140.405 478.204 140.293 477.924C140.2 477.625 140.097 477.308 139.985 476.972C139.873 476.617 139.761 476.263 139.649 475.908C139.537 475.553 139.434 475.236 139.341 474.956H139.201C139.089 475.329 138.949 475.759 138.781 476.244C138.632 476.729 138.482 477.187 138.333 477.616C138.184 478.045 138.062 478.381 137.969 478.624L136.037 483.832ZM156.253 491.336C155.058 491.336 154.022 491.065 153.145 490.524C152.267 489.983 151.586 489.143 151.101 488.004C150.634 486.865 150.401 485.4 150.401 483.608C150.401 481.835 150.643 480.388 151.129 479.268C151.614 478.129 152.286 477.289 153.145 476.748C154.003 476.207 154.974 475.936 156.057 475.936C156.729 475.936 157.345 476.011 157.905 476.16C158.465 476.309 158.959 476.543 159.389 476.86C159.818 477.159 160.182 477.532 160.481 477.98H160.649V470.756H164.065V491H161.237L160.957 489.04H160.761C160.294 489.805 159.659 490.384 158.857 490.776C158.073 491.149 157.205 491.336 156.253 491.336ZM157.317 488.396C158.101 488.396 158.735 488.219 159.221 487.864C159.706 487.509 160.061 486.996 160.285 486.324C160.527 485.652 160.649 484.831 160.649 483.86V483.496C160.649 482.768 160.583 482.115 160.453 481.536C160.322 480.957 160.117 480.472 159.837 480.08C159.575 479.688 159.23 479.389 158.801 479.184C158.39 478.979 157.895 478.876 157.317 478.876C156.477 478.876 155.805 479.044 155.301 479.38C154.815 479.697 154.461 480.201 154.237 480.892C154.031 481.564 153.929 482.423 153.929 483.468V483.86C153.929 484.887 154.031 485.736 154.237 486.408C154.461 487.08 154.815 487.584 155.301 487.92C155.805 488.237 156.477 488.396 157.317 488.396ZM172.823 491.336C171.628 491.336 170.592 491.065 169.715 490.524C168.838 489.983 168.156 489.143 167.671 488.004C167.204 486.865 166.971 485.4 166.971 483.608C166.971 481.835 167.214 480.388 167.699 479.268C168.184 478.129 168.856 477.289 169.715 476.748C170.574 476.207 171.544 475.936 172.627 475.936C173.299 475.936 173.915 476.011 174.475 476.16C175.035 476.309 175.53 476.543 175.959 476.86C176.388 477.159 176.752 477.532 177.051 477.98H177.219V470.756H180.635V491H177.807L177.527 489.04H177.331C176.864 489.805 176.23 490.384 175.427 490.776C174.643 491.149 173.775 491.336 172.823 491.336ZM173.887 488.396C174.671 488.396 175.306 488.219 175.791 487.864C176.276 487.509 176.631 486.996 176.855 486.324C177.098 485.652 177.219 484.831 177.219 483.86V483.496C177.219 482.768 177.154 482.115 177.023 481.536C176.892 480.957 176.687 480.472 176.407 480.08C176.146 479.688 175.8 479.389 175.371 479.184C174.96 478.979 174.466 478.876 173.887 478.876C173.047 478.876 172.375 479.044 171.871 479.38C171.386 479.697 171.031 480.201 170.807 480.892C170.602 481.564 170.499 482.423 170.499 483.468V483.86C170.499 484.887 170.602 485.736 170.807 486.408C171.031 487.08 171.386 487.584 171.871 487.92C172.375 488.237 173.047 488.396 173.887 488.396ZM190.575 491V479.072H188.447V476.272H190.575V474.396C190.575 473.743 190.677 473.127 190.883 472.548C191.107 471.951 191.489 471.465 192.031 471.092C192.572 470.719 193.328 470.532 194.299 470.532C194.579 470.532 194.859 470.551 195.139 470.588C195.437 470.625 195.717 470.681 195.979 470.756C196.24 470.812 196.464 470.877 196.651 470.952V473.332H195.251C194.84 473.332 194.523 473.444 194.299 473.668C194.093 473.873 193.991 474.181 193.991 474.592V476.272H196.651V479.072H193.991V491H190.575ZM204.876 491.336C203.271 491.336 201.927 491.065 200.844 490.524C199.761 489.964 198.949 489.115 198.408 487.976C197.867 486.837 197.596 485.391 197.596 483.636C197.596 481.863 197.867 480.416 198.408 479.296C198.949 478.157 199.761 477.317 200.844 476.776C201.927 476.216 203.271 475.936 204.876 475.936C206.5 475.936 207.844 476.216 208.908 476.776C209.991 477.317 210.803 478.157 211.344 479.296C211.885 480.416 212.156 481.863 212.156 483.636C212.156 485.391 211.885 486.837 211.344 487.976C210.803 489.115 209.991 489.964 208.908 490.524C207.844 491.065 206.5 491.336 204.876 491.336ZM204.876 488.536C205.772 488.536 206.491 488.368 207.032 488.032C207.592 487.677 207.993 487.155 208.236 486.464C208.497 485.755 208.628 484.877 208.628 483.832V483.44C208.628 482.395 208.497 481.527 208.236 480.836C207.993 480.127 207.592 479.604 207.032 479.268C206.491 478.913 205.772 478.736 204.876 478.736C203.98 478.736 203.252 478.913 202.692 479.268C202.151 479.604 201.749 480.127 201.488 480.836C201.245 481.527 201.124 482.395 201.124 483.44V483.832C201.124 484.877 201.245 485.755 201.488 486.464C201.749 487.155 202.151 487.677 202.692 488.032C203.252 488.368 203.98 488.536 204.876 488.536ZM221.61 491.336C220.005 491.336 218.661 491.065 217.578 490.524C216.496 489.964 215.684 489.115 215.142 487.976C214.601 486.837 214.33 485.391 214.33 483.636C214.33 481.863 214.601 480.416 215.142 479.296C215.684 478.157 216.496 477.317 217.578 476.776C218.661 476.216 220.005 475.936 221.61 475.936C223.234 475.936 224.578 476.216 225.642 476.776C226.725 477.317 227.537 478.157 228.078 479.296C228.62 480.416 228.89 481.863 228.89 483.636C228.89 485.391 228.62 486.837 228.078 487.976C227.537 489.115 226.725 489.964 225.642 490.524C224.578 491.065 223.234 491.336 221.61 491.336ZM221.61 488.536C222.506 488.536 223.225 488.368 223.766 488.032C224.326 487.677 224.728 487.155 224.97 486.464C225.232 485.755 225.362 484.877 225.362 483.832V483.44C225.362 482.395 225.232 481.527 224.97 480.836C224.728 480.127 224.326 479.604 223.766 479.268C223.225 478.913 222.506 478.736 221.61 478.736C220.714 478.736 219.986 478.913 219.426 479.268C218.885 479.604 218.484 480.127 218.222 480.836C217.98 481.527 217.858 482.395 217.858 483.44V483.832C217.858 484.877 217.98 485.755 218.222 486.464C218.484 487.155 218.885 487.677 219.426 488.032C219.986 488.368 220.714 488.536 221.61 488.536ZM236.917 491.336C235.722 491.336 234.686 491.065 233.809 490.524C232.931 489.983 232.25 489.143 231.765 488.004C231.298 486.865 231.065 485.4 231.065 483.608C231.065 481.835 231.307 480.388 231.793 479.268C232.278 478.129 232.95 477.289 233.809 476.748C234.667 476.207 235.638 475.936 236.721 475.936C237.393 475.936 238.009 476.011 238.569 476.16C239.129 476.309 239.623 476.543 240.053 476.86C240.482 477.159 240.846 477.532 241.145 477.98H241.313V470.756H244.729V491H241.901L241.621 489.04H241.425C240.958 489.805 240.323 490.384 239.521 490.776C238.737 491.149 237.869 491.336 236.917 491.336ZM237.981 488.396C238.765 488.396 239.399 488.219 239.885 487.864C240.37 487.509 240.725 486.996 240.949 486.324C241.191 485.652 241.313 484.831 241.313 483.86V483.496C241.313 482.768 241.247 482.115 241.117 481.536C240.986 480.957 240.781 480.472 240.501 480.08C240.239 479.688 239.894 479.389 239.465 479.184C239.054 478.979 238.559 478.876 237.981 478.876C237.141 478.876 236.469 479.044 235.965 479.38C235.479 479.697 235.125 480.201 234.901 480.892C234.695 481.564 234.593 482.423 234.593 483.468V483.86C234.593 484.887 234.695 485.736 234.901 486.408C235.125 487.08 235.479 487.584 235.965 487.92C236.469 488.237 237.141 488.396 237.981 488.396Z" fill="#FAAB78"/>
</svg>
