<svg width="1722" height="982" viewBox="0 0 1722 982" fill="none" xmlns="http://www.w3.org/2000/svg">
<g clip-path="url(#clip0_301_347)">
<rect width="1722" height="982" fill="white"/>
<rect width="1722" height="96" fill="#FFDCA9"/>
<path d="M54.08 30.976C56.128 30.976 57.952 31.456 59.552 32.416C61.152 33.344 62.4 34.64 63.296 36.304C64.192 37.936 64.64 39.776 64.64 41.824V42.448C64.64 44.496 64.192 46.352 63.296 48.016C62.4 49.68 61.152 50.992 59.552 51.952C57.952 52.88 56.128 53.344 54.08 53.344H46.16V64H35.552V30.976H54.08ZM46.16 45.616H50.528C51.648 45.616 52.48 45.328 53.024 44.752C53.6 44.176 53.888 43.392 53.888 42.4V42.016C53.888 40.992 53.6 40.208 53.024 39.664C52.48 39.088 51.648 38.8 50.528 38.8H46.16V45.616ZM81.2518 38.08C85.1238 38.08 88.2758 38.736 90.7078 40.048C93.1398 41.328 94.3558 43.424 94.3558 46.336V56.224C94.3558 56.768 94.4838 57.216 94.7398 57.568C94.9958 57.92 95.3798 58.096 95.8918 58.096H97.6198V63.616C97.5238 63.68 97.2678 63.792 96.8518 63.952C96.4678 64.08 95.9078 64.208 95.1718 64.336C94.4358 64.496 93.5878 64.576 92.6278 64.576C90.7718 64.576 89.2358 64.304 88.0198 63.76C86.8358 63.184 86.0198 62.4 85.5718 61.408C84.3558 62.368 82.9958 63.136 81.4918 63.712C79.9878 64.288 78.2278 64.576 76.2118 64.576C70.2598 64.576 67.2838 62.208 67.2838 57.472C67.2838 55.008 67.9398 53.136 69.2518 51.856C70.5958 50.544 72.5158 49.648 75.0118 49.168C77.5078 48.688 80.7718 48.448 84.8038 48.448V47.2C84.8038 46.208 84.4518 45.456 83.7478 44.944C83.0758 44.432 82.1958 44.176 81.1078 44.176C80.1158 44.176 79.2517 44.352 78.5157 44.704C77.8118 45.056 77.4598 45.616 77.4598 46.384V46.576H68.0518C68.0198 46.416 68.0038 46.192 68.0038 45.904C68.0038 43.504 69.1398 41.6 71.4118 40.192C73.7158 38.784 76.9958 38.08 81.2518 38.08ZM84.8038 52.96C82.0838 52.96 80.0678 53.264 78.7558 53.872C77.4758 54.448 76.8358 55.232 76.8358 56.224C76.8358 57.824 77.9238 58.624 80.0998 58.624C81.3478 58.624 82.4358 58.288 83.3638 57.616C84.3238 56.944 84.8038 56.112 84.8038 55.12V52.96ZM118.211 38.08C121.155 38.08 123.363 38.896 124.835 40.528C126.307 42.16 127.043 44.512 127.043 47.584V64H117.491V48.736C117.491 47.648 117.203 46.784 116.627 46.144C116.083 45.472 115.299 45.136 114.275 45.136C113.091 45.136 112.131 45.52 111.395 46.288C110.659 47.056 110.291 48 110.291 49.12V64H100.739V38.656H108.563L109.187 42.496C110.179 41.152 111.475 40.08 113.075 39.28C114.707 38.48 116.419 38.08 118.211 38.08ZM149.651 38.656V45.136H144.275V54.784C144.275 55.936 144.467 56.784 144.851 57.328C145.235 57.84 145.939 58.096 146.963 58.096H149.651V63.712C148.883 63.968 147.891 64.176 146.675 64.336C145.459 64.496 144.403 64.576 143.507 64.576C140.691 64.576 138.515 64.064 136.979 63.04C135.475 62.016 134.723 60.272 134.723 57.808V45.136H131.171V38.656H135.107L137.171 30.976H144.275V38.656H149.651ZM169.491 38.032C170.227 38.032 170.883 38.128 171.459 38.32C172.035 38.48 172.323 38.576 172.323 38.608V46.624H169.251C167.267 46.624 165.827 47.136 164.931 48.16C164.067 49.184 163.635 50.704 163.635 52.72V64H154.083V38.656H161.907L162.531 42.496C163.107 41.024 164.019 39.92 165.267 39.184C166.515 38.416 167.923 38.032 169.491 38.032ZM195.601 63.232C194.289 66.784 192.673 69.472 190.753 71.296C188.865 73.152 186.209 74.08 182.785 74.08C180.705 74.08 178.865 73.792 177.265 73.216V67.504H181.105C183.505 67.504 184.929 66.336 185.377 64L175.297 38.656H185.569L190.417 55.504H190.753L195.217 38.656H204.625L195.601 63.232ZM203.069 64V54.448H213.245V64H203.069Z" fill="#FAAB78"/>
<path d="M506.982 61V34.8182H517.797C519.757 34.8182 521.449 35.1719 522.872 35.8793C524.304 36.5781 525.408 37.5838 526.183 38.8963C526.959 40.2003 527.347 41.7472 527.347 43.5369C527.347 45.3523 526.95 46.8949 526.158 48.1648C525.365 49.4261 524.24 50.3892 522.783 51.054C521.325 51.7102 519.599 52.0384 517.605 52.0384H510.766V47.0526H516.429C517.384 47.0526 518.18 46.929 518.82 46.6818C519.467 46.4261 519.957 46.0426 520.29 45.5312C520.622 45.0114 520.788 44.3466 520.788 43.5369C520.788 42.7273 520.622 42.0582 520.29 41.5298C519.957 40.9929 519.467 40.5923 518.82 40.3281C518.172 40.0554 517.375 39.919 516.429 39.919H513.31V61H506.982ZM521.722 49.0341L528.241 61H521.338L514.946 49.0341H521.722ZM539.61 61.3707C537.556 61.3707 535.783 60.9659 534.292 60.1562C532.809 59.3381 531.667 58.1747 530.865 56.6662C530.073 55.1491 529.676 53.3466 529.676 51.2585C529.676 49.2301 530.077 47.4574 530.878 45.9403C531.679 44.4148 532.809 43.2301 534.266 42.3864C535.723 41.5341 537.441 41.108 539.418 41.108C540.816 41.108 542.094 41.3253 543.253 41.7599C544.412 42.1946 545.414 42.8381 546.257 43.6903C547.101 44.5426 547.757 45.5952 548.226 46.848C548.695 48.0923 548.929 49.5199 548.929 51.1307V52.6903H531.863V49.0597H543.113C543.104 48.3949 542.946 47.8026 542.64 47.2827C542.333 46.7628 541.911 46.358 541.374 46.0682C540.846 45.7699 540.236 45.6207 539.546 45.6207C538.847 45.6207 538.221 45.7784 537.667 46.0938C537.113 46.4006 536.674 46.8224 536.35 47.3594C536.026 47.8878 535.855 48.4886 535.838 49.1619V52.8565C535.838 53.6577 535.996 54.3608 536.311 54.9659C536.627 55.5625 537.074 56.027 537.654 56.3594C538.233 56.6918 538.924 56.858 539.725 56.858C540.279 56.858 540.782 56.7812 541.233 56.6278C541.685 56.4744 542.073 56.2486 542.397 55.9503C542.721 55.652 542.963 55.2855 543.125 54.8509L548.865 55.017C548.627 56.304 548.103 57.4247 547.293 58.3793C546.492 59.3253 545.439 60.0625 544.135 60.5909C542.831 61.1108 541.323 61.3707 539.61 61.3707ZM561.288 61.3707C559.217 61.3707 557.44 60.9446 555.957 60.0923C554.483 59.2401 553.349 58.0554 552.557 56.5384C551.764 55.0128 551.368 53.2486 551.368 51.2457C551.368 49.2344 551.764 47.4702 552.557 45.9531C553.358 44.4276 554.496 43.2386 555.97 42.3864C557.453 41.5341 559.222 41.108 561.276 41.108C563.091 41.108 564.672 41.4361 566.018 42.0923C567.374 42.7486 568.43 43.6776 569.189 44.8793C569.956 46.0724 570.361 47.4744 570.403 49.0852H564.561C564.442 48.0795 564.101 47.2912 563.538 46.7202C562.984 46.1491 562.26 45.8636 561.365 45.8636C560.641 45.8636 560.006 46.0682 559.46 46.4773C558.915 46.8778 558.489 47.4744 558.182 48.267C557.884 49.0511 557.734 50.0227 557.734 51.1818C557.734 52.3409 557.884 53.321 558.182 54.1222C558.489 54.9148 558.915 55.5156 559.46 55.9247C560.006 56.3253 560.641 56.5256 561.365 56.5256C561.945 56.5256 562.456 56.402 562.899 56.1548C563.351 55.9077 563.722 55.5455 564.011 55.0682C564.301 54.5824 564.484 53.9943 564.561 53.304H570.403C570.344 54.9233 569.939 56.3381 569.189 57.5483C568.447 58.7585 567.403 59.7003 566.057 60.3736C564.719 61.0384 563.129 61.3707 561.288 61.3707ZM573.603 61V41.3636H579.854V61H573.603ZM576.735 39.0753C575.857 39.0753 575.103 38.7855 574.472 38.206C573.841 37.6179 573.526 36.9105 573.526 36.0838C573.526 35.2656 573.841 34.5668 574.472 33.9872C575.103 33.3991 575.857 33.1051 576.735 33.1051C577.621 33.1051 578.375 33.3991 578.998 33.9872C579.628 34.5668 579.944 35.2656 579.944 36.0838C579.944 36.9105 579.628 37.6179 578.998 38.206C578.375 38.7855 577.621 39.0753 576.735 39.0753ZM583.833 68.3636V41.3636H590.021V44.7259H590.212C590.468 44.1293 590.83 43.554 591.299 43C591.776 42.446 592.381 41.9943 593.114 41.6449C593.856 41.2869 594.742 41.108 595.773 41.108C597.137 41.108 598.411 41.4659 599.596 42.1818C600.789 42.8977 601.752 44.0014 602.485 45.4929C603.218 46.9844 603.585 48.8849 603.585 51.1946C603.585 53.419 603.231 55.2812 602.523 56.7812C601.825 58.2812 600.879 59.4062 599.685 60.1562C598.501 60.9062 597.184 61.2812 595.735 61.2812C594.746 61.2812 593.89 61.1193 593.165 60.7955C592.441 60.4716 591.832 60.0455 591.337 59.517C590.852 58.9886 590.477 58.4219 590.212 57.8168H590.085V68.3636H583.833ZM589.957 51.1818C589.957 52.2386 590.097 53.1591 590.379 53.9432C590.668 54.7273 591.082 55.3366 591.619 55.7713C592.164 56.1974 592.816 56.4105 593.575 56.4105C594.342 56.4105 594.994 56.1974 595.531 55.7713C596.067 55.3366 596.472 54.7273 596.745 53.9432C597.026 53.1591 597.167 52.2386 597.167 51.1818C597.167 50.125 597.026 49.2088 596.745 48.4332C596.472 47.6577 596.067 47.0568 595.531 46.6307C595.002 46.2045 594.35 45.9915 593.575 45.9915C592.808 45.9915 592.156 46.2003 591.619 46.6179C591.082 47.0355 590.668 47.6321 590.379 48.4077C590.097 49.1832 589.957 50.108 589.957 51.1818ZM616.039 61.3707C613.985 61.3707 612.213 60.9659 610.721 60.1562C609.238 59.3381 608.096 58.1747 607.295 56.6662C606.502 55.1491 606.106 53.3466 606.106 51.2585C606.106 49.2301 606.507 47.4574 607.308 45.9403C608.109 44.4148 609.238 43.2301 610.696 42.3864C612.153 41.5341 613.87 41.108 615.848 41.108C617.245 41.108 618.524 41.3253 619.683 41.7599C620.842 42.1946 621.843 42.8381 622.687 43.6903C623.531 44.5426 624.187 45.5952 624.656 46.848C625.125 48.0923 625.359 49.5199 625.359 51.1307V52.6903H608.292V49.0597H619.542C619.534 48.3949 619.376 47.8026 619.069 47.2827C618.762 46.7628 618.341 46.358 617.804 46.0682C617.275 45.7699 616.666 45.6207 615.975 45.6207C615.277 45.6207 614.65 45.7784 614.096 46.0938C613.542 46.4006 613.103 46.8224 612.779 47.3594C612.456 47.8878 612.285 48.4886 612.268 49.1619V52.8565C612.268 53.6577 612.426 54.3608 612.741 54.9659C613.056 55.5625 613.504 56.027 614.083 56.3594C614.663 56.6918 615.353 56.858 616.154 56.858C616.708 56.858 617.211 56.7812 617.663 56.6278C618.115 56.4744 618.502 56.2486 618.826 55.9503C619.15 55.652 619.393 55.2855 619.555 54.8509L625.295 55.017C625.056 56.304 624.532 57.4247 623.723 58.3793C622.922 59.3253 621.869 60.0625 620.565 60.5909C619.261 61.1108 617.752 61.3707 616.039 61.3707ZM645.695 47.3594L639.955 47.5128C639.896 47.1037 639.734 46.7415 639.469 46.4261C639.205 46.1023 638.86 45.8509 638.434 45.6719C638.016 45.4844 637.531 45.3906 636.977 45.3906C636.252 45.3906 635.634 45.5355 635.123 45.8253C634.62 46.1151 634.373 46.5071 634.381 47.0014C634.373 47.3849 634.526 47.7173 634.842 47.9986C635.165 48.2798 635.741 48.5057 636.567 48.6761L640.352 49.392C642.312 49.767 643.769 50.3892 644.724 51.2585C645.687 52.1278 646.173 53.2784 646.181 54.7102C646.173 56.0568 645.772 57.2287 644.979 58.2259C644.195 59.223 643.121 59.9986 641.758 60.5526C640.394 61.098 638.835 61.3707 637.079 61.3707C634.275 61.3707 632.063 60.7955 630.444 59.6449C628.833 58.4858 627.913 56.9347 627.683 54.9915L633.857 54.8381C633.994 55.554 634.347 56.0994 634.918 56.4744C635.489 56.8494 636.218 57.0369 637.104 57.0369C637.906 57.0369 638.558 56.8878 639.06 56.5895C639.563 56.2912 639.819 55.8949 639.827 55.4006C639.819 54.9574 639.623 54.6037 639.239 54.3395C638.856 54.0668 638.255 53.8537 637.437 53.7003L634.011 53.0483C632.042 52.6903 630.576 52.0298 629.613 51.0668C628.65 50.0952 628.173 48.8594 628.181 47.3594C628.173 46.0469 628.522 44.9261 629.229 43.9972C629.937 43.0597 630.942 42.3438 632.246 41.8494C633.55 41.3551 635.089 41.108 636.862 41.108C639.521 41.108 641.617 41.6662 643.151 42.7827C644.685 43.8906 645.533 45.4162 645.695 47.3594Z" fill="#FAAB78"/>
<path d="M740.163 43.3707C740.018 42.8338 739.805 42.3608 739.524 41.9517C739.243 41.5341 738.898 41.1804 738.489 40.8906C738.08 40.6009 737.611 40.3835 737.082 40.2386C736.554 40.0852 735.974 40.0085 735.344 40.0085C734.074 40.0085 732.974 40.3153 732.045 40.929C731.125 41.5426 730.413 42.4375 729.911 43.6136C729.408 44.7812 729.156 46.2003 729.156 47.8707C729.156 49.5497 729.399 50.9815 729.885 52.1662C730.371 53.3509 731.074 54.2543 731.994 54.8764C732.915 55.4986 734.031 55.8097 735.344 55.8097C736.503 55.8097 737.483 55.6222 738.284 55.2472C739.094 54.8636 739.707 54.3224 740.125 53.6236C740.543 52.9247 740.751 52.1023 740.751 51.1562L741.928 51.2969H735.561V46.6818H746.849V50.1463C746.849 52.4901 746.351 54.4972 745.354 56.1676C744.365 57.8381 743.001 59.1207 741.263 60.0156C739.533 60.9105 737.543 61.358 735.293 61.358C732.795 61.358 730.601 60.8168 728.709 59.7344C726.817 58.652 725.342 57.1094 724.286 55.1065C723.229 53.0952 722.7 50.7088 722.7 47.9474C722.7 45.7997 723.02 43.8949 723.659 42.233C724.298 40.5625 725.189 39.1477 726.331 37.9886C727.482 36.8295 728.811 35.9517 730.32 35.3551C731.837 34.7585 733.469 34.4602 735.216 34.4602C736.733 34.4602 738.143 34.6776 739.447 35.1122C740.76 35.5469 741.919 36.1605 742.925 36.9531C743.939 37.7457 744.761 38.6875 745.392 39.7784C746.023 40.8693 746.415 42.0668 746.568 43.3707H740.163ZM750.579 61V41.3636H756.652V44.9432H756.856C757.214 43.6477 757.798 42.6847 758.608 42.054C759.417 41.4148 760.359 41.0952 761.433 41.0952C761.723 41.0952 762.021 41.1165 762.328 41.1591C762.635 41.1932 762.92 41.2486 763.184 41.3253V46.7585C762.886 46.6562 762.494 46.5753 762.008 46.5156C761.531 46.456 761.105 46.4261 760.73 46.4261C759.988 46.4261 759.319 46.5923 758.723 46.9247C758.135 47.2486 757.67 47.7045 757.329 48.2926C756.997 48.8722 756.831 49.554 756.831 50.3381V61H750.579ZM773.878 61.3707C771.816 61.3707 770.043 60.9489 768.56 60.1051C767.086 59.2528 765.948 58.0682 765.147 56.5511C764.354 55.0256 763.958 53.2571 763.958 51.2457C763.958 49.2259 764.354 47.4574 765.147 45.9403C765.948 44.4148 767.086 43.2301 768.56 42.3864C770.043 41.5341 771.816 41.108 773.878 41.108C775.941 41.108 777.709 41.5341 779.184 42.3864C780.667 43.2301 781.804 44.4148 782.597 45.9403C783.398 47.4574 783.799 49.2259 783.799 51.2457C783.799 53.2571 783.398 55.0256 782.597 56.5511C781.804 58.0682 780.667 59.2528 779.184 60.1051C777.709 60.9489 775.941 61.3707 773.878 61.3707ZM773.917 56.6534C774.667 56.6534 775.301 56.4233 775.821 55.9631C776.341 55.5028 776.738 54.8636 777.01 54.0455C777.292 53.2273 777.432 52.2812 777.432 51.2074C777.432 50.1165 777.292 49.1619 777.01 48.3438C776.738 47.5256 776.341 46.8864 775.821 46.4261C775.301 45.9659 774.667 45.7358 773.917 45.7358C773.141 45.7358 772.485 45.9659 771.948 46.4261C771.419 46.8864 771.015 47.5256 770.733 48.3438C770.461 49.1619 770.324 50.1165 770.324 51.2074C770.324 52.2812 770.461 53.2273 770.733 54.0455C771.015 54.8636 771.419 55.5028 771.948 55.9631C772.485 56.4233 773.141 56.6534 773.917 56.6534ZM796.167 61.3707C794.096 61.3707 792.319 60.9446 790.836 60.0923C789.362 59.2401 788.228 58.0554 787.436 56.5384C786.643 55.0128 786.247 53.2486 786.247 51.2457C786.247 49.2344 786.643 47.4702 787.436 45.9531C788.237 44.4276 789.375 43.2386 790.849 42.3864C792.332 41.5341 794.1 41.108 796.154 41.108C797.97 41.108 799.551 41.4361 800.897 42.0923C802.252 42.7486 803.309 43.6776 804.068 44.8793C804.835 46.0724 805.24 47.4744 805.282 49.0852H799.44C799.321 48.0795 798.98 47.2912 798.417 46.7202C797.863 46.1491 797.139 45.8636 796.244 45.8636C795.52 45.8636 794.885 46.0682 794.339 46.4773C793.794 46.8778 793.368 47.4744 793.061 48.267C792.762 49.0511 792.613 50.0227 792.613 51.1818C792.613 52.3409 792.762 53.321 793.061 54.1222C793.368 54.9148 793.794 55.5156 794.339 55.9247C794.885 56.3253 795.52 56.5256 796.244 56.5256C796.824 56.5256 797.335 56.402 797.778 56.1548C798.23 55.9077 798.6 55.5455 798.89 55.0682C799.18 54.5824 799.363 53.9943 799.44 53.304H805.282C805.223 54.9233 804.818 56.3381 804.068 57.5483C803.326 58.7585 802.282 59.7003 800.936 60.3736C799.598 61.0384 798.008 61.3707 796.167 61.3707ZM817.661 61.3707C815.607 61.3707 813.834 60.9659 812.342 60.1562C810.859 59.3381 809.717 58.1747 808.916 56.6662C808.124 55.1491 807.727 53.3466 807.727 51.2585C807.727 49.2301 808.128 47.4574 808.929 45.9403C809.73 44.4148 810.859 43.2301 812.317 42.3864C813.774 41.5341 815.491 41.108 817.469 41.108C818.866 41.108 820.145 41.3253 821.304 41.7599C822.463 42.1946 823.464 42.8381 824.308 43.6903C825.152 44.5426 825.808 45.5952 826.277 46.848C826.746 48.0923 826.98 49.5199 826.98 51.1307V52.6903H809.913V49.0597H821.163C821.155 48.3949 820.997 47.8026 820.69 47.2827C820.384 46.7628 819.962 46.358 819.425 46.0682C818.896 45.7699 818.287 45.6207 817.597 45.6207C816.898 45.6207 816.271 45.7784 815.717 46.0938C815.163 46.4006 814.724 46.8224 814.401 47.3594C814.077 47.8878 813.906 48.4886 813.889 49.1619V52.8565C813.889 53.6577 814.047 54.3608 814.362 54.9659C814.678 55.5625 815.125 56.027 815.705 56.3594C816.284 56.6918 816.974 56.858 817.776 56.858C818.33 56.858 818.832 56.7812 819.284 56.6278C819.736 56.4744 820.124 56.2486 820.447 55.9503C820.771 55.652 821.014 55.2855 821.176 54.8509L826.916 55.017C826.678 56.304 826.153 57.4247 825.344 58.3793C824.543 59.3253 823.49 60.0625 822.186 60.5909C820.882 61.1108 819.374 61.3707 817.661 61.3707ZM830.173 61V41.3636H836.245V44.9432H836.45C836.808 43.6477 837.392 42.6847 838.201 42.054C839.011 41.4148 839.953 41.0952 841.027 41.0952C841.316 41.0952 841.615 41.1165 841.922 41.1591C842.228 41.1932 842.514 41.2486 842.778 41.3253V46.7585C842.48 46.6562 842.088 46.5753 841.602 46.5156C841.125 46.456 840.699 46.4261 840.324 46.4261C839.582 46.4261 838.913 46.5923 838.316 46.9247C837.728 47.2486 837.264 47.7045 836.923 48.2926C836.591 48.8722 836.424 49.554 836.424 50.3381V61H830.173ZM849.745 68.3636C848.995 68.3636 848.288 68.304 847.623 68.1847C846.958 68.0739 846.387 67.9247 845.91 67.7372L847.291 63.1989C847.904 63.4034 848.458 63.5227 848.953 63.5568C849.456 63.5909 849.886 63.5099 850.244 63.3139C850.61 63.1264 850.892 62.7898 851.088 62.304L851.331 61.7159L844.35 41.3636H850.896L854.514 55.375H854.718L858.387 41.3636H864.971L857.569 62.8793C857.211 63.9531 856.704 64.8991 856.048 65.7173C855.4 66.544 854.561 67.1918 853.529 67.6605C852.507 68.1293 851.245 68.3636 849.745 68.3636ZM875.103 61V34.8182H881.431V55.8608H892.323V61H875.103ZM895.599 61V41.3636H901.85V61H895.599ZM898.731 39.0753C897.853 39.0753 897.099 38.7855 896.468 38.206C895.837 37.6179 895.522 36.9105 895.522 36.0838C895.522 35.2656 895.837 34.5668 896.468 33.9872C897.099 33.3991 897.853 33.1051 898.731 33.1051C899.617 33.1051 900.371 33.3991 900.994 33.9872C901.624 34.5668 901.94 35.2656 901.94 36.0838C901.94 36.9105 901.624 37.6179 900.994 38.206C900.371 38.7855 899.617 39.0753 898.731 39.0753ZM922.973 47.3594L917.233 47.5128C917.173 47.1037 917.011 46.7415 916.747 46.4261C916.483 46.1023 916.137 45.8509 915.711 45.6719C915.294 45.4844 914.808 45.3906 914.254 45.3906C913.529 45.3906 912.912 45.5355 912.4 45.8253C911.897 46.1151 911.65 46.5071 911.659 47.0014C911.65 47.3849 911.804 47.7173 912.119 47.9986C912.443 48.2798 913.018 48.5057 913.845 48.6761L917.629 49.392C919.589 49.767 921.047 50.3892 922.001 51.2585C922.964 52.1278 923.45 53.2784 923.458 54.7102C923.45 56.0568 923.049 57.2287 922.257 58.2259C921.473 59.223 920.399 59.9986 919.035 60.5526C917.672 61.098 916.112 61.3707 914.356 61.3707C911.552 61.3707 909.341 60.7955 907.721 59.6449C906.11 58.4858 905.19 56.9347 904.96 54.9915L911.135 54.8381C911.271 55.554 911.625 56.0994 912.196 56.4744C912.767 56.8494 913.495 57.0369 914.382 57.0369C915.183 57.0369 915.835 56.8878 916.338 56.5895C916.841 56.2912 917.096 55.8949 917.105 55.4006C917.096 54.9574 916.9 54.6037 916.517 54.3395C916.133 54.0668 915.532 53.8537 914.714 53.7003L911.288 53.0483C909.319 52.6903 907.853 52.0298 906.89 51.0668C905.927 50.0952 905.45 48.8594 905.458 47.3594C905.45 46.0469 905.799 44.9261 906.507 43.9972C907.214 43.0597 908.22 42.3438 909.524 41.8494C910.828 41.3551 912.366 41.108 914.139 41.108C916.798 41.108 918.895 41.6662 920.429 42.7827C921.963 43.8906 922.811 45.4162 922.973 47.3594ZM937.62 41.3636V45.9659H925.232V41.3636H937.62ZM927.827 36.6591H934.079V54.8253C934.079 55.2088 934.138 55.5199 934.258 55.7585C934.386 55.9886 934.569 56.1548 934.808 56.2571C935.046 56.3509 935.332 56.3977 935.664 56.3977C935.903 56.3977 936.154 56.3764 936.418 56.3338C936.691 56.2827 936.896 56.2401 937.032 56.206L937.978 60.7188C937.68 60.804 937.258 60.9105 936.712 61.0384C936.175 61.1662 935.532 61.2472 934.782 61.2812C933.316 61.3494 932.059 61.179 931.011 60.7699C929.971 60.3523 929.174 59.7045 928.62 58.8267C928.075 57.9489 927.81 56.8452 927.827 55.5156V36.6591Z" fill="#FAAB78"/>
<path d="M1028.98 61V34.8182H1046.85V39.9574H1035.31V45.3267H1045.72V50.4787H1035.31V61H1028.98ZM1057.76 61.3707C1055.7 61.3707 1053.93 60.9489 1052.45 60.1051C1050.97 59.2528 1049.83 58.0682 1049.03 56.5511C1048.24 55.0256 1047.84 53.2571 1047.84 51.2457C1047.84 49.2259 1048.24 47.4574 1049.03 45.9403C1049.83 44.4148 1050.97 43.2301 1052.45 42.3864C1053.93 41.5341 1055.7 41.108 1057.76 41.108C1059.83 41.108 1061.6 41.5341 1063.07 42.3864C1064.55 43.2301 1065.69 44.4148 1066.48 45.9403C1067.28 47.4574 1067.69 49.2259 1067.69 51.2457C1067.69 53.2571 1067.28 55.0256 1066.48 56.5511C1065.69 58.0682 1064.55 59.2528 1063.07 60.1051C1061.6 60.9489 1059.83 61.3707 1057.76 61.3707ZM1057.8 56.6534C1058.55 56.6534 1059.19 56.4233 1059.71 55.9631C1060.23 55.5028 1060.62 54.8636 1060.9 54.0455C1061.18 53.2273 1061.32 52.2812 1061.32 51.2074C1061.32 50.1165 1061.18 49.1619 1060.9 48.3438C1060.62 47.5256 1060.23 46.8864 1059.71 46.4261C1059.19 45.9659 1058.55 45.7358 1057.8 45.7358C1057.03 45.7358 1056.37 45.9659 1055.83 46.4261C1055.31 46.8864 1054.9 47.5256 1054.62 48.3438C1054.35 49.1619 1054.21 50.1165 1054.21 51.2074C1054.21 52.2812 1054.35 53.2273 1054.62 54.0455C1054.9 54.8636 1055.31 55.5028 1055.83 55.9631C1056.37 56.4233 1057.03 56.6534 1057.8 56.6534ZM1080.05 61.3707C1077.99 61.3707 1076.22 60.9489 1074.74 60.1051C1073.26 59.2528 1072.12 58.0682 1071.32 56.5511C1070.53 55.0256 1070.13 53.2571 1070.13 51.2457C1070.13 49.2259 1070.53 47.4574 1071.32 45.9403C1072.12 44.4148 1073.26 43.2301 1074.74 42.3864C1076.22 41.5341 1077.99 41.108 1080.05 41.108C1082.12 41.108 1083.88 41.5341 1085.36 42.3864C1086.84 43.2301 1087.98 44.4148 1088.77 45.9403C1089.57 47.4574 1089.97 49.2259 1089.97 51.2457C1089.97 53.2571 1089.57 55.0256 1088.77 56.5511C1087.98 58.0682 1086.84 59.2528 1085.36 60.1051C1083.88 60.9489 1082.12 61.3707 1080.05 61.3707ZM1080.09 56.6534C1080.84 56.6534 1081.48 56.4233 1082 55.9631C1082.52 55.5028 1082.91 54.8636 1083.19 54.0455C1083.47 53.2273 1083.61 52.2812 1083.61 51.2074C1083.61 50.1165 1083.47 49.1619 1083.19 48.3438C1082.91 47.5256 1082.52 46.8864 1082 46.4261C1081.48 45.9659 1080.84 45.7358 1080.09 45.7358C1079.32 45.7358 1078.66 45.9659 1078.12 46.4261C1077.6 46.8864 1077.19 47.5256 1076.91 48.3438C1076.64 49.1619 1076.5 50.1165 1076.5 51.2074C1076.5 52.2812 1076.64 53.2273 1076.91 54.0455C1077.19 54.8636 1077.6 55.5028 1078.12 55.9631C1078.66 56.4233 1079.32 56.6534 1080.09 56.6534ZM1100.35 61.2812C1098.9 61.2812 1097.58 60.9062 1096.4 60.1562C1095.21 59.4062 1094.27 58.2812 1093.56 56.7812C1092.85 55.2812 1092.5 53.419 1092.5 51.1946C1092.5 48.8849 1092.87 46.9844 1093.6 45.4929C1094.33 44.0014 1095.29 42.8977 1096.48 42.1818C1097.67 41.4659 1098.95 41.108 1100.32 41.108C1101.35 41.108 1102.24 41.2869 1102.97 41.6449C1103.7 41.9943 1104.31 42.446 1104.78 43C1105.26 43.554 1105.62 44.1293 1105.87 44.7259H1106V34.8182H1112.25V61H1106.06V57.8168H1105.87C1105.61 58.4219 1105.23 58.9886 1104.75 59.517C1104.26 60.0455 1103.65 60.4716 1102.92 60.7955C1102.19 61.1193 1101.34 61.2812 1100.35 61.2812ZM1102.52 56.4105C1103.28 56.4105 1103.93 56.1974 1104.47 55.7713C1105 55.3366 1105.42 54.7273 1105.71 53.9432C1106 53.1591 1106.14 52.2386 1106.14 51.1818C1106.14 50.108 1106 49.1832 1105.71 48.4077C1105.42 47.6321 1105.01 47.0355 1104.47 46.6179C1103.93 46.2003 1103.28 45.9915 1102.52 45.9915C1101.75 45.9915 1101.09 46.2045 1100.55 46.6307C1100.02 47.0568 1099.61 47.6577 1099.33 48.4332C1099.05 49.2088 1098.92 50.125 1098.92 51.1818C1098.92 52.2386 1099.06 53.1591 1099.34 53.9432C1099.62 54.7273 1100.02 55.3366 1100.55 55.7713C1101.09 56.1974 1101.75 56.4105 1102.52 56.4105ZM1123.94 61V34.8182H1130.27V55.8608H1141.16V61H1123.94ZM1153.6 61.3707C1151.54 61.3707 1149.77 60.9489 1148.28 60.1051C1146.81 59.2528 1145.67 58.0682 1144.87 56.5511C1144.08 55.0256 1143.68 53.2571 1143.68 51.2457C1143.68 49.2259 1144.08 47.4574 1144.87 45.9403C1145.67 44.4148 1146.81 43.2301 1148.28 42.3864C1149.77 41.5341 1151.54 41.108 1153.6 41.108C1155.66 41.108 1157.43 41.5341 1158.91 42.3864C1160.39 43.2301 1161.53 44.4148 1162.32 45.9403C1163.12 47.4574 1163.52 49.2259 1163.52 51.2457C1163.52 53.2571 1163.12 55.0256 1162.32 56.5511C1161.53 58.0682 1160.39 59.2528 1158.91 60.1051C1157.43 60.9489 1155.66 61.3707 1153.6 61.3707ZM1153.64 56.6534C1154.39 56.6534 1155.02 56.4233 1155.54 55.9631C1156.06 55.5028 1156.46 54.8636 1156.73 54.0455C1157.01 53.2273 1157.15 52.2812 1157.15 51.2074C1157.15 50.1165 1157.01 49.1619 1156.73 48.3438C1156.46 47.5256 1156.06 46.8864 1155.54 46.4261C1155.02 45.9659 1154.39 45.7358 1153.64 45.7358C1152.86 45.7358 1152.21 45.9659 1151.67 46.4261C1151.14 46.8864 1150.74 47.5256 1150.46 48.3438C1150.18 49.1619 1150.05 50.1165 1150.05 51.2074C1150.05 52.2812 1150.18 53.2273 1150.46 54.0455C1150.74 54.8636 1151.14 55.5028 1151.67 55.9631C1152.21 56.4233 1152.86 56.6534 1153.64 56.6534ZM1175.88 68.7727C1174.01 68.7727 1172.41 68.5128 1171.08 67.9929C1169.75 67.473 1168.71 66.7614 1167.95 65.858C1167.19 64.9545 1166.74 63.9318 1166.58 62.7898L1172.5 62.4574C1172.61 62.858 1172.82 63.2074 1173.12 63.5057C1173.42 63.804 1173.82 64.0341 1174.3 64.196C1174.8 64.358 1175.38 64.4389 1176.04 64.4389C1177.09 64.4389 1177.96 64.1832 1178.64 63.6719C1179.33 63.169 1179.67 62.2869 1179.67 61.0256V57.5739H1179.46C1179.21 58.179 1178.83 58.7202 1178.33 59.1974C1177.83 59.6747 1177.2 60.0497 1176.45 60.3224C1175.71 60.5952 1174.86 60.7315 1173.9 60.7315C1172.46 60.7315 1171.15 60.3991 1169.96 59.7344C1168.77 59.0611 1167.82 58.0213 1167.11 56.6151C1166.4 55.2003 1166.05 53.3807 1166.05 51.1562C1166.05 48.8636 1166.41 46.9759 1167.15 45.4929C1167.88 44.0014 1168.84 42.8977 1170.02 42.1818C1171.22 41.4659 1172.5 41.108 1173.87 41.108C1174.9 41.108 1175.78 41.2869 1176.52 41.6449C1177.26 41.9943 1177.87 42.446 1178.34 43C1178.82 43.554 1179.18 44.1293 1179.43 44.7259H1179.61V41.3636H1185.84V61.0767C1185.84 62.7386 1185.42 64.1406 1184.58 65.2827C1183.75 66.4247 1182.58 67.2898 1181.08 67.8778C1179.58 68.4744 1177.85 68.7727 1175.88 68.7727ZM1176.07 56.1804C1176.83 56.1804 1177.48 55.9801 1178.01 55.5795C1178.55 55.179 1178.96 54.6037 1179.25 53.8537C1179.54 53.1037 1179.69 52.2045 1179.69 51.1562C1179.69 50.0909 1179.54 49.1747 1179.25 48.4077C1178.97 47.6321 1178.56 47.0355 1178.01 46.6179C1177.48 46.2003 1176.83 45.9915 1176.07 45.9915C1175.29 45.9915 1174.64 46.2045 1174.1 46.6307C1173.56 47.0568 1173.15 47.6577 1172.87 48.4332C1172.6 49.2003 1172.46 50.108 1172.46 51.1562C1172.46 52.2045 1172.6 53.1037 1172.89 53.8537C1173.17 54.6037 1173.57 55.179 1174.1 55.5795C1174.64 55.9801 1175.29 56.1804 1176.07 56.1804Z" fill="#FAAB78"/>
<path d="M1653.01 67.1991L1654.69 70.2661C1655.19 71.1791 1656.01 71.9548 1657.04 72.4992C1658.07 73.0436 1659.27 73.3333 1660.51 73.3332C1661.74 73.3333 1662.94 73.0436 1663.97 72.4992C1665 71.9548 1665.82 71.1791 1666.32 70.2661L1668 67.1991C1668.6 66.1108 1669.6 65.2035 1670.87 64.6065C1672.15 64.0079 1673.63 63.7528 1675.1 63.878L1679.21 64.2332C1680.44 64.3382 1681.67 64.1529 1682.77 63.6996C1683.86 63.2463 1684.77 62.5446 1685.39 61.6795C1686.01 60.8149 1686.3 59.8238 1686.23 58.8266C1686.17 57.8293 1685.75 56.8687 1685.03 56.0613L1682.59 53.3469C1681.72 52.3731 1681.26 51.2011 1681.27 49.9998C1681.27 48.8019 1681.74 47.6347 1682.6 46.6658L1685.04 43.9513C1685.76 43.1439 1686.18 42.1833 1686.25 41.1861C1686.31 40.1888 1686.02 39.1978 1685.4 38.3332C1684.79 37.4681 1683.88 36.7663 1682.78 36.313C1681.68 35.8598 1680.45 35.6744 1679.22 35.7795L1675.11 36.1347C1673.65 36.2598 1672.17 36.0048 1670.89 35.4061C1669.61 34.8058 1668.61 33.8937 1668.01 32.8006L1666.32 29.7335C1665.82 28.8206 1665 28.0448 1663.97 27.5004C1662.94 26.956 1661.74 26.6663 1660.51 26.6665C1659.27 26.6663 1658.07 26.956 1657.04 27.5004C1656.01 28.0448 1655.19 28.8206 1654.69 29.7335L1653.01 32.8006C1652.42 33.8937 1651.41 34.8058 1650.14 35.4061C1648.86 36.0048 1647.38 36.2598 1645.91 36.1347L1641.79 35.7795C1640.56 35.6744 1639.33 35.8598 1638.23 36.313C1637.13 36.7663 1636.22 37.4681 1635.61 38.3332C1634.99 39.1978 1634.7 40.1888 1634.76 41.1861C1634.83 42.1833 1635.25 43.1439 1635.97 43.9513L1638.41 46.6658C1639.27 47.6347 1639.74 48.8019 1639.74 49.9998C1639.74 51.1978 1639.27 52.365 1638.41 53.3339L1635.97 56.0484C1635.25 56.8557 1634.83 57.8163 1634.76 58.8136C1634.7 59.8109 1634.99 60.8019 1635.61 61.6665C1636.22 62.5312 1637.13 63.2325 1638.23 63.6858C1639.33 64.139 1640.56 64.3246 1641.79 64.2202L1645.9 63.865C1647.37 63.7399 1648.84 63.9949 1650.12 64.5935C1651.4 65.1922 1652.41 66.1045 1653.01 67.1991Z" stroke="#FAAB78" stroke-width="2" stroke-linecap="round" stroke-linejoin="round"/>
<path d="M1660.5 56.9998C1665.26 56.9998 1669.13 53.8658 1669.13 49.9998C1669.13 46.1338 1665.26 42.9998 1660.5 42.9998C1655.74 42.9998 1651.88 46.1338 1651.88 49.9998C1651.88 53.8658 1655.74 56.9998 1660.5 56.9998Z" stroke="#FAAB78" stroke-width="2" stroke-linecap="round" stroke-linejoin="round"/>
<path d="M323.94 192V183.072C323.94 181.968 323.976 180.84 324.048 179.688C324.144 178.512 324.24 177.528 324.336 176.736C324.432 175.944 324.492 175.44 324.516 175.224H324.372L319.8 192H313.572L308.964 175.26H308.82C308.844 175.476 308.904 175.98 309 176.772C309.12 177.54 309.228 178.512 309.324 179.688C309.42 180.84 309.468 181.968 309.468 183.072V192H302.16V167.232H313.392L317.136 181.524H317.28L320.988 167.232H331.824V192H323.94ZM349.224 191.424C348.24 194.088 347.028 196.104 345.588 197.472C344.172 198.864 342.18 199.56 339.612 199.56C338.052 199.56 336.672 199.344 335.472 198.912V194.628H338.352C340.152 194.628 341.22 193.752 341.556 192L333.996 172.992H341.7L345.336 185.628H345.588L348.936 172.992H355.992L349.224 191.424ZM384.552 167.232C386.088 167.232 387.456 167.592 388.656 168.312C389.856 169.008 390.792 169.98 391.464 171.228C392.136 172.452 392.472 173.832 392.472 175.368V175.836C392.472 177.372 392.136 178.764 391.464 180.012C390.792 181.26 389.856 182.244 388.656 182.964C387.456 183.66 386.088 184.008 384.552 184.008H378.612V192H370.656V167.232H384.552ZM378.612 178.212H381.888C382.728 178.212 383.352 177.996 383.76 177.564C384.192 177.132 384.408 176.544 384.408 175.8V175.512C384.408 174.744 384.192 174.156 383.76 173.748C383.352 173.316 382.728 173.1 381.888 173.1H378.612V178.212ZM404.931 172.56C407.835 172.56 410.199 173.052 412.023 174.036C413.847 174.996 414.759 176.568 414.759 178.752V186.168C414.759 186.576 414.855 186.912 415.047 187.176C415.239 187.44 415.527 187.572 415.911 187.572H417.207V191.712C417.135 191.76 416.943 191.844 416.631 191.964C416.343 192.06 415.923 192.156 415.371 192.252C414.819 192.372 414.183 192.432 413.463 192.432C412.071 192.432 410.919 192.228 410.007 191.82C409.119 191.388 408.507 190.8 408.171 190.056C407.259 190.776 406.239 191.352 405.111 191.784C403.983 192.216 402.663 192.432 401.151 192.432C396.687 192.432 394.455 190.656 394.455 187.104C394.455 185.256 394.947 183.852 395.931 182.892C396.939 181.908 398.379 181.236 400.251 180.876C402.123 180.516 404.571 180.336 407.595 180.336V179.4C407.595 178.656 407.331 178.092 406.803 177.708C406.299 177.324 405.639 177.132 404.823 177.132C404.079 177.132 403.431 177.264 402.879 177.528C402.351 177.792 402.087 178.212 402.087 178.788V178.932H395.031C395.007 178.812 394.995 178.644 394.995 178.428C394.995 176.628 395.847 175.2 397.551 174.144C399.279 173.088 401.739 172.56 404.931 172.56ZM407.595 183.72C405.555 183.72 404.043 183.948 403.059 184.404C402.099 184.836 401.619 185.424 401.619 186.168C401.619 187.368 402.435 187.968 404.067 187.968C405.003 187.968 405.819 187.716 406.515 187.212C407.235 186.708 407.595 186.084 407.595 185.34V183.72ZM432.651 172.56C434.859 172.56 436.515 173.172 437.619 174.396C438.723 175.62 439.275 177.384 439.275 179.688V192H432.111V180.552C432.111 179.736 431.895 179.088 431.463 178.608C431.055 178.104 430.467 177.852 429.699 177.852C428.811 177.852 428.091 178.14 427.539 178.716C426.987 179.292 426.711 180 426.711 180.84V192H419.547V172.992H425.415L425.883 175.872C426.627 174.864 427.599 174.06 428.799 173.46C430.023 172.86 431.307 172.56 432.651 172.56ZM456.23 172.992V177.852H452.198V185.088C452.198 185.952 452.342 186.588 452.63 186.996C452.918 187.38 453.446 187.572 454.214 187.572H456.23V191.784C455.654 191.976 454.91 192.132 453.998 192.252C453.086 192.372 452.294 192.432 451.622 192.432C449.51 192.432 447.878 192.048 446.726 191.28C445.598 190.512 445.034 189.204 445.034 187.356V177.852H442.37V172.992H445.322L446.87 167.232H452.198V172.992H456.23ZM471.111 172.524C471.663 172.524 472.155 172.596 472.587 172.74C473.019 172.86 473.235 172.932 473.235 172.956V178.968H470.931C469.443 178.968 468.363 179.352 467.691 180.12C467.043 180.888 466.719 182.028 466.719 183.54V192H459.555V172.992H465.423L465.891 175.872C466.323 174.768 467.007 173.94 467.943 173.388C468.879 172.812 469.935 172.524 471.111 172.524ZM490.693 191.424C489.709 194.088 488.497 196.104 487.057 197.472C485.641 198.864 483.649 199.56 481.081 199.56C479.521 199.56 478.141 199.344 476.941 198.912V194.628H479.821C481.621 194.628 482.689 193.752 483.025 192L475.465 172.992H483.169L486.805 185.628H487.057L490.405 172.992H497.461L490.693 191.424Z" fill="#FAAB78"/>
<rect x="302.5" y="218.5" width="1117" height="601" rx="17.5" fill="white" stroke="#FAAB78" stroke-width="5"/>
<circle cx="861" cy="497" r="54.5" fill="white" stroke="#FAAB78" stroke-width="5"/>
<line x1="861.5" y1="474" x2="861.5" y2="520" stroke="#FAAB78" stroke-width="5"/>
<line x1="884" y1="497.5" x2="838" y2="497.5" stroke="#FAAB78" stroke-width="5"/>
<path d="M810.44 592L816.848 575.536H820.784L827.216 592H823.832L822.512 588.496H814.976L813.656 592H810.44ZM815.96 585.856H821.504L819.848 581.392C819.784 581.232 819.704 581.032 819.608 580.792C819.528 580.536 819.44 580.264 819.344 579.976C819.248 579.672 819.152 579.368 819.056 579.064C818.96 578.76 818.872 578.488 818.792 578.248H818.672C818.576 578.568 818.456 578.936 818.312 579.352C818.184 579.768 818.056 580.16 817.928 580.528C817.8 580.896 817.696 581.184 817.616 581.392L815.96 585.856ZM833.288 592.288C832.264 592.288 831.376 592.056 830.624 591.592C829.872 591.128 829.288 590.408 828.872 589.432C828.472 588.456 828.272 587.2 828.272 585.664C828.272 584.144 828.48 582.904 828.896 581.944C829.312 580.968 829.888 580.248 830.624 579.784C831.36 579.32 832.192 579.088 833.12 579.088C833.696 579.088 834.224 579.152 834.704 579.28C835.184 579.408 835.608 579.608 835.976 579.88C836.344 580.136 836.656 580.456 836.912 580.84H837.056V574.648H839.984V592H837.56L837.32 590.32H837.152C836.752 590.976 836.208 591.472 835.52 591.808C834.848 592.128 834.104 592.288 833.288 592.288ZM834.2 589.768C834.872 589.768 835.416 589.616 835.832 589.312C836.248 589.008 836.552 588.568 836.744 587.992C836.952 587.416 837.056 586.712 837.056 585.88V585.568C837.056 584.944 837 584.384 836.888 583.888C836.776 583.392 836.6 582.976 836.36 582.64C836.136 582.304 835.84 582.048 835.472 581.872C835.12 581.696 834.696 581.608 834.2 581.608C833.48 581.608 832.904 581.752 832.472 582.04C832.056 582.312 831.752 582.744 831.56 583.336C831.384 583.912 831.296 584.648 831.296 585.544V585.88C831.296 586.76 831.384 587.488 831.56 588.064C831.752 588.64 832.056 589.072 832.472 589.36C832.904 589.632 833.48 589.768 834.2 589.768ZM847.491 592.288C846.467 592.288 845.579 592.056 844.827 591.592C844.075 591.128 843.491 590.408 843.075 589.432C842.675 588.456 842.475 587.2 842.475 585.664C842.475 584.144 842.683 582.904 843.099 581.944C843.515 580.968 844.091 580.248 844.827 579.784C845.563 579.32 846.395 579.088 847.323 579.088C847.899 579.088 848.427 579.152 848.907 579.28C849.387 579.408 849.811 579.608 850.179 579.88C850.547 580.136 850.859 580.456 851.115 580.84H851.259V574.648H854.187V592H851.763L851.523 590.32H851.355C850.955 590.976 850.411 591.472 849.723 591.808C849.051 592.128 848.307 592.288 847.491 592.288ZM848.403 589.768C849.075 589.768 849.619 589.616 850.035 589.312C850.451 589.008 850.755 588.568 850.947 587.992C851.155 587.416 851.259 586.712 851.259 585.88V585.568C851.259 584.944 851.203 584.384 851.091 583.888C850.979 583.392 850.803 582.976 850.563 582.64C850.339 582.304 850.043 582.048 849.675 581.872C849.323 581.696 848.899 581.608 848.403 581.608C847.683 581.608 847.107 581.752 846.675 582.04C846.259 582.312 845.955 582.744 845.763 583.336C845.587 583.912 845.499 584.648 845.499 585.544V585.88C845.499 586.76 845.587 587.488 845.763 588.064C845.955 588.64 846.259 589.072 846.675 589.36C847.107 589.632 847.683 589.768 848.403 589.768ZM862.707 592V581.776H860.883V579.376H862.707V577.768C862.707 577.208 862.795 576.68 862.971 576.184C863.163 575.672 863.491 575.256 863.955 574.936C864.419 574.616 865.067 574.456 865.899 574.456C866.139 574.456 866.379 574.472 866.619 574.504C866.875 574.536 867.115 574.584 867.339 574.648C867.563 574.696 867.755 574.752 867.915 574.816V576.856H866.715C866.363 576.856 866.091 576.952 865.899 577.144C865.723 577.32 865.635 577.584 865.635 577.936V579.376H867.915V581.776H865.635V592H862.707ZM874.965 592.288C873.589 592.288 872.437 592.056 871.509 591.592C870.581 591.112 869.885 590.384 869.421 589.408C868.957 588.432 868.725 587.192 868.725 585.688C868.725 584.168 868.957 582.928 869.421 581.968C869.885 580.992 870.581 580.272 871.509 579.808C872.437 579.328 873.589 579.088 874.965 579.088C876.357 579.088 877.509 579.328 878.421 579.808C879.349 580.272 880.045 580.992 880.509 581.968C880.973 582.928 881.205 584.168 881.205 585.688C881.205 587.192 880.973 588.432 880.509 589.408C880.045 590.384 879.349 591.112 878.421 591.592C877.509 592.056 876.357 592.288 874.965 592.288ZM874.965 589.888C875.733 589.888 876.349 589.744 876.813 589.456C877.293 589.152 877.637 588.704 877.845 588.112C878.069 587.504 878.181 586.752 878.181 585.856V585.52C878.181 584.624 878.069 583.88 877.845 583.288C877.637 582.68 877.293 582.232 876.813 581.944C876.349 581.64 875.733 581.488 874.965 581.488C874.197 581.488 873.573 581.64 873.093 581.944C872.629 582.232 872.285 582.68 872.061 583.288C871.853 583.88 871.749 584.624 871.749 585.52V585.856C871.749 586.752 871.853 587.504 872.061 588.112C872.285 588.704 872.629 589.152 873.093 589.456C873.573 589.744 874.197 589.888 874.965 589.888ZM889.309 592.288C887.933 592.288 886.781 592.056 885.853 591.592C884.925 591.112 884.229 590.384 883.765 589.408C883.301 588.432 883.069 587.192 883.069 585.688C883.069 584.168 883.301 582.928 883.765 581.968C884.229 580.992 884.925 580.272 885.853 579.808C886.781 579.328 887.933 579.088 889.309 579.088C890.701 579.088 891.853 579.328 892.765 579.808C893.693 580.272 894.389 580.992 894.853 581.968C895.317 582.928 895.549 584.168 895.549 585.688C895.549 587.192 895.317 588.432 894.853 589.408C894.389 590.384 893.693 591.112 892.765 591.592C891.853 592.056 890.701 592.288 889.309 592.288ZM889.309 589.888C890.077 589.888 890.693 589.744 891.157 589.456C891.637 589.152 891.981 588.704 892.189 588.112C892.413 587.504 892.525 586.752 892.525 585.856V585.52C892.525 584.624 892.413 583.88 892.189 583.288C891.981 582.68 891.637 582.232 891.157 581.944C890.693 581.64 890.077 581.488 889.309 581.488C888.541 581.488 887.917 581.64 887.437 581.944C886.973 582.232 886.629 582.68 886.405 583.288C886.197 583.88 886.093 584.624 886.093 585.52V585.856C886.093 586.752 886.197 587.504 886.405 588.112C886.629 588.704 886.973 589.152 887.437 589.456C887.917 589.744 888.541 589.888 889.309 589.888ZM902.429 592.288C901.405 592.288 900.517 592.056 899.765 591.592C899.013 591.128 898.429 590.408 898.013 589.432C897.613 588.456 897.413 587.2 897.413 585.664C897.413 584.144 897.621 582.904 898.037 581.944C898.453 580.968 899.029 580.248 899.765 579.784C900.501 579.32 901.333 579.088 902.261 579.088C902.837 579.088 903.365 579.152 903.845 579.28C904.325 579.408 904.749 579.608 905.117 579.88C905.485 580.136 905.797 580.456 906.053 580.84H906.197V574.648H909.125V592H906.701L906.461 590.32H906.293C905.893 590.976 905.349 591.472 904.661 591.808C903.989 592.128 903.245 592.288 902.429 592.288ZM903.341 589.768C904.013 589.768 904.557 589.616 904.973 589.312C905.389 589.008 905.693 588.568 905.885 587.992C906.093 587.416 906.197 586.712 906.197 585.88V585.568C906.197 584.944 906.141 584.384 906.029 583.888C905.917 583.392 905.741 582.976 905.501 582.64C905.277 582.304 904.981 582.048 904.613 581.872C904.261 581.696 903.837 581.608 903.341 581.608C902.621 581.608 902.045 581.752 901.613 582.04C901.197 582.312 900.893 582.744 900.701 583.336C900.525 583.912 900.437 584.648 900.437 585.544V585.88C900.437 586.76 900.525 587.488 900.701 588.064C900.893 588.64 901.197 589.072 901.613 589.36C902.045 589.632 902.621 589.768 903.341 589.768Z" fill="#FAAB78"/>
</g>
<defs>
<clipPath id="clip0_301_347">
<rect width="1722" height="982" fill="white"/>
</clipPath>
</defs>
</svg>
