<svg width="375" height="677" viewBox="0 0 375 677" fill="none" xmlns="http://www.w3.org/2000/svg">
<rect width="375" height="677" fill="white"/>
<rect width="375" height="102" fill="#FFDCA9"/>
<path d="M307.25 53H350.75M307.25 38.5H350.75M307.25 67.5H350.75" stroke="#FAAB78" stroke-width="2" stroke-linecap="round" stroke-linejoin="round"/>
<path d="M43.68 30.096C46.1547 30.096 48.3587 30.676 50.292 31.836C52.2253 32.9573 53.7333 34.5233 54.816 36.534C55.8987 38.506 56.44 40.7293 56.44 43.204V43.958C56.44 46.4327 55.8987 48.6753 54.816 50.686C53.7333 52.6967 52.2253 54.282 50.292 55.442C48.3587 56.5633 46.1547 57.124 43.68 57.124H34.11V70H21.292V30.096H43.68ZM34.11 47.786H39.388C40.7413 47.786 41.7467 47.438 42.404 46.742C43.1 46.046 43.448 45.0987 43.448 43.9V43.436C43.448 42.1987 43.1 41.2513 42.404 40.594C41.7467 39.898 40.7413 39.55 39.388 39.55H34.11V47.786ZM76.5125 38.68C81.1912 38.68 84.9999 39.4727 87.9385 41.058C90.8772 42.6047 92.3465 45.1373 92.3465 48.656V60.604C92.3465 61.2613 92.5012 61.8027 92.8105 62.228C93.1199 62.6533 93.5839 62.866 94.2025 62.866H96.2905V69.536C96.1745 69.6133 95.8652 69.7487 95.3625 69.942C94.8985 70.0967 94.2219 70.2513 93.3325 70.406C92.4432 70.5993 91.4185 70.696 90.2585 70.696C88.0159 70.696 86.1599 70.3673 84.6905 69.71C83.2599 69.014 82.2739 68.0667 81.7325 66.868C80.2632 68.028 78.6199 68.956 76.8025 69.652C74.9852 70.348 72.8585 70.696 70.4225 70.696C63.2305 70.696 59.6345 67.8347 59.6345 62.112C59.6345 59.1347 60.4272 56.8727 62.0125 55.326C63.6365 53.7407 65.9565 52.658 68.9725 52.078C71.9885 51.498 75.9325 51.208 80.8045 51.208V49.7C80.8045 48.5013 80.3792 47.5927 79.5285 46.974C78.7165 46.3553 77.6532 46.046 76.3385 46.046C75.1399 46.046 74.0959 46.2587 73.2065 46.684C72.3559 47.1093 71.9305 47.786 71.9305 48.714V48.946H60.5625C60.5239 48.7527 60.5045 48.482 60.5045 48.134C60.5045 45.234 61.8772 42.9333 64.6225 41.232C67.4065 39.5307 71.3699 38.68 76.5125 38.68ZM80.8045 56.66C77.5179 56.66 75.0819 57.0273 73.4965 57.762C71.9499 58.458 71.1765 59.4053 71.1765 60.604C71.1765 62.5373 72.4912 63.504 75.1205 63.504C76.6285 63.504 77.9432 63.098 79.0645 62.286C80.2245 61.474 80.8045 60.4687 80.8045 59.27V56.66ZM121.172 38.68C124.729 38.68 127.397 39.666 129.176 41.638C130.955 43.61 131.844 46.452 131.844 50.164V70H120.302V51.556C120.302 50.2413 119.954 49.1973 119.258 48.424C118.601 47.612 117.653 47.206 116.416 47.206C114.985 47.206 113.825 47.67 112.936 48.598C112.047 49.526 111.602 50.6667 111.602 52.02V70H100.06V39.376H109.514L110.268 44.016C111.467 42.392 113.033 41.0967 114.966 40.13C116.938 39.1633 119.007 38.68 121.172 38.68ZM159.162 39.376V47.206H152.666V58.864C152.666 60.256 152.898 61.2807 153.362 61.938C153.826 62.5567 154.676 62.866 155.914 62.866H159.162V69.652C158.234 69.9613 157.035 70.2127 155.566 70.406C154.096 70.5993 152.82 70.696 151.738 70.696C148.335 70.696 145.706 70.0773 143.85 68.84C142.032 67.6027 141.124 65.4953 141.124 62.518V47.206H136.832V39.376H141.588L144.082 30.096H152.666V39.376H159.162ZM183.135 38.622C184.024 38.622 184.817 38.738 185.513 38.97C186.209 39.1633 186.557 39.2793 186.557 39.318V49.004H182.845C180.448 49.004 178.708 49.6227 177.625 50.86C176.581 52.0973 176.059 53.934 176.059 56.37V70H164.517V39.376H173.971L174.725 44.016C175.421 42.2373 176.523 40.9033 178.031 40.014C179.539 39.086 181.24 38.622 183.135 38.622ZM214.684 69.072C213.099 73.364 211.146 76.612 208.826 78.816C206.545 81.0587 203.336 82.18 199.198 82.18C196.685 82.18 194.462 81.832 192.528 81.136V74.234H197.168C200.068 74.234 201.789 72.8227 202.33 70L190.15 39.376H202.562L208.42 59.734H208.826L214.22 39.376H225.588L214.684 69.072ZM223.708 70V58.458H236.004V70H223.708Z" fill="#FAAB78"/>
<path d="M28.648 186V153.072H52.936V158.928H35.8V167.088H51.112V172.896H35.8V186H28.648ZM68.0005 186.576C65.2485 186.576 62.9125 186.112 60.9925 185.184C59.0725 184.224 57.6165 182.768 56.6245 180.816C55.6325 178.832 55.1365 176.352 55.1365 173.376C55.1365 170.336 55.6325 167.856 56.6245 165.936C57.6165 163.984 59.0725 162.544 60.9925 161.616C62.9125 160.656 65.2485 160.176 68.0005 160.176C70.8165 160.176 73.1685 160.656 75.0565 161.616C76.9765 162.544 78.4325 163.984 79.4245 165.936C80.4165 167.856 80.9125 170.336 80.9125 173.376C80.9125 176.352 80.4165 178.832 79.4245 180.816C78.4325 182.768 76.9765 184.224 75.0565 185.184C73.1685 186.112 70.8165 186.576 68.0005 186.576ZM68.0005 181.392C69.4725 181.392 70.6405 181.12 71.5045 180.576C72.4005 180.032 73.0565 179.2 73.4725 178.08C73.8885 176.96 74.0965 175.584 74.0965 173.952V172.8C74.0965 171.168 73.8885 169.792 73.4725 168.672C73.0565 167.552 72.4005 166.72 71.5045 166.176C70.6405 165.6 69.4725 165.312 68.0005 165.312C66.5605 165.312 65.3925 165.6 64.4965 166.176C63.6325 166.72 62.9925 167.552 62.5765 168.672C62.1605 169.792 61.9525 171.168 61.9525 172.8V173.952C61.9525 175.584 62.1605 176.96 62.5765 178.08C62.9925 179.2 63.6325 180.032 64.4965 180.576C65.3925 181.12 66.5605 181.392 68.0005 181.392ZM97.438 186.576C94.686 186.576 92.35 186.112 90.43 185.184C88.51 184.224 87.054 182.768 86.062 180.816C85.07 178.832 84.574 176.352 84.574 173.376C84.574 170.336 85.07 167.856 86.062 165.936C87.054 163.984 88.51 162.544 90.43 161.616C92.35 160.656 94.686 160.176 97.438 160.176C100.254 160.176 102.606 160.656 104.494 161.616C106.414 162.544 107.87 163.984 108.862 165.936C109.854 167.856 110.35 170.336 110.35 173.376C110.35 176.352 109.854 178.832 108.862 180.816C107.87 182.768 106.414 184.224 104.494 185.184C102.606 186.112 100.254 186.576 97.438 186.576ZM97.438 181.392C98.91 181.392 100.078 181.12 100.942 180.576C101.838 180.032 102.494 179.2 102.91 178.08C103.326 176.96 103.534 175.584 103.534 173.952V172.8C103.534 171.168 103.326 169.792 102.91 168.672C102.494 167.552 101.838 166.72 100.942 166.176C100.078 165.6 98.91 165.312 97.438 165.312C95.998 165.312 94.83 165.6 93.934 166.176C93.07 166.72 92.43 167.552 92.014 168.672C91.598 169.792 91.39 171.168 91.39 172.8V173.952C91.39 175.584 91.598 176.96 92.014 178.08C92.43 179.2 93.07 180.032 93.934 180.576C94.83 181.12 95.998 181.392 97.438 181.392ZM124.188 186.576C122.108 186.576 120.3 186.112 118.764 185.184C117.26 184.224 116.092 182.768 115.26 180.816C114.428 178.864 114.012 176.368 114.012 173.328C114.012 170.288 114.428 167.808 115.26 165.888C116.124 163.936 117.292 162.496 118.764 161.568C120.268 160.64 121.996 160.176 123.948 160.176C125.036 160.176 126.044 160.304 126.972 160.56C127.932 160.784 128.764 161.152 129.468 161.664C130.204 162.176 130.828 162.8 131.34 163.536H131.628V151.296H138.3V186H132.828L132.3 182.592H131.964C131.132 183.936 130.044 184.944 128.7 185.616C127.356 186.256 125.852 186.576 124.188 186.576ZM126.299 181.104C127.548 181.104 128.556 180.816 129.324 180.24C130.124 179.664 130.716 178.832 131.1 177.744C131.484 176.656 131.676 175.36 131.676 173.856V172.992C131.676 171.872 131.564 170.848 131.34 169.92C131.148 168.992 130.828 168.224 130.38 167.616C129.932 166.976 129.372 166.496 128.7 166.176C128.028 165.824 127.228 165.648 126.299 165.648C124.956 165.648 123.884 165.92 123.084 166.464C122.284 166.976 121.708 167.776 121.356 168.864C121.004 169.92 120.828 171.248 120.828 172.848V173.952C120.828 175.552 121.004 176.88 121.356 177.936C121.708 178.992 122.284 179.792 123.084 180.336C123.884 180.848 124.956 181.104 126.299 181.104ZM154.461 186V153.072H161.613V179.904H178.221V186H154.461ZM193.86 186.576C191.108 186.576 188.772 186.112 186.852 185.184C184.932 184.224 183.476 182.768 182.484 180.816C181.492 178.832 180.996 176.352 180.996 173.376C180.996 170.336 181.492 167.856 182.484 165.936C183.476 163.984 184.932 162.544 186.852 161.616C188.772 160.656 191.108 160.176 193.86 160.176C196.676 160.176 199.028 160.656 200.916 161.616C202.836 162.544 204.292 163.984 205.284 165.936C206.276 167.856 206.772 170.336 206.772 173.376C206.772 176.352 206.276 178.832 205.284 180.816C204.292 182.768 202.836 184.224 200.916 185.184C199.028 186.112 196.676 186.576 193.86 186.576ZM193.86 181.392C195.332 181.392 196.5 181.12 197.364 180.576C198.26 180.032 198.916 179.2 199.332 178.08C199.748 176.96 199.956 175.584 199.956 173.952V172.8C199.956 171.168 199.748 169.792 199.332 168.672C198.916 167.552 198.26 166.72 197.364 166.176C196.5 165.6 195.332 165.312 193.86 165.312C192.42 165.312 191.252 165.6 190.356 166.176C189.492 166.72 188.852 167.552 188.436 168.672C188.02 169.792 187.812 171.168 187.812 172.8V173.952C187.812 175.584 188.02 176.96 188.436 178.08C188.852 179.2 189.492 180.032 190.356 180.576C191.252 181.12 192.42 181.392 193.86 181.392ZM215.809 195.024C214.689 195.024 213.633 194.784 212.641 194.304C211.649 193.856 210.849 193.184 210.241 192.288C209.633 191.392 209.329 190.32 209.329 189.072C209.329 187.664 209.729 186.544 210.529 185.712C211.361 184.848 212.289 184.208 213.313 183.792C212.577 183.376 211.969 182.832 211.489 182.16C211.041 181.488 210.817 180.704 210.817 179.808C210.817 178.56 211.265 177.552 212.161 176.784C213.089 175.984 214.145 175.472 215.329 175.248C214.145 174.512 213.217 173.584 212.545 172.464C211.905 171.312 211.585 170.032 211.585 168.624C211.585 166.8 212.033 165.264 212.929 164.016C213.857 162.768 215.169 161.824 216.865 161.184C218.593 160.512 220.625 160.176 222.961 160.176C223.889 160.176 224.753 160.224 225.553 160.32C226.385 160.416 227.137 160.576 227.809 160.8C228.993 160.096 229.793 159.328 230.209 158.496C230.657 157.632 230.897 156.944 230.929 156.432H237.121C237.121 157.616 236.897 158.64 236.449 159.504C236.033 160.368 235.425 161.088 234.625 161.664C233.825 162.208 232.865 162.608 231.745 162.864C232.577 163.568 233.217 164.416 233.665 165.408C234.113 166.4 234.337 167.472 234.337 168.624C234.337 170.416 233.905 171.952 233.041 173.232C232.177 174.48 230.945 175.44 229.345 176.112C227.777 176.784 225.889 177.12 223.681 177.12H219.841C219.073 177.12 218.497 177.264 218.113 177.552C217.729 177.808 217.537 178.192 217.537 178.704C217.537 179.12 217.697 179.488 218.017 179.808C218.369 180.096 218.929 180.24 219.697 180.24H230.209C232.321 180.24 234.001 180.896 235.249 182.208C236.529 183.488 237.169 185.136 237.169 187.152C237.169 188.688 236.769 190.048 235.969 191.232C235.169 192.416 234.065 193.344 232.657 194.016C231.249 194.688 229.633 195.024 227.809 195.024H215.809ZM218.593 190.56H227.473C228.049 190.56 228.561 190.448 229.009 190.224C229.457 190.032 229.809 189.744 230.065 189.36C230.321 189.008 230.449 188.592 230.449 188.112C230.449 187.28 230.193 186.656 229.681 186.24C229.169 185.824 228.529 185.616 227.761 185.616H218.593C217.825 185.616 217.185 185.84 216.673 186.288C216.193 186.736 215.953 187.328 215.953 188.064C215.953 188.8 216.193 189.392 216.673 189.84C217.185 190.32 217.825 190.56 218.593 190.56ZM222.961 172.8C224.529 172.8 225.713 172.448 226.513 171.744C227.345 171.008 227.761 169.968 227.761 168.624C227.761 167.28 227.345 166.256 226.513 165.552C225.713 164.816 224.529 164.448 222.961 164.448C221.425 164.448 220.241 164.816 219.409 165.552C218.609 166.256 218.209 167.28 218.209 168.624C218.209 169.488 218.385 170.24 218.737 170.88C219.089 171.52 219.617 172 220.321 172.32C221.025 172.64 221.905 172.8 222.961 172.8Z" fill="#FAAB78"/>
<rect x="25" y="225" width="325" height="58" fill="#FAAB78"/>
<rect x="26" y="284" width="323" height="56" fill="white" stroke="#FAAB78" stroke-width="2"/>
<path d="M34.7614 266V242.727H44.4659C46.2083 242.727 47.6667 242.973 48.8409 243.466C50.0227 243.958 50.9091 244.648 51.5 245.534C52.0985 246.42 52.3977 247.447 52.3977 248.614C52.3977 249.5 52.2121 250.292 51.8409 250.989C51.4697 251.678 50.9583 252.25 50.3068 252.705C49.6553 253.159 48.9015 253.477 48.0455 253.659V253.886C48.9848 253.932 49.8523 254.186 50.6477 254.648C51.4508 255.11 52.0947 255.754 52.5795 256.58C53.0644 257.398 53.3068 258.367 53.3068 259.489C53.3068 260.739 52.9886 261.856 52.3523 262.841C51.7159 263.818 50.7955 264.591 49.5909 265.159C48.3864 265.72 46.9242 266 45.2045 266H34.7614ZM40.3864 261.466H43.8636C45.0833 261.466 45.9811 261.235 46.5568 260.773C47.1402 260.311 47.4318 259.667 47.4318 258.841C47.4318 258.242 47.2917 257.727 47.0114 257.295C46.7311 256.856 46.3333 256.519 45.8182 256.284C45.303 256.042 44.6856 255.92 43.9659 255.92H40.3864V261.466ZM40.3864 252.295H43.5C44.1136 252.295 44.6591 252.193 45.1364 251.989C45.6136 251.784 45.9848 251.489 46.25 251.102C46.5227 250.716 46.6591 250.25 46.6591 249.705C46.6591 248.924 46.3826 248.311 45.8295 247.864C45.2765 247.417 44.5303 247.193 43.5909 247.193H40.3864V252.295ZM56.0114 266V248.545H61.4091V251.727H61.5909C61.9091 250.576 62.428 249.72 63.1477 249.159C63.8674 248.591 64.7045 248.307 65.6591 248.307C65.9167 248.307 66.1818 248.326 66.4545 248.364C66.7273 248.394 66.9811 248.443 67.2159 248.511V253.341C66.9508 253.25 66.6023 253.178 66.1705 253.125C65.7462 253.072 65.3674 253.045 65.0341 253.045C64.375 253.045 63.7803 253.193 63.25 253.489C62.7273 253.777 62.3144 254.182 62.0114 254.705C61.7159 255.22 61.5682 255.826 61.5682 256.523V266H56.0114ZM76.733 266.33C74.9072 266.33 73.3314 265.97 72.0057 265.25C70.6875 264.523 69.6723 263.489 68.9602 262.148C68.2557 260.799 67.9034 259.197 67.9034 257.341C67.9034 255.538 68.2595 253.962 68.9716 252.614C69.6837 251.258 70.6875 250.205 71.983 249.455C73.2784 248.697 74.8049 248.318 76.5625 248.318C77.8049 248.318 78.9413 248.511 79.9716 248.898C81.0019 249.284 81.892 249.856 82.642 250.614C83.392 251.371 83.9754 252.307 84.392 253.42C84.8087 254.527 85.017 255.795 85.017 257.227V258.614H69.8466V255.386H79.8466C79.839 254.795 79.6989 254.269 79.4261 253.807C79.1534 253.345 78.7784 252.985 78.3011 252.727C77.8314 252.462 77.2898 252.33 76.6761 252.33C76.0549 252.33 75.4981 252.47 75.0057 252.75C74.5133 253.023 74.1231 253.398 73.8352 253.875C73.5473 254.345 73.3958 254.879 73.3807 255.477V258.761C73.3807 259.473 73.5208 260.098 73.8011 260.636C74.0814 261.167 74.4792 261.58 74.9943 261.875C75.5095 262.17 76.1231 262.318 76.8352 262.318C77.3277 262.318 77.7746 262.25 78.1761 262.114C78.5777 261.977 78.9223 261.777 79.2102 261.511C79.4981 261.246 79.714 260.92 79.858 260.534L84.9602 260.682C84.7481 261.826 84.2822 262.822 83.5625 263.67C82.8504 264.511 81.9148 265.167 80.7557 265.636C79.5966 266.098 78.2557 266.33 76.733 266.33ZM92.7756 266.295C91.6619 266.295 90.6733 266.11 89.8097 265.739C88.9536 265.36 88.2756 264.792 87.7756 264.034C87.2831 263.269 87.0369 262.311 87.0369 261.159C87.0369 260.189 87.2074 259.371 87.5483 258.705C87.8892 258.038 88.3589 257.496 88.9574 257.08C89.5559 256.663 90.2453 256.348 91.0256 256.136C91.8059 255.917 92.6392 255.769 93.5256 255.693C94.518 255.602 95.3172 255.508 95.9233 255.409C96.5294 255.303 96.9688 255.155 97.2415 254.966C97.5218 254.769 97.6619 254.492 97.6619 254.136V254.08C97.6619 253.496 97.4612 253.045 97.0597 252.727C96.6581 252.409 96.1165 252.25 95.4347 252.25C94.6998 252.25 94.1089 252.409 93.6619 252.727C93.215 253.045 92.9309 253.485 92.8097 254.045L87.6847 253.864C87.8362 252.803 88.2263 251.856 88.8551 251.023C89.4915 250.182 90.3627 249.523 91.4688 249.045C92.5824 248.561 93.9195 248.318 95.4801 248.318C96.5938 248.318 97.6203 248.451 98.5597 248.716C99.4991 248.973 100.317 249.352 101.014 249.852C101.711 250.345 102.249 250.951 102.628 251.67C103.014 252.39 103.207 253.212 103.207 254.136V266H97.9801V263.568H97.8438C97.5331 264.159 97.1354 264.659 96.6506 265.068C96.1733 265.477 95.6089 265.784 94.9574 265.989C94.3134 266.193 93.5862 266.295 92.7756 266.295ZM94.4915 262.659C95.09 262.659 95.6278 262.538 96.1051 262.295C96.59 262.053 96.9763 261.72 97.2642 261.295C97.5521 260.864 97.696 260.364 97.696 259.795V258.136C97.5369 258.22 97.3438 258.295 97.1165 258.364C96.8968 258.432 96.6544 258.496 96.3892 258.557C96.1241 258.617 95.8513 258.67 95.571 258.716C95.2907 258.761 95.0218 258.803 94.7642 258.841C94.2415 258.924 93.7945 259.053 93.4233 259.227C93.0597 259.402 92.7794 259.629 92.5824 259.909C92.393 260.182 92.2983 260.508 92.2983 260.886C92.2983 261.462 92.5028 261.902 92.9119 262.205C93.3286 262.508 93.8551 262.659 94.4915 262.659ZM111.616 261.42L111.639 254.795H112.412L117.321 248.545H123.616L116.321 257.5H114.855L111.616 261.42ZM106.605 266V242.727H112.162V266H106.605ZM117.446 266L112.878 258.75L116.537 254.807L123.866 266H117.446ZM135.526 248.545V252.636H124.298V248.545H135.526ZM126.639 266V247.659C126.639 246.311 126.893 245.193 127.401 244.307C127.908 243.413 128.613 242.746 129.514 242.307C130.416 241.86 131.457 241.636 132.639 241.636C133.412 241.636 134.139 241.697 134.821 241.818C135.51 241.932 136.022 242.034 136.355 242.125L135.469 246.193C135.264 246.125 135.014 246.068 134.719 246.023C134.431 245.977 134.158 245.955 133.901 245.955C133.249 245.955 132.802 246.098 132.56 246.386C132.317 246.674 132.196 247.068 132.196 247.568V266H126.639ZM142.432 266.295C141.318 266.295 140.33 266.11 139.466 265.739C138.61 265.36 137.932 264.792 137.432 264.034C136.939 263.269 136.693 262.311 136.693 261.159C136.693 260.189 136.864 259.371 137.205 258.705C137.545 258.038 138.015 257.496 138.614 257.08C139.212 256.663 139.902 256.348 140.682 256.136C141.462 255.917 142.295 255.769 143.182 255.693C144.174 255.602 144.973 255.508 145.58 255.409C146.186 255.303 146.625 255.155 146.898 254.966C147.178 254.769 147.318 254.492 147.318 254.136V254.08C147.318 253.496 147.117 253.045 146.716 252.727C146.314 252.409 145.773 252.25 145.091 252.25C144.356 252.25 143.765 252.409 143.318 252.727C142.871 253.045 142.587 253.485 142.466 254.045L137.341 253.864C137.492 252.803 137.883 251.856 138.511 251.023C139.148 250.182 140.019 249.523 141.125 249.045C142.239 248.561 143.576 248.318 145.136 248.318C146.25 248.318 147.277 248.451 148.216 248.716C149.155 248.973 149.973 249.352 150.67 249.852C151.367 250.345 151.905 250.951 152.284 251.67C152.67 252.39 152.864 253.212 152.864 254.136V266H147.636V263.568H147.5C147.189 264.159 146.792 264.659 146.307 265.068C145.83 265.477 145.265 265.784 144.614 265.989C143.97 266.193 143.242 266.295 142.432 266.295ZM144.148 262.659C144.746 262.659 145.284 262.538 145.761 262.295C146.246 262.053 146.633 261.72 146.92 261.295C147.208 260.864 147.352 260.364 147.352 259.795V258.136C147.193 258.22 147 258.295 146.773 258.364C146.553 258.432 146.311 258.496 146.045 258.557C145.78 258.617 145.508 258.67 145.227 258.716C144.947 258.761 144.678 258.803 144.42 258.841C143.898 258.924 143.451 259.053 143.08 259.227C142.716 259.402 142.436 259.629 142.239 259.909C142.049 260.182 141.955 260.508 141.955 260.886C141.955 261.462 142.159 261.902 142.568 262.205C142.985 262.508 143.511 262.659 144.148 262.659ZM171.5 253.875L166.398 254.011C166.345 253.648 166.201 253.326 165.966 253.045C165.731 252.758 165.424 252.534 165.045 252.375C164.674 252.208 164.242 252.125 163.75 252.125C163.106 252.125 162.557 252.254 162.102 252.511C161.655 252.769 161.436 253.117 161.443 253.557C161.436 253.898 161.572 254.193 161.852 254.443C162.14 254.693 162.652 254.894 163.386 255.045L166.75 255.682C168.492 256.015 169.788 256.568 170.636 257.341C171.492 258.114 171.924 259.136 171.932 260.409C171.924 261.606 171.568 262.648 170.864 263.534C170.167 264.42 169.212 265.11 168 265.602C166.788 266.087 165.402 266.33 163.841 266.33C161.348 266.33 159.383 265.818 157.943 264.795C156.511 263.765 155.693 262.386 155.489 260.659L160.977 260.523C161.098 261.159 161.413 261.644 161.92 261.977C162.428 262.311 163.076 262.477 163.864 262.477C164.576 262.477 165.155 262.345 165.602 262.08C166.049 261.814 166.277 261.462 166.284 261.023C166.277 260.629 166.102 260.314 165.761 260.08C165.42 259.837 164.886 259.648 164.159 259.511L161.114 258.932C159.364 258.614 158.061 258.027 157.205 257.17C156.348 256.307 155.924 255.208 155.932 253.875C155.924 252.708 156.235 251.712 156.864 250.886C157.492 250.053 158.386 249.417 159.545 248.977C160.705 248.538 162.072 248.318 163.648 248.318C166.011 248.318 167.875 248.814 169.239 249.807C170.602 250.792 171.356 252.148 171.5 253.875ZM184.52 248.545V252.636H173.509V248.545H184.52ZM175.815 244.364H181.372V260.511C181.372 260.852 181.425 261.129 181.531 261.341C181.645 261.545 181.808 261.693 182.02 261.784C182.232 261.867 182.486 261.909 182.781 261.909C182.993 261.909 183.217 261.89 183.452 261.852C183.694 261.807 183.876 261.769 183.997 261.739L184.838 265.75C184.573 265.826 184.198 265.92 183.713 266.034C183.236 266.148 182.664 266.22 181.997 266.25C180.694 266.311 179.577 266.159 178.645 265.795C177.721 265.424 177.012 264.848 176.52 264.068C176.035 263.288 175.8 262.307 175.815 261.125V244.364Z" fill="#FFDB5A"/>
<path d="M171.24 322H167.746L175.597 300.182H179.401L187.252 322H183.758L177.589 304.145H177.419L171.24 322ZM171.826 313.456H183.161V316.226H171.826V313.456ZM196.009 322.32C194.688 322.32 193.509 321.982 192.472 321.308C191.442 320.626 190.633 319.656 190.043 318.399C189.461 317.135 189.17 315.619 189.17 313.85C189.17 312.082 189.464 310.569 190.054 309.312C190.651 308.055 191.467 307.092 192.504 306.425C193.541 305.757 194.717 305.423 196.031 305.423C197.046 305.423 197.863 305.594 198.481 305.935C199.106 306.268 199.589 306.659 199.93 307.107C200.278 307.554 200.548 307.948 200.739 308.289H200.931V300.182H204.116V322H201.006V319.454H200.739C200.548 319.802 200.271 320.2 199.908 320.647C199.553 321.094 199.063 321.485 198.438 321.819C197.813 322.153 197.004 322.32 196.009 322.32ZM196.712 319.603C197.629 319.603 198.403 319.362 199.035 318.879C199.674 318.388 200.157 317.71 200.484 316.844C200.817 315.977 200.984 314.969 200.984 313.818C200.984 312.682 200.821 311.687 200.494 310.835C200.168 309.983 199.688 309.319 199.056 308.843C198.424 308.367 197.643 308.129 196.712 308.129C195.754 308.129 194.955 308.378 194.315 308.875C193.676 309.372 193.193 310.05 192.866 310.91C192.547 311.769 192.387 312.739 192.387 313.818C192.387 314.912 192.55 315.896 192.877 316.769C193.204 317.643 193.687 318.335 194.326 318.847C194.972 319.351 195.768 319.603 196.712 319.603ZM214.789 322.32C213.468 322.32 212.289 321.982 211.252 321.308C210.222 320.626 209.412 319.656 208.823 318.399C208.24 317.135 207.949 315.619 207.949 313.85C207.949 312.082 208.244 310.569 208.833 309.312C209.43 308.055 210.247 307.092 211.284 306.425C212.32 305.757 213.496 305.423 214.81 305.423C215.825 305.423 216.642 305.594 217.26 305.935C217.885 306.268 218.368 306.659 218.709 307.107C219.057 307.554 219.327 307.948 219.519 308.289H219.71V300.182H222.896V322H219.785V319.454H219.519C219.327 319.802 219.05 320.2 218.688 320.647C218.333 321.094 217.843 321.485 217.218 321.819C216.593 322.153 215.783 322.32 214.789 322.32ZM215.492 319.603C216.408 319.603 217.182 319.362 217.814 318.879C218.453 318.388 218.936 317.71 219.263 316.844C219.597 315.977 219.764 314.969 219.764 313.818C219.764 312.682 219.6 311.687 219.274 310.835C218.947 309.983 218.468 309.319 217.835 308.843C217.203 308.367 216.422 308.129 215.492 308.129C214.533 308.129 213.734 308.378 213.095 308.875C212.455 309.372 211.972 310.05 211.646 310.91C211.326 311.769 211.166 312.739 211.166 313.818C211.166 314.912 211.33 315.896 211.656 316.769C211.983 317.643 212.466 318.335 213.105 318.847C213.752 319.351 214.547 319.603 215.492 319.603ZM243.169 305.636V308.193H233.922V305.636H243.169ZM236.458 322V303.74C236.458 302.717 236.681 301.869 237.129 301.194C237.576 300.512 238.169 300.004 238.908 299.67C239.646 299.33 240.449 299.159 241.316 299.159C241.955 299.159 242.502 299.212 242.956 299.319C243.411 299.418 243.748 299.511 243.968 299.596L243.222 302.174C243.073 302.131 242.882 302.082 242.647 302.025C242.413 301.961 242.129 301.929 241.795 301.929C241.021 301.929 240.467 302.121 240.133 302.504C239.806 302.888 239.643 303.442 239.643 304.166V322H236.458ZM252.704 322.33C251.17 322.33 249.831 321.979 248.688 321.276C247.544 320.572 246.656 319.589 246.024 318.325C245.392 317.06 245.076 315.583 245.076 313.893C245.076 312.195 245.392 310.711 246.024 309.44C246.656 308.168 247.544 307.181 248.688 306.478C249.831 305.775 251.17 305.423 252.704 305.423C254.238 305.423 255.577 305.775 256.72 306.478C257.864 307.181 258.752 308.168 259.384 309.44C260.016 310.711 260.332 312.195 260.332 313.893C260.332 315.583 260.016 317.06 259.384 318.325C258.752 319.589 257.864 320.572 256.72 321.276C255.577 321.979 254.238 322.33 252.704 322.33ZM252.715 319.656C253.709 319.656 254.533 319.393 255.186 318.868C255.84 318.342 256.323 317.643 256.635 316.769C256.955 315.896 257.115 314.933 257.115 313.882C257.115 312.838 256.955 311.879 256.635 311.006C256.323 310.125 255.84 309.418 255.186 308.886C254.533 308.353 253.709 308.087 252.715 308.087C251.713 308.087 250.882 308.353 250.222 308.886C249.568 309.418 249.082 310.125 248.762 311.006C248.45 311.879 248.294 312.838 248.294 313.882C248.294 314.933 248.45 315.896 248.762 316.769C249.082 317.643 249.568 318.342 250.222 318.868C250.882 319.393 251.713 319.656 252.715 319.656ZM270.78 322.33C269.246 322.33 267.907 321.979 266.764 321.276C265.62 320.572 264.733 319.589 264.1 318.325C263.468 317.06 263.152 315.583 263.152 313.893C263.152 312.195 263.468 310.711 264.1 309.44C264.733 308.168 265.62 307.181 266.764 306.478C267.907 305.775 269.246 305.423 270.78 305.423C272.314 305.423 273.653 305.775 274.797 306.478C275.94 307.181 276.828 308.168 277.46 309.44C278.092 310.711 278.408 312.195 278.408 313.893C278.408 315.583 278.092 317.06 277.46 318.325C276.828 319.589 275.94 320.572 274.797 321.276C273.653 321.979 272.314 322.33 270.78 322.33ZM270.791 319.656C271.785 319.656 272.609 319.393 273.262 318.868C273.916 318.342 274.399 317.643 274.711 316.769C275.031 315.896 275.191 314.933 275.191 313.882C275.191 312.838 275.031 311.879 274.711 311.006C274.399 310.125 273.916 309.418 273.262 308.886C272.609 308.353 271.785 308.087 270.791 308.087C269.789 308.087 268.958 308.353 268.298 308.886C267.645 309.418 267.158 310.125 266.838 311.006C266.526 311.879 266.37 312.838 266.37 313.882C266.37 314.933 266.526 315.896 266.838 316.769C267.158 317.643 267.645 318.342 268.298 318.868C268.958 319.393 269.789 319.656 270.791 319.656ZM288.089 322.32C286.768 322.32 285.589 321.982 284.552 321.308C283.523 320.626 282.713 319.656 282.123 318.399C281.541 317.135 281.25 315.619 281.25 313.85C281.25 312.082 281.545 310.569 282.134 309.312C282.731 308.055 283.547 307.092 284.584 306.425C285.621 305.757 286.797 305.423 288.111 305.423C289.126 305.423 289.943 305.594 290.561 305.935C291.186 306.268 291.669 306.659 292.01 307.107C292.358 307.554 292.628 307.948 292.819 308.289H293.011V300.182H296.197V322H293.086V319.454H292.819C292.628 319.802 292.351 320.2 291.988 320.647C291.633 321.094 291.143 321.485 290.518 321.819C289.893 322.153 289.084 322.32 288.089 322.32ZM288.792 319.603C289.709 319.603 290.483 319.362 291.115 318.879C291.754 318.388 292.237 317.71 292.564 316.844C292.898 315.977 293.064 314.969 293.064 313.818C293.064 312.682 292.901 311.687 292.574 310.835C292.248 309.983 291.768 309.319 291.136 308.843C290.504 308.367 289.723 308.129 288.792 308.129C287.834 308.129 287.035 308.378 286.395 308.875C285.756 309.372 285.273 310.05 284.947 310.91C284.627 311.769 284.467 312.739 284.467 313.818C284.467 314.912 284.631 315.896 284.957 316.769C285.284 317.643 285.767 318.335 286.406 318.847C287.052 319.351 287.848 319.603 288.792 319.603Z" fill="#FAAB78"/>
<path d="M323 306V316M317.667 311H328.333M336.333 311C336.333 317.904 330.364 323.5 323 323.5C315.636 323.5 309.667 317.904 309.667 311C309.667 304.096 315.636 298.5 323 298.5C330.364 298.5 336.333 304.096 336.333 311Z" stroke="#FAAB78" stroke-width="2" stroke-linecap="round" stroke-linejoin="round"/>
<rect x="25" y="527" width="325" height="58" fill="#FAAB78"/>
<rect x="26" y="586" width="323" height="56" fill="white" stroke="#FAAB78" stroke-width="2"/>
<path d="M43.3636 568H34.7614V544.727H43.3523C45.7235 544.727 47.7652 545.193 49.4773 546.125C51.197 547.049 52.5227 548.383 53.4545 550.125C54.3864 551.86 54.8523 553.936 54.8523 556.352C54.8523 558.777 54.3864 560.86 53.4545 562.602C52.5303 564.345 51.2083 565.682 49.4886 566.614C47.7689 567.538 45.7273 568 43.3636 568ZM40.3864 563.205H43.1477C44.4508 563.205 45.553 562.985 46.4545 562.545C47.3636 562.098 48.0492 561.375 48.5114 560.375C48.9811 559.367 49.2159 558.027 49.2159 556.352C49.2159 554.678 48.9811 553.345 48.5114 552.352C48.0417 551.352 47.3485 550.633 46.4318 550.193C45.5227 549.746 44.4015 549.523 43.0682 549.523H40.3864V563.205ZM58.1364 568V550.545H63.6932V568H58.1364ZM60.9205 548.511C60.1402 548.511 59.4697 548.254 58.9091 547.739C58.3485 547.216 58.0682 546.587 58.0682 545.852C58.0682 545.125 58.3485 544.504 58.9091 543.989C59.4697 543.466 60.1402 543.205 60.9205 543.205C61.7083 543.205 62.3788 543.466 62.9318 543.989C63.4924 544.504 63.7727 545.125 63.7727 545.852C63.7727 546.587 63.4924 547.216 62.9318 547.739C62.3788 548.254 61.7083 548.511 60.9205 548.511ZM72.7869 558.045V568H67.2301V550.545H72.5142V553.75H72.7074C73.0938 552.682 73.7528 551.845 74.6847 551.239C75.6165 550.625 76.7263 550.318 78.0142 550.318C79.2415 550.318 80.3059 550.595 81.2074 551.148C82.1165 551.693 82.821 552.458 83.321 553.443C83.8286 554.42 84.0786 555.564 84.071 556.875V568H78.5142V557.966C78.5218 556.996 78.2756 556.239 77.7756 555.693C77.2831 555.148 76.5975 554.875 75.7188 554.875C75.1354 554.875 74.6203 555.004 74.1733 555.261C73.7339 555.511 73.393 555.871 73.1506 556.341C72.9157 556.811 72.7945 557.379 72.7869 558.045ZM93.0682 558.045V568H87.5114V550.545H92.7955V553.75H92.9886C93.375 552.682 94.0341 551.845 94.9659 551.239C95.8977 550.625 97.0076 550.318 98.2955 550.318C99.5227 550.318 100.587 550.595 101.489 551.148C102.398 551.693 103.102 552.458 103.602 553.443C104.11 554.42 104.36 555.564 104.352 556.875V568H98.7955V557.966C98.803 556.996 98.5568 556.239 98.0568 555.693C97.5644 555.148 96.8788 554.875 96 554.875C95.4167 554.875 94.9015 555.004 94.4545 555.261C94.0152 555.511 93.6742 555.871 93.4318 556.341C93.197 556.811 93.0758 557.379 93.0682 558.045ZM115.952 568.33C114.126 568.33 112.55 567.97 111.224 567.25C109.906 566.523 108.891 565.489 108.179 564.148C107.474 562.799 107.122 561.197 107.122 559.341C107.122 557.538 107.478 555.962 108.19 554.614C108.902 553.258 109.906 552.205 111.202 551.455C112.497 550.697 114.024 550.318 115.781 550.318C117.024 550.318 118.16 550.511 119.19 550.898C120.221 551.284 121.111 551.856 121.861 552.614C122.611 553.371 123.194 554.307 123.611 555.42C124.027 556.527 124.236 557.795 124.236 559.227V560.614H109.065V557.386H119.065C119.058 556.795 118.918 556.269 118.645 555.807C118.372 555.345 117.997 554.985 117.52 554.727C117.05 554.462 116.509 554.33 115.895 554.33C115.274 554.33 114.717 554.47 114.224 554.75C113.732 555.023 113.342 555.398 113.054 555.875C112.766 556.345 112.615 556.879 112.599 557.477V560.761C112.599 561.473 112.74 562.098 113.02 562.636C113.3 563.167 113.698 563.58 114.213 563.875C114.728 564.17 115.342 564.318 116.054 564.318C116.546 564.318 116.993 564.25 117.395 564.114C117.796 563.977 118.141 563.777 118.429 563.511C118.717 563.246 118.933 562.92 119.077 562.534L124.179 562.682C123.967 563.826 123.501 564.822 122.781 565.67C122.069 566.511 121.134 567.167 119.974 567.636C118.815 568.098 117.474 568.33 115.952 568.33ZM127.074 568V550.545H132.472V553.727H132.653C132.972 552.576 133.491 551.72 134.21 551.159C134.93 550.591 135.767 550.307 136.722 550.307C136.979 550.307 137.244 550.326 137.517 550.364C137.79 550.394 138.044 550.443 138.278 550.511V555.341C138.013 555.25 137.665 555.178 137.233 555.125C136.809 555.072 136.43 555.045 136.097 555.045C135.438 555.045 134.843 555.193 134.312 555.489C133.79 555.777 133.377 556.182 133.074 556.705C132.778 557.22 132.631 557.826 132.631 558.523V568H127.074Z" fill="#FFDB5A"/>
<path d="M171.24 624H167.746L175.597 602.182H179.401L187.252 624H183.758L177.589 606.145H177.419L171.24 624ZM171.826 615.456H183.161V618.226H171.826V615.456ZM196.009 624.32C194.688 624.32 193.509 623.982 192.472 623.308C191.442 622.626 190.633 621.656 190.043 620.399C189.461 619.135 189.17 617.619 189.17 615.85C189.17 614.082 189.464 612.569 190.054 611.312C190.651 610.055 191.467 609.092 192.504 608.425C193.541 607.757 194.717 607.423 196.031 607.423C197.046 607.423 197.863 607.594 198.481 607.935C199.106 608.268 199.589 608.659 199.93 609.107C200.278 609.554 200.548 609.948 200.739 610.289H200.931V602.182H204.116V624H201.006V621.454H200.739C200.548 621.802 200.271 622.2 199.908 622.647C199.553 623.094 199.063 623.485 198.438 623.819C197.813 624.153 197.004 624.32 196.009 624.32ZM196.712 621.603C197.629 621.603 198.403 621.362 199.035 620.879C199.674 620.388 200.157 619.71 200.484 618.844C200.817 617.977 200.984 616.969 200.984 615.818C200.984 614.682 200.821 613.687 200.494 612.835C200.168 611.983 199.688 611.319 199.056 610.843C198.424 610.367 197.643 610.129 196.712 610.129C195.754 610.129 194.955 610.378 194.315 610.875C193.676 611.372 193.193 612.05 192.866 612.91C192.547 613.769 192.387 614.739 192.387 615.818C192.387 616.912 192.55 617.896 192.877 618.769C193.204 619.643 193.687 620.335 194.326 620.847C194.972 621.351 195.768 621.603 196.712 621.603ZM214.789 624.32C213.468 624.32 212.289 623.982 211.252 623.308C210.222 622.626 209.412 621.656 208.823 620.399C208.24 619.135 207.949 617.619 207.949 615.85C207.949 614.082 208.244 612.569 208.833 611.312C209.43 610.055 210.247 609.092 211.284 608.425C212.32 607.757 213.496 607.423 214.81 607.423C215.825 607.423 216.642 607.594 217.26 607.935C217.885 608.268 218.368 608.659 218.709 609.107C219.057 609.554 219.327 609.948 219.519 610.289H219.71V602.182H222.896V624H219.785V621.454H219.519C219.327 621.802 219.05 622.2 218.688 622.647C218.333 623.094 217.843 623.485 217.218 623.819C216.593 624.153 215.783 624.32 214.789 624.32ZM215.492 621.603C216.408 621.603 217.182 621.362 217.814 620.879C218.453 620.388 218.936 619.71 219.263 618.844C219.597 617.977 219.764 616.969 219.764 615.818C219.764 614.682 219.6 613.687 219.274 612.835C218.947 611.983 218.468 611.319 217.835 610.843C217.203 610.367 216.422 610.129 215.492 610.129C214.533 610.129 213.734 610.378 213.095 610.875C212.455 611.372 211.972 612.05 211.646 612.91C211.326 613.769 211.166 614.739 211.166 615.818C211.166 616.912 211.33 617.896 211.656 618.769C211.983 619.643 212.466 620.335 213.105 620.847C213.752 621.351 214.547 621.603 215.492 621.603ZM243.169 607.636V610.193H233.922V607.636H243.169ZM236.458 624V605.74C236.458 604.717 236.681 603.869 237.129 603.194C237.576 602.512 238.169 602.004 238.908 601.67C239.646 601.33 240.449 601.159 241.316 601.159C241.955 601.159 242.502 601.212 242.956 601.319C243.411 601.418 243.748 601.511 243.968 601.596L243.222 604.174C243.073 604.131 242.882 604.082 242.647 604.025C242.413 603.961 242.129 603.929 241.795 603.929C241.021 603.929 240.467 604.121 240.133 604.504C239.806 604.888 239.643 605.442 239.643 606.166V624H236.458ZM252.704 624.33C251.17 624.33 249.831 623.979 248.688 623.276C247.544 622.572 246.656 621.589 246.024 620.325C245.392 619.06 245.076 617.583 245.076 615.893C245.076 614.195 245.392 612.711 246.024 611.44C246.656 610.168 247.544 609.181 248.688 608.478C249.831 607.775 251.17 607.423 252.704 607.423C254.238 607.423 255.577 607.775 256.72 608.478C257.864 609.181 258.752 610.168 259.384 611.44C260.016 612.711 260.332 614.195 260.332 615.893C260.332 617.583 260.016 619.06 259.384 620.325C258.752 621.589 257.864 622.572 256.72 623.276C255.577 623.979 254.238 624.33 252.704 624.33ZM252.715 621.656C253.709 621.656 254.533 621.393 255.186 620.868C255.84 620.342 256.323 619.643 256.635 618.769C256.955 617.896 257.115 616.933 257.115 615.882C257.115 614.838 256.955 613.879 256.635 613.006C256.323 612.125 255.84 611.418 255.186 610.886C254.533 610.353 253.709 610.087 252.715 610.087C251.713 610.087 250.882 610.353 250.222 610.886C249.568 611.418 249.082 612.125 248.762 613.006C248.45 613.879 248.294 614.838 248.294 615.882C248.294 616.933 248.45 617.896 248.762 618.769C249.082 619.643 249.568 620.342 250.222 620.868C250.882 621.393 251.713 621.656 252.715 621.656ZM270.78 624.33C269.246 624.33 267.907 623.979 266.764 623.276C265.62 622.572 264.733 621.589 264.1 620.325C263.468 619.06 263.152 617.583 263.152 615.893C263.152 614.195 263.468 612.711 264.1 611.44C264.733 610.168 265.62 609.181 266.764 608.478C267.907 607.775 269.246 607.423 270.78 607.423C272.314 607.423 273.653 607.775 274.797 608.478C275.94 609.181 276.828 610.168 277.46 611.44C278.092 612.711 278.408 614.195 278.408 615.893C278.408 617.583 278.092 619.06 277.46 620.325C276.828 621.589 275.94 622.572 274.797 623.276C273.653 623.979 272.314 624.33 270.78 624.33ZM270.791 621.656C271.785 621.656 272.609 621.393 273.262 620.868C273.916 620.342 274.399 619.643 274.711 618.769C275.031 617.896 275.191 616.933 275.191 615.882C275.191 614.838 275.031 613.879 274.711 613.006C274.399 612.125 273.916 611.418 273.262 610.886C272.609 610.353 271.785 610.087 270.791 610.087C269.789 610.087 268.958 610.353 268.298 610.886C267.645 611.418 267.158 612.125 266.838 613.006C266.526 613.879 266.37 614.838 266.37 615.882C266.37 616.933 266.526 617.896 266.838 618.769C267.158 619.643 267.645 620.342 268.298 620.868C268.958 621.393 269.789 621.656 270.791 621.656ZM288.089 624.32C286.768 624.32 285.589 623.982 284.552 623.308C283.523 622.626 282.713 621.656 282.123 620.399C281.541 619.135 281.25 617.619 281.25 615.85C281.25 614.082 281.545 612.569 282.134 611.312C282.731 610.055 283.547 609.092 284.584 608.425C285.621 607.757 286.797 607.423 288.111 607.423C289.126 607.423 289.943 607.594 290.561 607.935C291.186 608.268 291.669 608.659 292.01 609.107C292.358 609.554 292.628 609.948 292.819 610.289H293.011V602.182H296.197V624H293.086V621.454H292.819C292.628 621.802 292.351 622.2 291.988 622.647C291.633 623.094 291.143 623.485 290.518 623.819C289.893 624.153 289.084 624.32 288.089 624.32ZM288.792 621.603C289.709 621.603 290.483 621.362 291.115 620.879C291.754 620.388 292.237 619.71 292.564 618.844C292.898 617.977 293.064 616.969 293.064 615.818C293.064 614.682 292.901 613.687 292.574 612.835C292.248 611.983 291.768 611.319 291.136 610.843C290.504 610.367 289.723 610.129 288.792 610.129C287.834 610.129 287.035 610.378 286.395 610.875C285.756 611.372 285.273 612.05 284.947 612.91C284.627 613.769 284.467 614.739 284.467 615.818C284.467 616.912 284.631 617.896 284.957 618.769C285.284 619.643 285.767 620.335 286.406 620.847C287.052 621.351 287.848 621.603 288.792 621.603Z" fill="#FAAB78"/>
<path d="M323 608V618M317.667 613H328.333M336.333 613C336.333 619.904 330.364 625.5 323 625.5C315.636 625.5 309.667 619.904 309.667 613C309.667 606.096 315.636 600.5 323 600.5C330.364 600.5 336.333 606.096 336.333 613Z" stroke="#FAAB78" stroke-width="2" stroke-linecap="round" stroke-linejoin="round"/>
<rect x="25" y="376" width="325" height="58" fill="#FAAB78"/>
<rect x="26" y="435" width="323" height="56" fill="white" stroke="#FAAB78" stroke-width="2"/>
<path d="M34.7614 417V393.727H40.3864V412.432H50.0682V417H34.7614ZM64.2415 409.466V399.545H69.7869V417H64.4915V413.75H64.3097C63.9233 414.818 63.2642 415.667 62.3324 416.295C61.4081 416.917 60.2907 417.227 58.9801 417.227C57.7907 417.227 56.7453 416.955 55.8438 416.409C54.9422 415.864 54.2415 415.102 53.7415 414.125C53.2415 413.14 52.9877 411.989 52.9801 410.67V399.545H58.5369V409.58C58.5445 410.527 58.7945 411.273 59.2869 411.818C59.7794 412.364 60.4498 412.636 61.2983 412.636C61.8513 412.636 62.3475 412.515 62.7869 412.273C63.2339 412.023 63.5862 411.663 63.8438 411.193C64.1089 410.716 64.2415 410.14 64.2415 409.466ZM78.8807 407.045V417H73.3239V399.545H78.608V402.75H78.8011C79.1875 401.682 79.8466 400.845 80.7784 400.239C81.7102 399.625 82.8201 399.318 84.108 399.318C85.3352 399.318 86.3996 399.595 87.3011 400.148C88.2102 400.693 88.9148 401.458 89.4148 402.443C89.9223 403.42 90.1723 404.564 90.1648 405.875V417H84.608V406.966C84.6155 405.996 84.3693 405.239 83.8693 404.693C83.3769 404.148 82.6913 403.875 81.8125 403.875C81.2292 403.875 80.714 404.004 80.267 404.261C79.8277 404.511 79.4867 404.871 79.2443 405.341C79.0095 405.811 78.8883 406.379 78.8807 407.045ZM101.753 417.33C99.9119 417.33 98.3324 416.951 97.0142 416.193C95.7036 415.436 94.696 414.383 93.9915 413.034C93.2869 411.678 92.9347 410.11 92.9347 408.33C92.9347 406.542 93.2869 404.973 93.9915 403.625C94.7036 402.269 95.715 401.212 97.0256 400.455C98.3438 399.697 99.9157 399.318 101.741 399.318C103.355 399.318 104.76 399.61 105.957 400.193C107.162 400.777 108.101 401.602 108.776 402.67C109.457 403.731 109.817 404.977 109.855 406.409H104.662C104.556 405.515 104.253 404.814 103.753 404.307C103.26 403.799 102.616 403.545 101.821 403.545C101.177 403.545 100.613 403.727 100.128 404.091C99.643 404.447 99.2642 404.977 98.9915 405.682C98.7263 406.379 98.5938 407.242 98.5938 408.273C98.5938 409.303 98.7263 410.174 98.9915 410.886C99.2642 411.591 99.643 412.125 100.128 412.489C100.613 412.845 101.177 413.023 101.821 413.023C102.336 413.023 102.791 412.913 103.185 412.693C103.586 412.473 103.916 412.152 104.173 411.727C104.431 411.295 104.594 410.773 104.662 410.159H109.855C109.802 411.598 109.442 412.856 108.776 413.932C108.116 415.008 107.188 415.845 105.991 416.443C104.802 417.034 103.389 417.33 101.753 417.33ZM118.256 407.045V417H112.699V393.727H118.074V402.75H118.267C118.661 401.674 119.305 400.833 120.199 400.227C121.1 399.621 122.203 399.318 123.506 399.318C124.733 399.318 125.801 399.591 126.71 400.136C127.619 400.674 128.324 401.436 128.824 402.42C129.331 403.405 129.581 404.557 129.574 405.875V417H124.017V406.966C124.025 405.996 123.782 405.239 123.29 404.693C122.797 404.148 122.104 403.875 121.21 403.875C120.627 403.875 120.112 404.004 119.665 404.261C119.225 404.511 118.881 404.871 118.631 405.341C118.388 405.811 118.263 406.379 118.256 407.045Z" fill="#FFDB5A"/>
<path d="M171.24 473H167.746L175.597 451.182H179.401L187.252 473H183.758L177.589 455.145H177.419L171.24 473ZM171.826 464.456H183.161V467.226H171.826V464.456ZM196.009 473.32C194.688 473.32 193.509 472.982 192.472 472.308C191.442 471.626 190.633 470.656 190.043 469.399C189.461 468.135 189.17 466.619 189.17 464.85C189.17 463.082 189.464 461.569 190.054 460.312C190.651 459.055 191.467 458.092 192.504 457.425C193.541 456.757 194.717 456.423 196.031 456.423C197.046 456.423 197.863 456.594 198.481 456.935C199.106 457.268 199.589 457.659 199.93 458.107C200.278 458.554 200.548 458.948 200.739 459.289H200.931V451.182H204.116V473H201.006V470.454H200.739C200.548 470.802 200.271 471.2 199.908 471.647C199.553 472.094 199.063 472.485 198.438 472.819C197.813 473.153 197.004 473.32 196.009 473.32ZM196.712 470.603C197.629 470.603 198.403 470.362 199.035 469.879C199.674 469.388 200.157 468.71 200.484 467.844C200.817 466.977 200.984 465.969 200.984 464.818C200.984 463.682 200.821 462.687 200.494 461.835C200.168 460.983 199.688 460.319 199.056 459.843C198.424 459.367 197.643 459.129 196.712 459.129C195.754 459.129 194.955 459.378 194.315 459.875C193.676 460.372 193.193 461.05 192.866 461.91C192.547 462.769 192.387 463.739 192.387 464.818C192.387 465.912 192.55 466.896 192.877 467.769C193.204 468.643 193.687 469.335 194.326 469.847C194.972 470.351 195.768 470.603 196.712 470.603ZM214.789 473.32C213.468 473.32 212.289 472.982 211.252 472.308C210.222 471.626 209.412 470.656 208.823 469.399C208.24 468.135 207.949 466.619 207.949 464.85C207.949 463.082 208.244 461.569 208.833 460.312C209.43 459.055 210.247 458.092 211.284 457.425C212.32 456.757 213.496 456.423 214.81 456.423C215.825 456.423 216.642 456.594 217.26 456.935C217.885 457.268 218.368 457.659 218.709 458.107C219.057 458.554 219.327 458.948 219.519 459.289H219.71V451.182H222.896V473H219.785V470.454H219.519C219.327 470.802 219.05 471.2 218.688 471.647C218.333 472.094 217.843 472.485 217.218 472.819C216.593 473.153 215.783 473.32 214.789 473.32ZM215.492 470.603C216.408 470.603 217.182 470.362 217.814 469.879C218.453 469.388 218.936 468.71 219.263 467.844C219.597 466.977 219.764 465.969 219.764 464.818C219.764 463.682 219.6 462.687 219.274 461.835C218.947 460.983 218.468 460.319 217.835 459.843C217.203 459.367 216.422 459.129 215.492 459.129C214.533 459.129 213.734 459.378 213.095 459.875C212.455 460.372 211.972 461.05 211.646 461.91C211.326 462.769 211.166 463.739 211.166 464.818C211.166 465.912 211.33 466.896 211.656 467.769C211.983 468.643 212.466 469.335 213.105 469.847C213.752 470.351 214.547 470.603 215.492 470.603ZM243.169 456.636V459.193H233.922V456.636H243.169ZM236.458 473V454.74C236.458 453.717 236.681 452.869 237.129 452.194C237.576 451.512 238.169 451.004 238.908 450.67C239.646 450.33 240.449 450.159 241.316 450.159C241.955 450.159 242.502 450.212 242.956 450.319C243.411 450.418 243.748 450.511 243.968 450.596L243.222 453.174C243.073 453.131 242.882 453.082 242.647 453.025C242.413 452.961 242.129 452.929 241.795 452.929C241.021 452.929 240.467 453.121 240.133 453.504C239.806 453.888 239.643 454.442 239.643 455.166V473H236.458ZM252.704 473.33C251.17 473.33 249.831 472.979 248.688 472.276C247.544 471.572 246.656 470.589 246.024 469.325C245.392 468.06 245.076 466.583 245.076 464.893C245.076 463.195 245.392 461.711 246.024 460.44C246.656 459.168 247.544 458.181 248.688 457.478C249.831 456.775 251.17 456.423 252.704 456.423C254.238 456.423 255.577 456.775 256.72 457.478C257.864 458.181 258.752 459.168 259.384 460.44C260.016 461.711 260.332 463.195 260.332 464.893C260.332 466.583 260.016 468.06 259.384 469.325C258.752 470.589 257.864 471.572 256.72 472.276C255.577 472.979 254.238 473.33 252.704 473.33ZM252.715 470.656C253.709 470.656 254.533 470.393 255.186 469.868C255.84 469.342 256.323 468.643 256.635 467.769C256.955 466.896 257.115 465.933 257.115 464.882C257.115 463.838 256.955 462.879 256.635 462.006C256.323 461.125 255.84 460.418 255.186 459.886C254.533 459.353 253.709 459.087 252.715 459.087C251.713 459.087 250.882 459.353 250.222 459.886C249.568 460.418 249.082 461.125 248.762 462.006C248.45 462.879 248.294 463.838 248.294 464.882C248.294 465.933 248.45 466.896 248.762 467.769C249.082 468.643 249.568 469.342 250.222 469.868C250.882 470.393 251.713 470.656 252.715 470.656ZM270.78 473.33C269.246 473.33 267.907 472.979 266.764 472.276C265.62 471.572 264.733 470.589 264.1 469.325C263.468 468.06 263.152 466.583 263.152 464.893C263.152 463.195 263.468 461.711 264.1 460.44C264.733 459.168 265.62 458.181 266.764 457.478C267.907 456.775 269.246 456.423 270.78 456.423C272.314 456.423 273.653 456.775 274.797 457.478C275.94 458.181 276.828 459.168 277.46 460.44C278.092 461.711 278.408 463.195 278.408 464.893C278.408 466.583 278.092 468.06 277.46 469.325C276.828 470.589 275.94 471.572 274.797 472.276C273.653 472.979 272.314 473.33 270.78 473.33ZM270.791 470.656C271.785 470.656 272.609 470.393 273.262 469.868C273.916 469.342 274.399 468.643 274.711 467.769C275.031 466.896 275.191 465.933 275.191 464.882C275.191 463.838 275.031 462.879 274.711 462.006C274.399 461.125 273.916 460.418 273.262 459.886C272.609 459.353 271.785 459.087 270.791 459.087C269.789 459.087 268.958 459.353 268.298 459.886C267.645 460.418 267.158 461.125 266.838 462.006C266.526 462.879 266.37 463.838 266.37 464.882C266.37 465.933 266.526 466.896 266.838 467.769C267.158 468.643 267.645 469.342 268.298 469.868C268.958 470.393 269.789 470.656 270.791 470.656ZM288.089 473.32C286.768 473.32 285.589 472.982 284.552 472.308C283.523 471.626 282.713 470.656 282.123 469.399C281.541 468.135 281.25 466.619 281.25 464.85C281.25 463.082 281.545 461.569 282.134 460.312C282.731 459.055 283.547 458.092 284.584 457.425C285.621 456.757 286.797 456.423 288.111 456.423C289.126 456.423 289.943 456.594 290.561 456.935C291.186 457.268 291.669 457.659 292.01 458.107C292.358 458.554 292.628 458.948 292.819 459.289H293.011V451.182H296.197V473H293.086V470.454H292.819C292.628 470.802 292.351 471.2 291.988 471.647C291.633 472.094 291.143 472.485 290.518 472.819C289.893 473.153 289.084 473.32 288.089 473.32ZM288.792 470.603C289.709 470.603 290.483 470.362 291.115 469.879C291.754 469.388 292.237 468.71 292.564 467.844C292.898 466.977 293.064 465.969 293.064 464.818C293.064 463.682 292.901 462.687 292.574 461.835C292.248 460.983 291.768 460.319 291.136 459.843C290.504 459.367 289.723 459.129 288.792 459.129C287.834 459.129 287.035 459.378 286.395 459.875C285.756 460.372 285.273 461.05 284.947 461.91C284.627 462.769 284.467 463.739 284.467 464.818C284.467 465.912 284.631 466.896 284.957 467.769C285.284 468.643 285.767 469.335 286.406 469.847C287.052 470.351 287.848 470.603 288.792 470.603Z" fill="#FAAB78"/>
<path d="M325.5 457V467M320.333 462H330.667M338.417 462C338.417 468.904 332.634 474.5 325.5 474.5C318.366 474.5 312.583 468.904 312.583 462C312.583 455.096 318.366 449.5 325.5 449.5C332.634 449.5 338.417 455.096 338.417 462Z" stroke="#FAAB78" stroke-width="2" stroke-linecap="round" stroke-linejoin="round"/>
</svg>
