<svg width="1440" height="1293" viewBox="0 0 1440 1293" fill="none" xmlns="http://www.w3.org/2000/svg">
<g clip-path="url(#clip0_287_100)">
<rect width="1440" height="1293" fill="white"/>
<rect width="1440" height="96" fill="#FFDCA9"/>
<path d="M49.08 30.976C51.128 30.976 52.952 31.456 54.552 32.416C56.152 33.344 57.4 34.64 58.296 36.304C59.192 37.936 59.64 39.776 59.64 41.824V42.448C59.64 44.496 59.192 46.352 58.296 48.016C57.4 49.68 56.152 50.992 54.552 51.952C52.952 52.88 51.128 53.344 49.08 53.344H41.16V64H30.552V30.976H49.08ZM41.16 45.616H45.528C46.648 45.616 47.48 45.328 48.024 44.752C48.6 44.176 48.888 43.392 48.888 42.4V42.016C48.888 40.992 48.6 40.208 48.024 39.664C47.48 39.088 46.648 38.8 45.528 38.8H41.16V45.616ZM76.2518 38.08C80.1238 38.08 83.2758 38.736 85.7078 40.048C88.1398 41.328 89.3558 43.424 89.3558 46.336V56.224C89.3558 56.768 89.4838 57.216 89.7398 57.568C89.9958 57.92 90.3798 58.096 90.8918 58.096H92.6198V63.616C92.5238 63.68 92.2678 63.792 91.8518 63.952C91.4678 64.08 90.9078 64.208 90.1718 64.336C89.4358 64.496 88.5878 64.576 87.6278 64.576C85.7718 64.576 84.2358 64.304 83.0198 63.76C81.8358 63.184 81.0198 62.4 80.5718 61.408C79.3558 62.368 77.9958 63.136 76.4918 63.712C74.9878 64.288 73.2278 64.576 71.2118 64.576C65.2598 64.576 62.2838 62.208 62.2838 57.472C62.2838 55.008 62.9398 53.136 64.2518 51.856C65.5958 50.544 67.5158 49.648 70.0118 49.168C72.5078 48.688 75.7718 48.448 79.8038 48.448V47.2C79.8038 46.208 79.4518 45.456 78.7478 44.944C78.0758 44.432 77.1958 44.176 76.1078 44.176C75.1158 44.176 74.2517 44.352 73.5157 44.704C72.8118 45.056 72.4598 45.616 72.4598 46.384V46.576H63.0518C63.0198 46.416 63.0038 46.192 63.0038 45.904C63.0038 43.504 64.1398 41.6 66.4118 40.192C68.7158 38.784 71.9958 38.08 76.2518 38.08ZM79.8038 52.96C77.0838 52.96 75.0678 53.264 73.7558 53.872C72.4758 54.448 71.8358 55.232 71.8358 56.224C71.8358 57.824 72.9238 58.624 75.0998 58.624C76.3478 58.624 77.4358 58.288 78.3638 57.616C79.3238 56.944 79.8038 56.112 79.8038 55.12V52.96ZM113.211 38.08C116.155 38.08 118.363 38.896 119.835 40.528C121.307 42.16 122.043 44.512 122.043 47.584V64H112.491V48.736C112.491 47.648 112.203 46.784 111.627 46.144C111.083 45.472 110.299 45.136 109.275 45.136C108.091 45.136 107.131 45.52 106.395 46.288C105.659 47.056 105.291 48 105.291 49.12V64H95.7394V38.656H103.563L104.187 42.496C105.179 41.152 106.475 40.08 108.075 39.28C109.707 38.48 111.419 38.08 113.211 38.08ZM144.651 38.656V45.136H139.275V54.784C139.275 55.936 139.467 56.784 139.851 57.328C140.235 57.84 140.939 58.096 141.963 58.096H144.651V63.712C143.883 63.968 142.891 64.176 141.675 64.336C140.459 64.496 139.403 64.576 138.507 64.576C135.691 64.576 133.515 64.064 131.979 63.04C130.475 62.016 129.723 60.272 129.723 57.808V45.136H126.171V38.656H130.107L132.171 30.976H139.275V38.656H144.651ZM164.491 38.032C165.227 38.032 165.883 38.128 166.459 38.32C167.035 38.48 167.323 38.576 167.323 38.608V46.624H164.251C162.267 46.624 160.827 47.136 159.931 48.16C159.067 49.184 158.635 50.704 158.635 52.72V64H149.083V38.656H156.907L157.531 42.496C158.107 41.024 159.019 39.92 160.267 39.184C161.515 38.416 162.923 38.032 164.491 38.032ZM190.601 63.232C189.289 66.784 187.673 69.472 185.753 71.296C183.865 73.152 181.209 74.08 177.785 74.08C175.705 74.08 173.865 73.792 172.265 73.216V67.504H176.105C178.505 67.504 179.929 66.336 180.377 64L170.297 38.656H180.569L185.417 55.504H185.753L190.217 38.656H199.625L190.601 63.232ZM198.069 64V54.448H208.245V64H198.069Z" fill="#FAAB78"/>
<path d="M182.94 233V224.072C182.94 222.968 182.976 221.84 183.048 220.688C183.144 219.512 183.24 218.528 183.336 217.736C183.432 216.944 183.492 216.44 183.516 216.224H183.372L178.8 233H172.572L167.964 216.26H167.82C167.844 216.476 167.904 216.98 168 217.772C168.12 218.54 168.228 219.512 168.324 220.688C168.42 221.84 168.468 222.968 168.468 224.072V233H161.16V208.232H172.392L176.136 222.524H176.28L179.988 208.232H190.824V233H182.94ZM208.224 232.424C207.24 235.088 206.028 237.104 204.588 238.472C203.172 239.864 201.18 240.56 198.612 240.56C197.052 240.56 195.672 240.344 194.472 239.912V235.628H197.352C199.152 235.628 200.22 234.752 200.556 233L192.996 213.992H200.7L204.336 226.628H204.588L207.936 213.992H214.992L208.224 232.424ZM243.552 208.232C245.088 208.232 246.456 208.592 247.656 209.312C248.856 210.008 249.792 210.98 250.464 212.228C251.136 213.452 251.472 214.832 251.472 216.368V216.836C251.472 218.372 251.136 219.764 250.464 221.012C249.792 222.26 248.856 223.244 247.656 223.964C246.456 224.66 245.088 225.008 243.552 225.008H237.612V233H229.656V208.232H243.552ZM237.612 219.212H240.888C241.728 219.212 242.352 218.996 242.76 218.564C243.192 218.132 243.408 217.544 243.408 216.8V216.512C243.408 215.744 243.192 215.156 242.76 214.748C242.352 214.316 241.728 214.1 240.888 214.1H237.612V219.212ZM263.931 213.56C266.835 213.56 269.199 214.052 271.023 215.036C272.847 215.996 273.759 217.568 273.759 219.752V227.168C273.759 227.576 273.855 227.912 274.047 228.176C274.239 228.44 274.527 228.572 274.911 228.572H276.207V232.712C276.135 232.76 275.943 232.844 275.631 232.964C275.343 233.06 274.923 233.156 274.371 233.252C273.819 233.372 273.183 233.432 272.463 233.432C271.071 233.432 269.919 233.228 269.007 232.82C268.119 232.388 267.507 231.8 267.171 231.056C266.259 231.776 265.239 232.352 264.111 232.784C262.983 233.216 261.663 233.432 260.151 233.432C255.687 233.432 253.455 231.656 253.455 228.104C253.455 226.256 253.947 224.852 254.931 223.892C255.939 222.908 257.379 222.236 259.251 221.876C261.123 221.516 263.571 221.336 266.595 221.336V220.4C266.595 219.656 266.331 219.092 265.803 218.708C265.299 218.324 264.639 218.132 263.823 218.132C263.079 218.132 262.431 218.264 261.879 218.528C261.351 218.792 261.087 219.212 261.087 219.788V219.932H254.031C254.007 219.812 253.995 219.644 253.995 219.428C253.995 217.628 254.847 216.2 256.551 215.144C258.279 214.088 260.739 213.56 263.931 213.56ZM266.595 224.72C264.555 224.72 263.043 224.948 262.059 225.404C261.099 225.836 260.619 226.424 260.619 227.168C260.619 228.368 261.435 228.968 263.067 228.968C264.003 228.968 264.819 228.716 265.515 228.212C266.235 227.708 266.595 227.084 266.595 226.34V224.72ZM291.651 213.56C293.859 213.56 295.515 214.172 296.619 215.396C297.723 216.62 298.275 218.384 298.275 220.688V233H291.111V221.552C291.111 220.736 290.895 220.088 290.463 219.608C290.055 219.104 289.467 218.852 288.699 218.852C287.811 218.852 287.091 219.14 286.539 219.716C285.987 220.292 285.711 221 285.711 221.84V233H278.547V213.992H284.415L284.883 216.872C285.627 215.864 286.599 215.06 287.799 214.46C289.023 213.86 290.307 213.56 291.651 213.56ZM315.23 213.992V218.852H311.198V226.088C311.198 226.952 311.342 227.588 311.63 227.996C311.918 228.38 312.446 228.572 313.214 228.572H315.23V232.784C314.654 232.976 313.91 233.132 312.998 233.252C312.086 233.372 311.294 233.432 310.622 233.432C308.51 233.432 306.878 233.048 305.726 232.28C304.598 231.512 304.034 230.204 304.034 228.356V218.852H301.37V213.992H304.322L305.87 208.232H311.198V213.992H315.23ZM330.111 213.524C330.663 213.524 331.155 213.596 331.587 213.74C332.019 213.86 332.235 213.932 332.235 213.956V219.968H329.931C328.443 219.968 327.363 220.352 326.691 221.12C326.043 221.888 325.719 223.028 325.719 224.54V233H318.555V213.992H324.423L324.891 216.872C325.323 215.768 326.007 214.94 326.943 214.388C327.879 213.812 328.935 213.524 330.111 213.524ZM349.693 232.424C348.709 235.088 347.497 237.104 346.057 238.472C344.641 239.864 342.649 240.56 340.081 240.56C338.521 240.56 337.141 240.344 335.941 239.912V235.628H338.821C340.621 235.628 341.689 234.752 342.025 233L334.465 213.992H342.169L345.805 226.628H346.057L349.405 213.992H356.461L349.693 232.424Z" fill="#FAAB78"/>
<rect x="161.5" y="259.5" width="1117" height="601" rx="17.5" fill="white" stroke="#FAAB78" stroke-width="5"/>
<circle cx="720" cy="538" r="54.5" fill="white" stroke="#FAAB78" stroke-width="5"/>
<line x1="720.5" y1="515" x2="720.5" y2="561" stroke="#FAAB78" stroke-width="5"/>
<line x1="743" y1="538.5" x2="697" y2="538.5" stroke="#FAAB78" stroke-width="5"/>
<path d="M669.44 633L675.848 616.536H679.784L686.216 633H682.832L681.512 629.496H673.976L672.656 633H669.44ZM674.96 626.856H680.504L678.848 622.392C678.784 622.232 678.704 622.032 678.608 621.792C678.528 621.536 678.44 621.264 678.344 620.976C678.248 620.672 678.152 620.368 678.056 620.064C677.96 619.76 677.872 619.488 677.792 619.248H677.672C677.576 619.568 677.456 619.936 677.312 620.352C677.184 620.768 677.056 621.16 676.928 621.528C676.8 621.896 676.696 622.184 676.616 622.392L674.96 626.856ZM692.288 633.288C691.264 633.288 690.376 633.056 689.624 632.592C688.872 632.128 688.288 631.408 687.872 630.432C687.472 629.456 687.272 628.2 687.272 626.664C687.272 625.144 687.48 623.904 687.896 622.944C688.312 621.968 688.888 621.248 689.624 620.784C690.36 620.32 691.192 620.088 692.12 620.088C692.696 620.088 693.224 620.152 693.704 620.28C694.184 620.408 694.608 620.608 694.976 620.88C695.344 621.136 695.656 621.456 695.912 621.84H696.056V615.648H698.984V633H696.56L696.32 631.32H696.152C695.752 631.976 695.208 632.472 694.52 632.808C693.848 633.128 693.104 633.288 692.288 633.288ZM693.2 630.768C693.872 630.768 694.416 630.616 694.832 630.312C695.248 630.008 695.552 629.568 695.744 628.992C695.952 628.416 696.056 627.712 696.056 626.88V626.568C696.056 625.944 696 625.384 695.888 624.888C695.776 624.392 695.6 623.976 695.36 623.64C695.136 623.304 694.84 623.048 694.472 622.872C694.12 622.696 693.696 622.608 693.2 622.608C692.48 622.608 691.904 622.752 691.472 623.04C691.056 623.312 690.752 623.744 690.56 624.336C690.384 624.912 690.296 625.648 690.296 626.544V626.88C690.296 627.76 690.384 628.488 690.56 629.064C690.752 629.64 691.056 630.072 691.472 630.36C691.904 630.632 692.48 630.768 693.2 630.768ZM706.491 633.288C705.467 633.288 704.579 633.056 703.827 632.592C703.075 632.128 702.491 631.408 702.075 630.432C701.675 629.456 701.475 628.2 701.475 626.664C701.475 625.144 701.683 623.904 702.099 622.944C702.515 621.968 703.091 621.248 703.827 620.784C704.563 620.32 705.395 620.088 706.323 620.088C706.899 620.088 707.427 620.152 707.907 620.28C708.387 620.408 708.811 620.608 709.179 620.88C709.547 621.136 709.859 621.456 710.115 621.84H710.259V615.648H713.187V633H710.763L710.523 631.32H710.355C709.955 631.976 709.411 632.472 708.723 632.808C708.051 633.128 707.307 633.288 706.491 633.288ZM707.403 630.768C708.075 630.768 708.619 630.616 709.035 630.312C709.451 630.008 709.755 629.568 709.947 628.992C710.155 628.416 710.259 627.712 710.259 626.88V626.568C710.259 625.944 710.203 625.384 710.091 624.888C709.979 624.392 709.803 623.976 709.563 623.64C709.339 623.304 709.043 623.048 708.675 622.872C708.323 622.696 707.899 622.608 707.403 622.608C706.683 622.608 706.107 622.752 705.675 623.04C705.259 623.312 704.955 623.744 704.763 624.336C704.587 624.912 704.499 625.648 704.499 626.544V626.88C704.499 627.76 704.587 628.488 704.763 629.064C704.955 629.64 705.259 630.072 705.675 630.36C706.107 630.632 706.683 630.768 707.403 630.768ZM721.707 633V622.776H719.883V620.376H721.707V618.768C721.707 618.208 721.795 617.68 721.971 617.184C722.163 616.672 722.491 616.256 722.955 615.936C723.419 615.616 724.067 615.456 724.899 615.456C725.139 615.456 725.379 615.472 725.619 615.504C725.875 615.536 726.115 615.584 726.339 615.648C726.563 615.696 726.755 615.752 726.915 615.816V617.856H725.715C725.363 617.856 725.091 617.952 724.899 618.144C724.723 618.32 724.635 618.584 724.635 618.936V620.376H726.915V622.776H724.635V633H721.707ZM733.965 633.288C732.589 633.288 731.437 633.056 730.509 632.592C729.581 632.112 728.885 631.384 728.421 630.408C727.957 629.432 727.725 628.192 727.725 626.688C727.725 625.168 727.957 623.928 728.421 622.968C728.885 621.992 729.581 621.272 730.509 620.808C731.437 620.328 732.589 620.088 733.965 620.088C735.357 620.088 736.509 620.328 737.421 620.808C738.349 621.272 739.045 621.992 739.509 622.968C739.973 623.928 740.205 625.168 740.205 626.688C740.205 628.192 739.973 629.432 739.509 630.408C739.045 631.384 738.349 632.112 737.421 632.592C736.509 633.056 735.357 633.288 733.965 633.288ZM733.965 630.888C734.733 630.888 735.349 630.744 735.813 630.456C736.293 630.152 736.637 629.704 736.845 629.112C737.069 628.504 737.181 627.752 737.181 626.856V626.52C737.181 625.624 737.069 624.88 736.845 624.288C736.637 623.68 736.293 623.232 735.813 622.944C735.349 622.64 734.733 622.488 733.965 622.488C733.197 622.488 732.573 622.64 732.093 622.944C731.629 623.232 731.285 623.68 731.061 624.288C730.853 624.88 730.749 625.624 730.749 626.52V626.856C730.749 627.752 730.853 628.504 731.061 629.112C731.285 629.704 731.629 630.152 732.093 630.456C732.573 630.744 733.197 630.888 733.965 630.888ZM748.309 633.288C746.933 633.288 745.781 633.056 744.853 632.592C743.925 632.112 743.229 631.384 742.765 630.408C742.301 629.432 742.069 628.192 742.069 626.688C742.069 625.168 742.301 623.928 742.765 622.968C743.229 621.992 743.925 621.272 744.853 620.808C745.781 620.328 746.933 620.088 748.309 620.088C749.701 620.088 750.853 620.328 751.765 620.808C752.693 621.272 753.389 621.992 753.853 622.968C754.317 623.928 754.549 625.168 754.549 626.688C754.549 628.192 754.317 629.432 753.853 630.408C753.389 631.384 752.693 632.112 751.765 632.592C750.853 633.056 749.701 633.288 748.309 633.288ZM748.309 630.888C749.077 630.888 749.693 630.744 750.157 630.456C750.637 630.152 750.981 629.704 751.189 629.112C751.413 628.504 751.525 627.752 751.525 626.856V626.52C751.525 625.624 751.413 624.88 751.189 624.288C750.981 623.68 750.637 623.232 750.157 622.944C749.693 622.64 749.077 622.488 748.309 622.488C747.541 622.488 746.917 622.64 746.437 622.944C745.973 623.232 745.629 623.68 745.405 624.288C745.197 624.88 745.093 625.624 745.093 626.52V626.856C745.093 627.752 745.197 628.504 745.405 629.112C745.629 629.704 745.973 630.152 746.437 630.456C746.917 630.744 747.541 630.888 748.309 630.888ZM761.429 633.288C760.405 633.288 759.517 633.056 758.765 632.592C758.013 632.128 757.429 631.408 757.013 630.432C756.613 629.456 756.413 628.2 756.413 626.664C756.413 625.144 756.621 623.904 757.037 622.944C757.453 621.968 758.029 621.248 758.765 620.784C759.501 620.32 760.333 620.088 761.261 620.088C761.837 620.088 762.365 620.152 762.845 620.28C763.325 620.408 763.749 620.608 764.117 620.88C764.485 621.136 764.797 621.456 765.053 621.84H765.197V615.648H768.125V633H765.701L765.461 631.32H765.293C764.893 631.976 764.349 632.472 763.661 632.808C762.989 633.128 762.245 633.288 761.429 633.288ZM762.341 630.768C763.013 630.768 763.557 630.616 763.973 630.312C764.389 630.008 764.693 629.568 764.885 628.992C765.093 628.416 765.197 627.712 765.197 626.88V626.568C765.197 625.944 765.141 625.384 765.029 624.888C764.917 624.392 764.741 623.976 764.501 623.64C764.277 623.304 763.981 623.048 763.613 622.872C763.261 622.696 762.837 622.608 762.341 622.608C761.621 622.608 761.045 622.752 760.613 623.04C760.197 623.312 759.893 623.744 759.701 624.336C759.525 624.912 759.437 625.648 759.437 626.544V626.88C759.437 627.76 759.525 628.488 759.701 629.064C759.893 629.64 760.197 630.072 760.613 630.36C761.045 630.632 761.621 630.768 762.341 630.768Z" fill="#FAAB78"/>
<path d="M423.982 61V34.8182H434.797C436.757 34.8182 438.449 35.1719 439.872 35.8793C441.304 36.5781 442.408 37.5838 443.183 38.8963C443.959 40.2003 444.347 41.7472 444.347 43.5369C444.347 45.3523 443.95 46.8949 443.158 48.1648C442.365 49.4261 441.24 50.3892 439.783 51.054C438.325 51.7102 436.599 52.0384 434.605 52.0384H427.766V47.0526H433.429C434.384 47.0526 435.18 46.929 435.82 46.6818C436.467 46.4261 436.957 46.0426 437.29 45.5312C437.622 45.0114 437.788 44.3466 437.788 43.5369C437.788 42.7273 437.622 42.0582 437.29 41.5298C436.957 40.9929 436.467 40.5923 435.82 40.3281C435.172 40.0554 434.375 39.919 433.429 39.919H430.31V61H423.982ZM438.722 49.0341L445.241 61H438.338L431.946 49.0341H438.722ZM456.61 61.3707C454.556 61.3707 452.783 60.9659 451.292 60.1562C449.809 59.3381 448.667 58.1747 447.865 56.6662C447.073 55.1491 446.676 53.3466 446.676 51.2585C446.676 49.2301 447.077 47.4574 447.878 45.9403C448.679 44.4148 449.809 43.2301 451.266 42.3864C452.723 41.5341 454.441 41.108 456.418 41.108C457.816 41.108 459.094 41.3253 460.253 41.7599C461.412 42.1946 462.414 42.8381 463.257 43.6903C464.101 44.5426 464.757 45.5952 465.226 46.848C465.695 48.0923 465.929 49.5199 465.929 51.1307V52.6903H448.863V49.0597H460.113C460.104 48.3949 459.946 47.8026 459.64 47.2827C459.333 46.7628 458.911 46.358 458.374 46.0682C457.846 45.7699 457.236 45.6207 456.546 45.6207C455.847 45.6207 455.221 45.7784 454.667 46.0938C454.113 46.4006 453.674 46.8224 453.35 47.3594C453.026 47.8878 452.855 48.4886 452.838 49.1619V52.8565C452.838 53.6577 452.996 54.3608 453.311 54.9659C453.627 55.5625 454.074 56.027 454.654 56.3594C455.233 56.6918 455.924 56.858 456.725 56.858C457.279 56.858 457.782 56.7812 458.233 56.6278C458.685 56.4744 459.073 56.2486 459.397 55.9503C459.721 55.652 459.963 55.2855 460.125 54.8509L465.865 55.017C465.627 56.304 465.103 57.4247 464.293 58.3793C463.492 59.3253 462.439 60.0625 461.135 60.5909C459.831 61.1108 458.323 61.3707 456.61 61.3707ZM478.288 61.3707C476.217 61.3707 474.44 60.9446 472.957 60.0923C471.483 59.2401 470.349 58.0554 469.557 56.5384C468.764 55.0128 468.368 53.2486 468.368 51.2457C468.368 49.2344 468.764 47.4702 469.557 45.9531C470.358 44.4276 471.496 43.2386 472.97 42.3864C474.453 41.5341 476.222 41.108 478.276 41.108C480.091 41.108 481.672 41.4361 483.018 42.0923C484.374 42.7486 485.43 43.6776 486.189 44.8793C486.956 46.0724 487.361 47.4744 487.403 49.0852H481.561C481.442 48.0795 481.101 47.2912 480.538 46.7202C479.984 46.1491 479.26 45.8636 478.365 45.8636C477.641 45.8636 477.006 46.0682 476.46 46.4773C475.915 46.8778 475.489 47.4744 475.182 48.267C474.884 49.0511 474.734 50.0227 474.734 51.1818C474.734 52.3409 474.884 53.321 475.182 54.1222C475.489 54.9148 475.915 55.5156 476.46 55.9247C477.006 56.3253 477.641 56.5256 478.365 56.5256C478.945 56.5256 479.456 56.402 479.899 56.1548C480.351 55.9077 480.722 55.5455 481.011 55.0682C481.301 54.5824 481.484 53.9943 481.561 53.304H487.403C487.344 54.9233 486.939 56.3381 486.189 57.5483C485.447 58.7585 484.403 59.7003 483.057 60.3736C481.719 61.0384 480.129 61.3707 478.288 61.3707ZM490.603 61V41.3636H496.854V61H490.603ZM493.735 39.0753C492.857 39.0753 492.103 38.7855 491.472 38.206C490.841 37.6179 490.526 36.9105 490.526 36.0838C490.526 35.2656 490.841 34.5668 491.472 33.9872C492.103 33.3991 492.857 33.1051 493.735 33.1051C494.621 33.1051 495.375 33.3991 495.998 33.9872C496.628 34.5668 496.944 35.2656 496.944 36.0838C496.944 36.9105 496.628 37.6179 495.998 38.206C495.375 38.7855 494.621 39.0753 493.735 39.0753ZM500.833 68.3636V41.3636H507.021V44.7259H507.212C507.468 44.1293 507.83 43.554 508.299 43C508.776 42.446 509.381 41.9943 510.114 41.6449C510.856 41.2869 511.742 41.108 512.773 41.108C514.137 41.108 515.411 41.4659 516.596 42.1818C517.789 42.8977 518.752 44.0014 519.485 45.4929C520.218 46.9844 520.585 48.8849 520.585 51.1946C520.585 53.419 520.231 55.2812 519.523 56.7812C518.825 58.2812 517.879 59.4062 516.685 60.1562C515.501 60.9062 514.184 61.2812 512.735 61.2812C511.746 61.2812 510.89 61.1193 510.165 60.7955C509.441 60.4716 508.832 60.0455 508.337 59.517C507.852 58.9886 507.477 58.4219 507.212 57.8168H507.085V68.3636H500.833ZM506.957 51.1818C506.957 52.2386 507.097 53.1591 507.379 53.9432C507.668 54.7273 508.082 55.3366 508.619 55.7713C509.164 56.1974 509.816 56.4105 510.575 56.4105C511.342 56.4105 511.994 56.1974 512.531 55.7713C513.067 55.3366 513.472 54.7273 513.745 53.9432C514.026 53.1591 514.167 52.2386 514.167 51.1818C514.167 50.125 514.026 49.2088 513.745 48.4332C513.472 47.6577 513.067 47.0568 512.531 46.6307C512.002 46.2045 511.35 45.9915 510.575 45.9915C509.808 45.9915 509.156 46.2003 508.619 46.6179C508.082 47.0355 507.668 47.6321 507.379 48.4077C507.097 49.1832 506.957 50.108 506.957 51.1818ZM533.039 61.3707C530.985 61.3707 529.213 60.9659 527.721 60.1562C526.238 59.3381 525.096 58.1747 524.295 56.6662C523.502 55.1491 523.106 53.3466 523.106 51.2585C523.106 49.2301 523.507 47.4574 524.308 45.9403C525.109 44.4148 526.238 43.2301 527.696 42.3864C529.153 41.5341 530.87 41.108 532.848 41.108C534.245 41.108 535.524 41.3253 536.683 41.7599C537.842 42.1946 538.843 42.8381 539.687 43.6903C540.531 44.5426 541.187 45.5952 541.656 46.848C542.125 48.0923 542.359 49.5199 542.359 51.1307V52.6903H525.292V49.0597H536.542C536.534 48.3949 536.376 47.8026 536.069 47.2827C535.762 46.7628 535.341 46.358 534.804 46.0682C534.275 45.7699 533.666 45.6207 532.975 45.6207C532.277 45.6207 531.65 45.7784 531.096 46.0938C530.542 46.4006 530.103 46.8224 529.779 47.3594C529.456 47.8878 529.285 48.4886 529.268 49.1619V52.8565C529.268 53.6577 529.426 54.3608 529.741 54.9659C530.056 55.5625 530.504 56.027 531.083 56.3594C531.663 56.6918 532.353 56.858 533.154 56.858C533.708 56.858 534.211 56.7812 534.663 56.6278C535.115 56.4744 535.502 56.2486 535.826 55.9503C536.15 55.652 536.393 55.2855 536.555 54.8509L542.295 55.017C542.056 56.304 541.532 57.4247 540.723 58.3793C539.922 59.3253 538.869 60.0625 537.565 60.5909C536.261 61.1108 534.752 61.3707 533.039 61.3707ZM562.695 47.3594L556.955 47.5128C556.896 47.1037 556.734 46.7415 556.469 46.4261C556.205 46.1023 555.86 45.8509 555.434 45.6719C555.016 45.4844 554.531 45.3906 553.977 45.3906C553.252 45.3906 552.634 45.5355 552.123 45.8253C551.62 46.1151 551.373 46.5071 551.381 47.0014C551.373 47.3849 551.526 47.7173 551.842 47.9986C552.165 48.2798 552.741 48.5057 553.567 48.6761L557.352 49.392C559.312 49.767 560.769 50.3892 561.724 51.2585C562.687 52.1278 563.173 53.2784 563.181 54.7102C563.173 56.0568 562.772 57.2287 561.979 58.2259C561.195 59.223 560.121 59.9986 558.758 60.5526C557.394 61.098 555.835 61.3707 554.079 61.3707C551.275 61.3707 549.063 60.7955 547.444 59.6449C545.833 58.4858 544.913 56.9347 544.683 54.9915L550.857 54.8381C550.994 55.554 551.347 56.0994 551.918 56.4744C552.489 56.8494 553.218 57.0369 554.104 57.0369C554.906 57.0369 555.558 56.8878 556.06 56.5895C556.563 56.2912 556.819 55.8949 556.827 55.4006C556.819 54.9574 556.623 54.6037 556.239 54.3395C555.856 54.0668 555.255 53.8537 554.437 53.7003L551.011 53.0483C549.042 52.6903 547.576 52.0298 546.613 51.0668C545.65 50.0952 545.173 48.8594 545.181 47.3594C545.173 46.0469 545.522 44.9261 546.229 43.9972C546.937 43.0597 547.942 42.3438 549.246 41.8494C550.55 41.3551 552.089 41.108 553.862 41.108C556.521 41.108 558.617 41.6662 560.151 42.7827C561.685 43.8906 562.533 45.4162 562.695 47.3594Z" fill="#FAAB78"/>
<path d="M622.163 43.3707C622.018 42.8338 621.805 42.3608 621.524 41.9517C621.243 41.5341 620.898 41.1804 620.489 40.8906C620.08 40.6009 619.611 40.3835 619.082 40.2386C618.554 40.0852 617.974 40.0085 617.344 40.0085C616.074 40.0085 614.974 40.3153 614.045 40.929C613.125 41.5426 612.413 42.4375 611.911 43.6136C611.408 44.7812 611.156 46.2003 611.156 47.8707C611.156 49.5497 611.399 50.9815 611.885 52.1662C612.371 53.3509 613.074 54.2543 613.994 54.8764C614.915 55.4986 616.031 55.8097 617.344 55.8097C618.503 55.8097 619.483 55.6222 620.284 55.2472C621.094 54.8636 621.707 54.3224 622.125 53.6236C622.543 52.9247 622.751 52.1023 622.751 51.1562L623.928 51.2969H617.561V46.6818H628.849V50.1463C628.849 52.4901 628.351 54.4972 627.354 56.1676C626.365 57.8381 625.001 59.1207 623.263 60.0156C621.533 60.9105 619.543 61.358 617.293 61.358C614.795 61.358 612.601 60.8168 610.709 59.7344C608.817 58.652 607.342 57.1094 606.286 55.1065C605.229 53.0952 604.7 50.7088 604.7 47.9474C604.7 45.7997 605.02 43.8949 605.659 42.233C606.298 40.5625 607.189 39.1477 608.331 37.9886C609.482 36.8295 610.811 35.9517 612.32 35.3551C613.837 34.7585 615.469 34.4602 617.216 34.4602C618.733 34.4602 620.143 34.6776 621.447 35.1122C622.76 35.5469 623.919 36.1605 624.925 36.9531C625.939 37.7457 626.761 38.6875 627.392 39.7784C628.023 40.8693 628.415 42.0668 628.568 43.3707H622.163ZM632.579 61V41.3636H638.652V44.9432H638.856C639.214 43.6477 639.798 42.6847 640.608 42.054C641.417 41.4148 642.359 41.0952 643.433 41.0952C643.723 41.0952 644.021 41.1165 644.328 41.1591C644.635 41.1932 644.92 41.2486 645.184 41.3253V46.7585C644.886 46.6562 644.494 46.5753 644.008 46.5156C643.531 46.456 643.105 46.4261 642.73 46.4261C641.988 46.4261 641.319 46.5923 640.723 46.9247C640.135 47.2486 639.67 47.7045 639.329 48.2926C638.997 48.8722 638.831 49.554 638.831 50.3381V61H632.579ZM655.878 61.3707C653.816 61.3707 652.043 60.9489 650.56 60.1051C649.086 59.2528 647.948 58.0682 647.147 56.5511C646.354 55.0256 645.958 53.2571 645.958 51.2457C645.958 49.2259 646.354 47.4574 647.147 45.9403C647.948 44.4148 649.086 43.2301 650.56 42.3864C652.043 41.5341 653.816 41.108 655.878 41.108C657.941 41.108 659.709 41.5341 661.184 42.3864C662.667 43.2301 663.804 44.4148 664.597 45.9403C665.398 47.4574 665.799 49.2259 665.799 51.2457C665.799 53.2571 665.398 55.0256 664.597 56.5511C663.804 58.0682 662.667 59.2528 661.184 60.1051C659.709 60.9489 657.941 61.3707 655.878 61.3707ZM655.917 56.6534C656.667 56.6534 657.301 56.4233 657.821 55.9631C658.341 55.5028 658.738 54.8636 659.01 54.0455C659.292 53.2273 659.432 52.2812 659.432 51.2074C659.432 50.1165 659.292 49.1619 659.01 48.3438C658.738 47.5256 658.341 46.8864 657.821 46.4261C657.301 45.9659 656.667 45.7358 655.917 45.7358C655.141 45.7358 654.485 45.9659 653.948 46.4261C653.419 46.8864 653.015 47.5256 652.733 48.3438C652.461 49.1619 652.324 50.1165 652.324 51.2074C652.324 52.2812 652.461 53.2273 652.733 54.0455C653.015 54.8636 653.419 55.5028 653.948 55.9631C654.485 56.4233 655.141 56.6534 655.917 56.6534ZM678.167 61.3707C676.096 61.3707 674.319 60.9446 672.836 60.0923C671.362 59.2401 670.228 58.0554 669.436 56.5384C668.643 55.0128 668.247 53.2486 668.247 51.2457C668.247 49.2344 668.643 47.4702 669.436 45.9531C670.237 44.4276 671.375 43.2386 672.849 42.3864C674.332 41.5341 676.1 41.108 678.154 41.108C679.97 41.108 681.551 41.4361 682.897 42.0923C684.252 42.7486 685.309 43.6776 686.068 44.8793C686.835 46.0724 687.24 47.4744 687.282 49.0852H681.44C681.321 48.0795 680.98 47.2912 680.417 46.7202C679.863 46.1491 679.139 45.8636 678.244 45.8636C677.52 45.8636 676.885 46.0682 676.339 46.4773C675.794 46.8778 675.368 47.4744 675.061 48.267C674.762 49.0511 674.613 50.0227 674.613 51.1818C674.613 52.3409 674.762 53.321 675.061 54.1222C675.368 54.9148 675.794 55.5156 676.339 55.9247C676.885 56.3253 677.52 56.5256 678.244 56.5256C678.824 56.5256 679.335 56.402 679.778 56.1548C680.23 55.9077 680.6 55.5455 680.89 55.0682C681.18 54.5824 681.363 53.9943 681.44 53.304H687.282C687.223 54.9233 686.818 56.3381 686.068 57.5483C685.326 58.7585 684.282 59.7003 682.936 60.3736C681.598 61.0384 680.008 61.3707 678.167 61.3707ZM699.661 61.3707C697.607 61.3707 695.834 60.9659 694.342 60.1562C692.859 59.3381 691.717 58.1747 690.916 56.6662C690.124 55.1491 689.727 53.3466 689.727 51.2585C689.727 49.2301 690.128 47.4574 690.929 45.9403C691.73 44.4148 692.859 43.2301 694.317 42.3864C695.774 41.5341 697.491 41.108 699.469 41.108C700.866 41.108 702.145 41.3253 703.304 41.7599C704.463 42.1946 705.464 42.8381 706.308 43.6903C707.152 44.5426 707.808 45.5952 708.277 46.848C708.746 48.0923 708.98 49.5199 708.98 51.1307V52.6903H691.913V49.0597H703.163C703.155 48.3949 702.997 47.8026 702.69 47.2827C702.384 46.7628 701.962 46.358 701.425 46.0682C700.896 45.7699 700.287 45.6207 699.597 45.6207C698.898 45.6207 698.271 45.7784 697.717 46.0938C697.163 46.4006 696.724 46.8224 696.401 47.3594C696.077 47.8878 695.906 48.4886 695.889 49.1619V52.8565C695.889 53.6577 696.047 54.3608 696.362 54.9659C696.678 55.5625 697.125 56.027 697.705 56.3594C698.284 56.6918 698.974 56.858 699.776 56.858C700.33 56.858 700.832 56.7812 701.284 56.6278C701.736 56.4744 702.124 56.2486 702.447 55.9503C702.771 55.652 703.014 55.2855 703.176 54.8509L708.916 55.017C708.678 56.304 708.153 57.4247 707.344 58.3793C706.543 59.3253 705.49 60.0625 704.186 60.5909C702.882 61.1108 701.374 61.3707 699.661 61.3707ZM712.173 61V41.3636H718.245V44.9432H718.45C718.808 43.6477 719.392 42.6847 720.201 42.054C721.011 41.4148 721.953 41.0952 723.027 41.0952C723.316 41.0952 723.615 41.1165 723.922 41.1591C724.228 41.1932 724.514 41.2486 724.778 41.3253V46.7585C724.48 46.6562 724.088 46.5753 723.602 46.5156C723.125 46.456 722.699 46.4261 722.324 46.4261C721.582 46.4261 720.913 46.5923 720.316 46.9247C719.728 47.2486 719.264 47.7045 718.923 48.2926C718.591 48.8722 718.424 49.554 718.424 50.3381V61H712.173ZM731.745 68.3636C730.995 68.3636 730.288 68.304 729.623 68.1847C728.958 68.0739 728.387 67.9247 727.91 67.7372L729.291 63.1989C729.904 63.4034 730.458 63.5227 730.953 63.5568C731.456 63.5909 731.886 63.5099 732.244 63.3139C732.61 63.1264 732.892 62.7898 733.088 62.304L733.331 61.7159L726.35 41.3636H732.896L736.514 55.375H736.718L740.387 41.3636H746.971L739.569 62.8793C739.211 63.9531 738.704 64.8991 738.048 65.7173C737.4 66.544 736.561 67.1918 735.529 67.6605C734.507 68.1293 733.245 68.3636 731.745 68.3636ZM757.103 61V34.8182H763.431V55.8608H774.323V61H757.103ZM777.599 61V41.3636H783.85V61H777.599ZM780.731 39.0753C779.853 39.0753 779.099 38.7855 778.468 38.206C777.837 37.6179 777.522 36.9105 777.522 36.0838C777.522 35.2656 777.837 34.5668 778.468 33.9872C779.099 33.3991 779.853 33.1051 780.731 33.1051C781.617 33.1051 782.371 33.3991 782.994 33.9872C783.624 34.5668 783.94 35.2656 783.94 36.0838C783.94 36.9105 783.624 37.6179 782.994 38.206C782.371 38.7855 781.617 39.0753 780.731 39.0753ZM804.973 47.3594L799.233 47.5128C799.173 47.1037 799.011 46.7415 798.747 46.4261C798.483 46.1023 798.137 45.8509 797.711 45.6719C797.294 45.4844 796.808 45.3906 796.254 45.3906C795.529 45.3906 794.912 45.5355 794.4 45.8253C793.897 46.1151 793.65 46.5071 793.659 47.0014C793.65 47.3849 793.804 47.7173 794.119 47.9986C794.443 48.2798 795.018 48.5057 795.845 48.6761L799.629 49.392C801.589 49.767 803.047 50.3892 804.001 51.2585C804.964 52.1278 805.45 53.2784 805.458 54.7102C805.45 56.0568 805.049 57.2287 804.257 58.2259C803.473 59.223 802.399 59.9986 801.035 60.5526C799.672 61.098 798.112 61.3707 796.356 61.3707C793.552 61.3707 791.341 60.7955 789.721 59.6449C788.11 58.4858 787.19 56.9347 786.96 54.9915L793.135 54.8381C793.271 55.554 793.625 56.0994 794.196 56.4744C794.767 56.8494 795.495 57.0369 796.382 57.0369C797.183 57.0369 797.835 56.8878 798.338 56.5895C798.841 56.2912 799.096 55.8949 799.105 55.4006C799.096 54.9574 798.9 54.6037 798.517 54.3395C798.133 54.0668 797.532 53.8537 796.714 53.7003L793.288 53.0483C791.319 52.6903 789.853 52.0298 788.89 51.0668C787.927 50.0952 787.45 48.8594 787.458 47.3594C787.45 46.0469 787.799 44.9261 788.507 43.9972C789.214 43.0597 790.22 42.3438 791.524 41.8494C792.828 41.3551 794.366 41.108 796.139 41.108C798.798 41.108 800.895 41.6662 802.429 42.7827C803.963 43.8906 804.811 45.4162 804.973 47.3594ZM819.62 41.3636V45.9659H807.232V41.3636H819.62ZM809.827 36.6591H816.079V54.8253C816.079 55.2088 816.138 55.5199 816.258 55.7585C816.386 55.9886 816.569 56.1548 816.808 56.2571C817.046 56.3509 817.332 56.3977 817.664 56.3977C817.903 56.3977 818.154 56.3764 818.418 56.3338C818.691 56.2827 818.896 56.2401 819.032 56.206L819.978 60.7188C819.68 60.804 819.258 60.9105 818.712 61.0384C818.175 61.1662 817.532 61.2472 816.782 61.2812C815.316 61.3494 814.059 61.179 813.011 60.7699C811.971 60.3523 811.174 59.7045 810.62 58.8267C810.075 57.9489 809.81 56.8452 809.827 55.5156V36.6591Z" fill="#FAAB78"/>
<path d="M860.982 61V34.8182H878.854V39.9574H867.31V45.3267H877.716V50.4787H867.31V61H860.982ZM889.765 61.3707C887.702 61.3707 885.93 60.9489 884.447 60.1051C882.972 59.2528 881.835 58.0682 881.033 56.5511C880.241 55.0256 879.844 53.2571 879.844 51.2457C879.844 49.2259 880.241 47.4574 881.033 45.9403C881.835 44.4148 882.972 43.2301 884.447 42.3864C885.93 41.5341 887.702 41.108 889.765 41.108C891.827 41.108 893.596 41.5341 895.07 42.3864C896.553 43.2301 897.691 44.4148 898.484 45.9403C899.285 47.4574 899.685 49.2259 899.685 51.2457C899.685 53.2571 899.285 55.0256 898.484 56.5511C897.691 58.0682 896.553 59.2528 895.07 60.1051C893.596 60.9489 891.827 61.3707 889.765 61.3707ZM889.803 56.6534C890.553 56.6534 891.188 56.4233 891.708 55.9631C892.228 55.5028 892.624 54.8636 892.897 54.0455C893.178 53.2273 893.319 52.2812 893.319 51.2074C893.319 50.1165 893.178 49.1619 892.897 48.3438C892.624 47.5256 892.228 46.8864 891.708 46.4261C891.188 45.9659 890.553 45.7358 889.803 45.7358C889.028 45.7358 888.371 45.9659 887.835 46.4261C887.306 46.8864 886.901 47.5256 886.62 48.3438C886.347 49.1619 886.211 50.1165 886.211 51.2074C886.211 52.2812 886.347 53.2273 886.62 54.0455C886.901 54.8636 887.306 55.5028 887.835 55.9631C888.371 56.4233 889.028 56.6534 889.803 56.6534ZM912.054 61.3707C909.991 61.3707 908.219 60.9489 906.736 60.1051C905.261 59.2528 904.124 58.0682 903.322 56.5511C902.53 55.0256 902.134 53.2571 902.134 51.2457C902.134 49.2259 902.53 47.4574 903.322 45.9403C904.124 44.4148 905.261 43.2301 906.736 42.3864C908.219 41.5341 909.991 41.108 912.054 41.108C914.116 41.108 915.885 41.5341 917.359 42.3864C918.842 43.2301 919.98 44.4148 920.773 45.9403C921.574 47.4574 921.974 49.2259 921.974 51.2457C921.974 53.2571 921.574 55.0256 920.773 56.5511C919.98 58.0682 918.842 59.2528 917.359 60.1051C915.885 60.9489 914.116 61.3707 912.054 61.3707ZM912.092 56.6534C912.842 56.6534 913.477 56.4233 913.997 55.9631C914.517 55.5028 914.913 54.8636 915.186 54.0455C915.467 53.2273 915.608 52.2812 915.608 51.2074C915.608 50.1165 915.467 49.1619 915.186 48.3438C914.913 47.5256 914.517 46.8864 913.997 46.4261C913.477 45.9659 912.842 45.7358 912.092 45.7358C911.317 45.7358 910.661 45.9659 910.124 46.4261C909.595 46.8864 909.19 47.5256 908.909 48.3438C908.636 49.1619 908.5 50.1165 908.5 51.2074C908.5 52.2812 908.636 53.2273 908.909 54.0455C909.19 54.8636 909.595 55.5028 910.124 55.9631C910.661 56.4233 911.317 56.6534 912.092 56.6534ZM932.349 61.2812C930.9 61.2812 929.583 60.9062 928.398 60.1562C927.214 59.4062 926.268 58.2812 925.56 56.7812C924.853 55.2812 924.499 53.419 924.499 51.1946C924.499 48.8849 924.866 46.9844 925.599 45.4929C926.332 44.0014 927.29 42.8977 928.475 42.1818C929.668 41.4659 930.951 41.108 932.323 41.108C933.354 41.108 934.237 41.2869 934.969 41.6449C935.702 41.9943 936.308 42.446 936.785 43C937.262 43.554 937.624 44.1293 937.871 44.7259H937.999V34.8182H944.251V61H938.063V57.8168H937.871C937.607 58.4219 937.232 58.9886 936.746 59.517C936.261 60.0455 935.651 60.4716 934.918 60.7955C934.194 61.1193 933.337 61.2812 932.349 61.2812ZM934.522 56.4105C935.281 56.4105 935.928 56.1974 936.465 55.7713C937.002 55.3366 937.415 54.7273 937.705 53.9432C937.995 53.1591 938.14 52.2386 938.14 51.1818C938.14 50.108 937.995 49.1832 937.705 48.4077C937.424 47.6321 937.011 47.0355 936.465 46.6179C935.928 46.2003 935.281 45.9915 934.522 45.9915C933.746 45.9915 933.09 46.2045 932.553 46.6307C932.016 47.0568 931.607 47.6577 931.326 48.4332C931.053 49.2088 930.917 50.125 930.917 51.1818C930.917 52.2386 931.058 53.1591 931.339 53.9432C931.62 54.7273 932.025 55.3366 932.553 55.7713C933.09 56.1974 933.746 56.4105 934.522 56.4105ZM955.939 61V34.8182H962.267V55.8608H973.159V61H955.939ZM985.601 61.3707C983.538 61.3707 981.766 60.9489 980.283 60.1051C978.808 59.2528 977.67 58.0682 976.869 56.5511C976.077 55.0256 975.68 53.2571 975.68 51.2457C975.68 49.2259 976.077 47.4574 976.869 45.9403C977.67 44.4148 978.808 43.2301 980.283 42.3864C981.766 41.5341 983.538 41.108 985.601 41.108C987.663 41.108 989.432 41.5341 990.906 42.3864C992.389 43.2301 993.527 44.4148 994.32 45.9403C995.121 47.4574 995.521 49.2259 995.521 51.2457C995.521 53.2571 995.121 55.0256 994.32 56.5511C993.527 58.0682 992.389 59.2528 990.906 60.1051C989.432 60.9489 987.663 61.3707 985.601 61.3707ZM985.639 56.6534C986.389 56.6534 987.024 56.4233 987.544 55.9631C988.064 55.5028 988.46 54.8636 988.733 54.0455C989.014 53.2273 989.155 52.2812 989.155 51.2074C989.155 50.1165 989.014 49.1619 988.733 48.3438C988.46 47.5256 988.064 46.8864 987.544 46.4261C987.024 45.9659 986.389 45.7358 985.639 45.7358C984.864 45.7358 984.207 45.9659 983.67 46.4261C983.142 46.8864 982.737 47.5256 982.456 48.3438C982.183 49.1619 982.047 50.1165 982.047 51.2074C982.047 52.2812 982.183 53.2273 982.456 54.0455C982.737 54.8636 983.142 55.5028 983.67 55.9631C984.207 56.4233 984.864 56.6534 985.639 56.6534ZM1007.88 68.7727C1006.01 68.7727 1004.41 68.5128 1003.08 67.9929C1001.75 67.473 1000.71 66.7614 999.951 65.858C999.192 64.9545 998.737 63.9318 998.583 62.7898L1004.5 62.4574C1004.61 62.858 1004.82 63.2074 1005.12 63.5057C1005.42 63.804 1005.82 64.0341 1006.3 64.196C1006.8 64.358 1007.38 64.4389 1008.04 64.4389C1009.09 64.4389 1009.96 64.1832 1010.64 63.6719C1011.33 63.169 1011.67 62.2869 1011.67 61.0256V57.5739H1011.46C1011.21 58.179 1010.83 58.7202 1010.33 59.1974C1009.83 59.6747 1009.2 60.0497 1008.45 60.3224C1007.71 60.5952 1006.86 60.7315 1005.9 60.7315C1004.46 60.7315 1003.15 60.3991 1001.96 59.7344C1000.77 59.0611 999.823 58.0213 999.107 56.6151C998.4 55.2003 998.046 53.3807 998.046 51.1562C998.046 48.8636 998.413 46.9759 999.146 45.4929C999.879 44.0014 1000.84 42.8977 1002.02 42.1818C1003.22 41.4659 1004.5 41.108 1005.87 41.108C1006.9 41.108 1007.78 41.2869 1008.52 41.6449C1009.26 41.9943 1009.87 42.446 1010.34 43C1010.82 43.554 1011.18 44.1293 1011.43 44.7259H1011.61V41.3636H1017.84V61.0767C1017.84 62.7386 1017.42 64.1406 1016.58 65.2827C1015.75 66.4247 1014.58 67.2898 1013.08 67.8778C1011.58 68.4744 1009.85 68.7727 1007.88 68.7727ZM1008.07 56.1804C1008.83 56.1804 1009.48 55.9801 1010.01 55.5795C1010.55 55.179 1010.96 54.6037 1011.25 53.8537C1011.54 53.1037 1011.69 52.2045 1011.69 51.1562C1011.69 50.0909 1011.54 49.1747 1011.25 48.4077C1010.97 47.6321 1010.56 47.0355 1010.01 46.6179C1009.48 46.2003 1008.83 45.9915 1008.07 45.9915C1007.29 45.9915 1006.64 46.2045 1006.1 46.6307C1005.56 47.0568 1005.15 47.6577 1004.87 48.4332C1004.6 49.2003 1004.46 50.108 1004.46 51.1562C1004.46 52.2045 1004.6 53.1037 1004.89 53.8537C1005.17 54.6037 1005.57 55.179 1006.1 55.5795C1006.64 55.9801 1007.29 56.1804 1008.07 56.1804Z" fill="#FAAB78"/>
<rect y="1170" width="1440" height="123" fill="#FAAB78"/>
<path d="M405.42 1023L404.376 1019.51H395.7L394.656 1023H386.52L395.556 998.232H404.808L413.844 1023H405.42ZM397.356 1013.96H402.72L400.128 1005.14H399.984L397.356 1013.96ZM430.164 1023L429.552 1020.3C428.16 1022.39 426.144 1023.43 423.504 1023.43C420.936 1023.43 418.956 1022.59 417.564 1020.91C416.172 1019.23 415.476 1016.75 415.476 1013.46C415.476 1010.2 416.172 1007.74 417.564 1006.08C418.956 1004.4 420.936 1003.56 423.504 1003.56C425.688 1003.56 427.464 1004.29 428.832 1005.76V996.9H435.996V1023H430.164ZM425.736 1008.85C423.672 1008.85 422.64 1010.09 422.64 1012.56V1014.47C422.64 1016.92 423.672 1018.14 425.736 1018.14C426.792 1018.14 427.584 1017.77 428.112 1017.02C428.64 1016.28 428.904 1015.31 428.904 1014.11V1012.92C428.904 1011.72 428.64 1010.75 428.112 1010C427.584 1009.24 426.792 1008.85 425.736 1008.85ZM454.527 1023L453.915 1020.3C452.523 1022.39 450.507 1023.43 447.867 1023.43C445.299 1023.43 443.319 1022.59 441.927 1020.91C440.535 1019.23 439.839 1016.75 439.839 1013.46C439.839 1010.2 440.535 1007.74 441.927 1006.08C443.319 1004.4 445.299 1003.56 447.867 1003.56C450.051 1003.56 451.827 1004.29 453.195 1005.76V996.9H460.359V1023H454.527ZM450.099 1008.85C448.035 1008.85 447.003 1010.09 447.003 1012.56V1014.47C447.003 1016.92 448.035 1018.14 450.099 1018.14C451.155 1018.14 451.947 1017.77 452.475 1017.02C453.003 1016.28 453.267 1015.31 453.267 1014.11V1012.92C453.267 1011.72 453.003 1010.75 452.475 1010C451.947 1009.24 451.155 1008.85 450.099 1008.85ZM476.955 1001.76V996.9H484.119V1001.76H476.955ZM476.955 1023V1003.99H484.119V1023H476.955ZM501.795 1003.56C504.003 1003.56 505.659 1004.17 506.763 1005.4C507.867 1006.62 508.419 1008.38 508.419 1010.69V1023H501.255V1011.55C501.255 1010.74 501.039 1010.09 500.607 1009.61C500.199 1009.1 499.611 1008.85 498.843 1008.85C497.955 1008.85 497.235 1009.14 496.683 1009.72C496.131 1010.29 495.855 1011 495.855 1011.84V1023H488.691V1003.99H494.559L495.027 1006.87C495.771 1005.86 496.743 1005.06 497.943 1004.46C499.167 1003.86 500.451 1003.56 501.795 1003.56ZM534.087 1000.43C534.087 1001.89 533.715 1003.02 532.971 1003.81C532.251 1004.6 531.159 1005.19 529.695 1005.58C530.391 1006.1 530.931 1006.73 531.315 1007.45C531.723 1008.14 531.927 1008.89 531.927 1009.68C531.927 1011.7 531.159 1013.22 529.623 1014.25C528.111 1015.28 526.215 1015.8 523.935 1015.8H521.199C519.687 1015.8 518.931 1016.15 518.931 1016.84C518.931 1017.18 519.099 1017.46 519.435 1017.67C519.771 1017.86 520.359 1017.96 521.199 1017.96H527.679C529.791 1017.96 531.387 1018.51 532.467 1019.62C533.547 1020.72 534.087 1022.2 534.087 1024.04C534.087 1025.41 533.727 1026.59 533.007 1027.57C532.287 1028.56 531.315 1029.3 530.091 1029.8C528.867 1030.31 527.535 1030.56 526.095 1030.56H515.511C514.647 1030.56 513.843 1030.36 513.099 1029.95C512.379 1029.54 511.803 1028.98 511.371 1028.26C510.939 1027.56 510.723 1026.78 510.723 1025.92C510.723 1024.98 511.011 1024.13 511.587 1023.36C512.163 1022.62 512.883 1022.05 513.747 1021.67C513.171 1021.26 512.715 1020.77 512.379 1020.19C512.043 1019.62 511.875 1018.99 511.875 1018.32C511.875 1017.38 512.223 1016.54 512.919 1015.8C513.615 1015.03 514.479 1014.52 515.511 1014.25C514.575 1013.65 513.831 1012.97 513.279 1012.2C512.727 1011.41 512.451 1010.58 512.451 1009.72C512.451 1007.51 513.339 1005.94 515.115 1005C516.915 1004.04 519.291 1003.56 522.243 1003.56C523.539 1003.56 524.583 1003.63 525.375 1003.78C526.551 1003.03 527.307 1002.36 527.643 1001.76C528.003 1001.14 528.183 1000.69 528.183 1000.43H534.087ZM522.171 1007.3C521.379 1007.3 520.731 1007.51 520.227 1007.92C519.723 1008.32 519.471 1008.91 519.471 1009.68C519.471 1010.47 519.699 1011.07 520.155 1011.48C520.635 1011.86 521.307 1012.06 522.171 1012.06C523.035 1012.06 523.707 1011.86 524.187 1011.48C524.691 1011.07 524.943 1010.47 524.943 1009.68C524.943 1008.89 524.691 1008.3 524.187 1007.92C523.707 1007.51 523.035 1007.3 522.171 1007.3ZM519.399 1023C518.847 1023 518.391 1023.14 518.031 1023.43C517.695 1023.74 517.527 1024.18 517.527 1024.73C517.527 1025.28 517.707 1025.72 518.067 1026.06C518.427 1026.4 518.871 1026.56 519.399 1026.56H525.015C525.543 1026.56 525.987 1026.4 526.347 1026.06C526.731 1025.75 526.923 1025.32 526.923 1024.76C526.923 1024.21 526.743 1023.78 526.383 1023.47C526.023 1023.16 525.567 1023 525.015 1023H519.399ZM548.904 1003.52C549.456 1003.52 549.948 1003.6 550.38 1003.74C550.812 1003.86 551.028 1003.93 551.028 1003.96V1009.97H548.724C547.236 1009.97 546.156 1010.35 545.484 1011.12C544.836 1011.89 544.512 1013.03 544.512 1014.54V1023H537.348V1003.99H543.216L543.684 1006.87C544.116 1005.77 544.8 1004.94 545.736 1004.39C546.672 1003.81 547.728 1003.52 548.904 1003.52ZM563.734 1003.56C567.214 1003.56 569.866 1004.38 571.69 1006.01C573.538 1007.64 574.462 1010.14 574.462 1013.5V1014.72H560.206C560.206 1016.09 560.506 1017.12 561.106 1017.82C561.73 1018.51 562.702 1018.86 564.022 1018.86C565.222 1018.86 566.098 1018.61 566.65 1018.1C567.226 1017.6 567.514 1016.93 567.514 1016.09H574.462C574.462 1018.39 573.586 1020.19 571.834 1021.49C570.082 1022.78 567.526 1023.43 564.166 1023.43C560.638 1023.43 557.902 1022.62 555.958 1020.98C554.014 1019.33 553.042 1016.83 553.042 1013.5C553.042 1010.23 553.99 1007.76 555.886 1006.08C557.782 1004.4 560.398 1003.56 563.734 1003.56ZM564.022 1008.13C561.766 1008.13 560.506 1009.2 560.242 1011.34H567.226C567.226 1010.35 566.938 1009.57 566.362 1009C565.81 1008.42 565.03 1008.13 564.022 1008.13ZM591.742 1023L591.13 1020.3C589.738 1022.39 587.722 1023.43 585.082 1023.43C582.514 1023.43 580.534 1022.59 579.142 1020.91C577.75 1019.23 577.054 1016.75 577.054 1013.46C577.054 1010.2 577.75 1007.74 579.142 1006.08C580.534 1004.4 582.514 1003.56 585.082 1003.56C587.266 1003.56 589.042 1004.29 590.41 1005.76V996.9H597.574V1023H591.742ZM587.314 1008.85C585.25 1008.85 584.218 1010.09 584.218 1012.56V1014.47C584.218 1016.92 585.25 1018.14 587.314 1018.14C588.37 1018.14 589.162 1017.77 589.69 1017.02C590.218 1016.28 590.482 1015.31 590.482 1014.11V1012.92C590.482 1011.72 590.218 1010.75 589.69 1010C589.162 1009.24 588.37 1008.85 587.314 1008.85ZM602.182 1001.76V996.9H609.346V1001.76H602.182ZM602.182 1023V1003.99H609.346V1023H602.182ZM623.746 1003.56C627.226 1003.56 629.878 1004.38 631.702 1006.01C633.55 1007.64 634.474 1010.14 634.474 1013.5V1014.72H620.218C620.218 1016.09 620.518 1017.12 621.118 1017.82C621.742 1018.51 622.714 1018.86 624.034 1018.86C625.234 1018.86 626.11 1018.61 626.662 1018.1C627.238 1017.6 627.526 1016.93 627.526 1016.09H634.474C634.474 1018.39 633.598 1020.19 631.846 1021.49C630.094 1022.78 627.538 1023.43 624.178 1023.43C620.65 1023.43 617.914 1022.62 615.97 1020.98C614.026 1019.33 613.054 1016.83 613.054 1013.5C613.054 1010.23 614.002 1007.76 615.898 1006.08C617.794 1004.4 620.41 1003.56 623.746 1003.56ZM624.034 1008.13C621.778 1008.13 620.518 1009.2 620.254 1011.34H627.238C627.238 1010.35 626.95 1009.57 626.374 1009C625.822 1008.42 625.042 1008.13 624.034 1008.13ZM651.034 1003.56C653.242 1003.56 654.898 1004.17 656.002 1005.4C657.106 1006.62 657.658 1008.38 657.658 1010.69V1023H650.494V1011.55C650.494 1010.74 650.278 1010.09 649.846 1009.61C649.438 1009.1 648.85 1008.85 648.082 1008.85C647.194 1008.85 646.474 1009.14 645.922 1009.72C645.37 1010.29 645.094 1011 645.094 1011.84V1023H637.93V1003.99H643.798L644.266 1006.87C645.01 1005.86 645.982 1005.06 647.182 1004.46C648.406 1003.86 649.69 1003.56 651.034 1003.56ZM674.613 1003.99V1008.85H670.581V1016.09C670.581 1016.95 670.725 1017.59 671.013 1018C671.301 1018.38 671.829 1018.57 672.597 1018.57H674.613V1022.78C674.037 1022.98 673.293 1023.13 672.381 1023.25C671.469 1023.37 670.677 1023.43 670.005 1023.43C667.893 1023.43 666.261 1023.05 665.109 1022.28C663.981 1021.51 663.417 1020.2 663.417 1018.36V1008.85H660.753V1003.99H663.705L665.253 998.232H670.581V1003.99H674.613ZM686.973 1003.56C689.517 1003.56 691.665 1004.06 693.417 1005.07C695.193 1006.06 696.081 1007.59 696.081 1009.68H689.421C689.421 1008.98 689.109 1008.49 688.485 1008.2C688.053 1007.96 687.513 1007.84 686.865 1007.84C685.137 1007.84 684.273 1008.25 684.273 1009.07C684.273 1009.52 684.573 1009.85 685.173 1010.04C685.773 1010.23 686.757 1010.44 688.125 1010.65C689.805 1010.89 691.209 1011.18 692.337 1011.52C693.465 1011.83 694.449 1012.4 695.289 1013.24C696.129 1014.06 696.549 1015.21 696.549 1016.7C696.549 1019.12 695.637 1020.85 693.813 1021.88C692.013 1022.92 689.649 1023.43 686.721 1023.43C685.041 1023.43 683.457 1023.2 681.969 1022.75C680.481 1022.27 679.269 1021.54 678.333 1020.55C677.397 1019.57 676.929 1018.32 676.929 1016.81H683.589V1016.95C683.613 1017.77 683.949 1018.34 684.597 1018.68C685.269 1018.99 685.977 1019.15 686.721 1019.15C688.713 1019.15 689.709 1018.68 689.709 1017.74C689.709 1017.26 689.397 1016.92 688.773 1016.7C688.149 1016.48 687.129 1016.26 685.713 1016.02C684.009 1015.73 682.605 1015.42 681.501 1015.08C680.421 1014.74 679.473 1014.18 678.657 1013.39C677.841 1012.57 677.433 1011.44 677.433 1010C677.433 1007.68 678.309 1006.02 680.061 1005.04C681.837 1004.05 684.141 1003.56 686.973 1003.56ZM719.673 996.468C720.201 996.468 720.861 996.54 721.653 996.684C722.445 996.804 723.081 996.948 723.561 997.116V1001.33H721.905C721.137 1001.33 720.609 1001.47 720.321 1001.76C720.033 1002.05 719.889 1002.54 719.889 1003.24V1003.99H723.561V1008.85H719.889V1023H712.725V1008.85H710.061V1003.99H712.725V1003.2C712.725 1000.75 713.325 999.024 714.525 998.016C715.725 996.984 717.441 996.468 719.673 996.468ZM737.482 1003.52C738.034 1003.52 738.526 1003.6 738.958 1003.74C739.39 1003.86 739.606 1003.93 739.606 1003.96V1009.97H737.302C735.814 1009.97 734.734 1010.35 734.062 1011.12C733.414 1011.89 733.09 1013.03 733.09 1014.54V1023H725.926V1003.99H731.794L732.262 1006.87C732.694 1005.77 733.378 1004.94 734.314 1004.39C735.25 1003.81 736.306 1003.52 737.482 1003.52ZM752.312 1003.56C755.648 1003.56 758.264 1004.41 760.16 1006.12C762.08 1007.8 763.04 1010.26 763.04 1013.5C763.04 1016.74 762.08 1019.21 760.16 1020.91C758.264 1022.59 755.648 1023.43 752.312 1023.43C748.976 1023.43 746.36 1022.59 744.464 1020.91C742.568 1019.23 741.62 1016.76 741.62 1013.5C741.62 1010.23 742.568 1007.76 744.464 1006.08C746.36 1004.4 748.976 1003.56 752.312 1003.56ZM752.312 1008.42C749.96 1008.42 748.784 1009.78 748.784 1012.49V1014.54C748.784 1017.23 749.96 1018.57 752.312 1018.57C754.688 1018.57 755.876 1017.23 755.876 1014.54V1012.49C755.876 1009.78 754.688 1008.42 752.312 1008.42ZM791.732 1003.56C793.892 1003.56 795.512 1004.18 796.592 1005.43C797.672 1006.66 798.212 1008.41 798.212 1010.69V1023H791.048V1011.55C791.048 1010.74 790.844 1010.09 790.436 1009.61C790.052 1009.1 789.5 1008.85 788.78 1008.85C787.94 1008.85 787.256 1009.14 786.728 1009.72C786.2 1010.29 785.936 1011 785.936 1011.84V1023H778.772V1011.55C778.772 1010.74 778.568 1010.09 778.16 1009.61C777.776 1009.1 777.224 1008.85 776.504 1008.85C775.664 1008.85 774.98 1009.14 774.452 1009.72C773.924 1010.29 773.66 1011 773.66 1011.84V1023H766.496V1003.99H772.364L772.832 1006.84C773.552 1005.83 774.5 1005.04 775.676 1004.46C776.876 1003.86 778.136 1003.56 779.456 1003.56C782.312 1003.56 784.232 1004.65 785.216 1006.84C785.96 1005.83 786.908 1005.04 788.06 1004.46C789.236 1003.86 790.46 1003.56 791.732 1003.56ZM827.552 1022.42C826.568 1025.09 825.356 1027.1 823.916 1028.47C822.5 1029.86 820.508 1030.56 817.94 1030.56C816.38 1030.56 815 1030.34 813.8 1029.91V1025.63H816.68C818.48 1025.63 819.548 1024.75 819.884 1023L812.324 1003.99H820.028L823.664 1016.63H823.916L827.264 1003.99H834.32L827.552 1022.42ZM845.722 1003.56C849.058 1003.56 851.674 1004.41 853.57 1006.12C855.49 1007.8 856.45 1010.26 856.45 1013.5C856.45 1016.74 855.49 1019.21 853.57 1020.91C851.674 1022.59 849.058 1023.43 845.722 1023.43C842.386 1023.43 839.77 1022.59 837.874 1020.91C835.978 1019.23 835.03 1016.76 835.03 1013.5C835.03 1010.23 835.978 1007.76 837.874 1006.08C839.77 1004.4 842.386 1003.56 845.722 1003.56ZM845.722 1008.42C843.37 1008.42 842.194 1009.78 842.194 1012.49V1014.54C842.194 1017.23 843.37 1018.57 845.722 1018.57C848.098 1018.57 849.286 1017.23 849.286 1014.54V1012.49C849.286 1009.78 848.098 1008.42 845.722 1008.42ZM873.694 1023L873.226 1020.12C872.482 1021.15 871.498 1021.97 870.274 1022.57C869.074 1023.14 867.802 1023.43 866.458 1023.43C864.25 1023.43 862.594 1022.82 861.49 1021.6C860.386 1020.37 859.834 1018.61 859.834 1016.3V1003.99H866.998V1015.44C866.998 1016.26 867.202 1016.92 867.61 1017.42C868.042 1017.9 868.642 1018.14 869.41 1018.14C870.298 1018.14 871.018 1017.85 871.57 1017.28C872.122 1016.7 872.398 1015.99 872.398 1015.15V1003.99H879.562V1023H873.694ZM895.474 1003.52C896.026 1003.52 896.518 1003.6 896.95 1003.74C897.382 1003.86 897.598 1003.93 897.598 1003.96V1009.97H895.294C893.806 1009.97 892.726 1010.35 892.054 1011.12C891.406 1011.89 891.082 1013.03 891.082 1014.54V1023H883.918V1003.99H889.786L890.254 1006.87C890.686 1005.77 891.37 1004.94 892.306 1004.39C893.242 1003.81 894.298 1003.52 895.474 1003.52ZM924.43 1003.56C926.998 1003.56 928.978 1004.4 930.37 1006.08C931.762 1007.76 932.458 1010.24 932.458 1013.53C932.458 1016.8 931.762 1019.27 930.37 1020.95C928.978 1022.6 926.998 1023.43 924.43 1023.43C922.222 1023.43 920.446 1022.71 919.102 1021.27V1030.09H911.938V1003.99H917.77L918.382 1006.69C919.774 1004.6 921.79 1003.56 924.43 1003.56ZM922.198 1008.85C921.142 1008.85 920.35 1009.22 919.822 1009.97C919.294 1010.71 919.03 1011.68 919.03 1012.88V1014.07C919.03 1015.27 919.294 1016.26 919.822 1017.02C920.35 1017.77 921.142 1018.14 922.198 1018.14C924.262 1018.14 925.294 1016.9 925.294 1014.43V1012.52C925.294 1010.08 924.262 1008.85 922.198 1008.85ZM945.31 1003.56C948.214 1003.56 950.578 1004.05 952.402 1005.04C954.226 1006 955.138 1007.57 955.138 1009.75V1017.17C955.138 1017.58 955.234 1017.91 955.426 1018.18C955.618 1018.44 955.906 1018.57 956.29 1018.57H957.586V1022.71C957.514 1022.76 957.322 1022.84 957.01 1022.96C956.722 1023.06 956.302 1023.16 955.75 1023.25C955.198 1023.37 954.562 1023.43 953.842 1023.43C952.45 1023.43 951.298 1023.23 950.386 1022.82C949.498 1022.39 948.886 1021.8 948.55 1021.06C947.638 1021.78 946.618 1022.35 945.49 1022.78C944.362 1023.22 943.042 1023.43 941.53 1023.43C937.066 1023.43 934.834 1021.66 934.834 1018.1C934.834 1016.26 935.326 1014.85 936.31 1013.89C937.318 1012.91 938.758 1012.24 940.63 1011.88C942.502 1011.52 944.95 1011.34 947.974 1011.34V1010.4C947.974 1009.66 947.71 1009.09 947.182 1008.71C946.678 1008.32 946.018 1008.13 945.202 1008.13C944.458 1008.13 943.81 1008.26 943.258 1008.53C942.73 1008.79 942.466 1009.21 942.466 1009.79V1009.93H935.41C935.386 1009.81 935.374 1009.64 935.374 1009.43C935.374 1007.63 936.226 1006.2 937.93 1005.14C939.658 1004.09 942.118 1003.56 945.31 1003.56ZM947.974 1014.72C945.934 1014.72 944.422 1014.95 943.438 1015.4C942.478 1015.84 941.998 1016.42 941.998 1017.17C941.998 1018.37 942.814 1018.97 944.446 1018.97C945.382 1018.97 946.198 1018.72 946.894 1018.21C947.614 1017.71 947.974 1017.08 947.974 1016.34V1014.72ZM973.03 1003.56C975.238 1003.56 976.894 1004.17 977.998 1005.4C979.102 1006.62 979.654 1008.38 979.654 1010.69V1023H972.49V1011.55C972.49 1010.74 972.274 1010.09 971.842 1009.61C971.434 1009.1 970.846 1008.85 970.078 1008.85C969.19 1008.85 968.47 1009.14 967.918 1009.72C967.366 1010.29 967.09 1011 967.09 1011.84V1023H959.926V1003.99H965.794L966.262 1006.87C967.006 1005.86 967.978 1005.06 969.178 1004.46C970.402 1003.86 971.686 1003.56 973.03 1003.56ZM996.609 1003.99V1008.85H992.577V1016.09C992.577 1016.95 992.721 1017.59 993.009 1018C993.297 1018.38 993.825 1018.57 994.593 1018.57H996.609V1022.78C996.033 1022.98 995.289 1023.13 994.377 1023.25C993.465 1023.37 992.673 1023.43 992.001 1023.43C989.889 1023.43 988.257 1023.05 987.105 1022.28C985.977 1021.51 985.413 1020.2 985.413 1018.36V1008.85H982.749V1003.99H985.701L987.249 998.232H992.577V1003.99H996.609ZM1011.49 1003.52C1012.04 1003.52 1012.53 1003.6 1012.97 1003.74C1013.4 1003.86 1013.61 1003.93 1013.61 1003.96V1009.97H1011.31C1009.82 1009.97 1008.74 1010.35 1008.07 1011.12C1007.42 1011.89 1007.1 1013.03 1007.1 1014.54V1023H999.933V1003.99H1005.8L1006.27 1006.87C1006.7 1005.77 1007.39 1004.94 1008.32 1004.39C1009.26 1003.81 1010.31 1003.52 1011.49 1003.52ZM1031.07 1022.42C1030.09 1025.09 1028.88 1027.1 1027.44 1028.47C1026.02 1029.86 1024.03 1030.56 1021.46 1030.56C1019.9 1030.56 1018.52 1030.34 1017.32 1029.91V1025.63H1020.2C1022 1025.63 1023.07 1024.75 1023.4 1023L1015.84 1003.99H1023.55L1027.18 1016.63H1027.44L1030.78 1003.99H1037.84L1031.07 1022.42ZM491.607 1042.99V1047.85H487.575V1055.09C487.575 1055.95 487.719 1056.59 488.007 1057C488.295 1057.38 488.823 1057.57 489.591 1057.57H491.607V1061.78C491.031 1061.98 490.287 1062.13 489.375 1062.25C488.463 1062.37 487.671 1062.43 486.999 1062.43C484.887 1062.43 483.255 1062.05 482.103 1061.28C480.975 1060.51 480.411 1059.2 480.411 1057.36V1047.85H477.747V1042.99H480.699L482.247 1037.23H487.575V1042.99H491.607ZM504.759 1042.56C508.095 1042.56 510.711 1043.41 512.607 1045.12C514.527 1046.8 515.487 1049.26 515.487 1052.5C515.487 1055.74 514.527 1058.21 512.607 1059.91C510.711 1061.59 508.095 1062.43 504.759 1062.43C501.423 1062.43 498.807 1061.59 496.911 1059.91C495.015 1058.23 494.067 1055.76 494.067 1052.5C494.067 1049.23 495.015 1046.76 496.911 1045.08C498.807 1043.4 501.423 1042.56 504.759 1042.56ZM504.759 1047.42C502.407 1047.42 501.231 1048.78 501.231 1051.49V1053.54C501.231 1056.23 502.407 1057.57 504.759 1057.57C507.135 1057.57 508.323 1056.23 508.323 1053.54V1051.49C508.323 1048.78 507.135 1047.42 504.759 1047.42ZM544.755 1062L544.143 1059.3C542.751 1061.39 540.735 1062.43 538.095 1062.43C535.527 1062.43 533.547 1061.59 532.155 1059.91C530.763 1058.23 530.067 1055.75 530.067 1052.46C530.067 1049.2 530.763 1046.74 532.155 1045.08C533.547 1043.4 535.527 1042.56 538.095 1042.56C540.279 1042.56 542.055 1043.29 543.423 1044.76V1035.9H550.587V1062H544.755ZM540.327 1047.85C538.263 1047.85 537.231 1049.09 537.231 1051.56V1053.47C537.231 1055.92 538.263 1057.14 540.327 1057.14C541.383 1057.14 542.175 1056.77 542.703 1056.02C543.231 1055.28 543.495 1054.31 543.495 1053.11V1051.92C543.495 1050.72 543.231 1049.75 542.703 1049C542.175 1048.24 541.383 1047.85 540.327 1047.85ZM555.195 1040.76V1035.9H562.359V1040.76H555.195ZM555.195 1062V1042.99H562.359V1062H555.195ZM575.967 1042.56C578.511 1042.56 580.659 1043.06 582.411 1044.07C584.187 1045.06 585.075 1046.59 585.075 1048.68H578.415C578.415 1047.98 578.103 1047.49 577.479 1047.2C577.047 1046.96 576.507 1046.84 575.859 1046.84C574.131 1046.84 573.267 1047.25 573.267 1048.07C573.267 1048.52 573.567 1048.85 574.167 1049.04C574.767 1049.23 575.751 1049.44 577.119 1049.65C578.799 1049.89 580.203 1050.18 581.331 1050.52C582.459 1050.83 583.443 1051.4 584.283 1052.24C585.123 1053.06 585.543 1054.21 585.543 1055.7C585.543 1058.12 584.631 1059.85 582.807 1060.88C581.007 1061.92 578.643 1062.43 575.715 1062.43C574.035 1062.43 572.451 1062.2 570.963 1061.75C569.475 1061.27 568.263 1060.54 567.327 1059.55C566.391 1058.57 565.923 1057.32 565.923 1055.81H572.583V1055.95C572.607 1056.77 572.943 1057.34 573.591 1057.68C574.263 1057.99 574.971 1058.15 575.715 1058.15C577.707 1058.15 578.703 1057.68 578.703 1056.74C578.703 1056.26 578.391 1055.92 577.767 1055.7C577.143 1055.48 576.123 1055.26 574.707 1055.02C573.003 1054.73 571.599 1054.42 570.495 1054.08C569.415 1053.74 568.467 1053.18 567.651 1052.39C566.835 1051.57 566.427 1050.44 566.427 1049C566.427 1046.68 567.303 1045.02 569.055 1044.04C570.831 1043.05 573.135 1042.56 575.967 1042.56ZM598.767 1042.56C601.887 1042.56 604.407 1043.23 606.327 1044.58C608.271 1045.9 609.243 1047.92 609.243 1050.66H602.295C602.295 1048.5 601.119 1047.42 598.767 1047.42C596.415 1047.42 595.239 1048.78 595.239 1051.49V1053.54C595.239 1056.23 596.463 1057.57 598.911 1057.57C601.359 1057.57 602.583 1056.47 602.583 1054.26H609.243C609.243 1057.02 608.271 1059.07 606.327 1060.42C604.407 1061.76 601.887 1062.43 598.767 1062.43C595.431 1062.43 592.815 1061.59 590.919 1059.91C589.023 1058.23 588.075 1055.76 588.075 1052.5C588.075 1049.23 589.023 1046.76 590.919 1045.08C592.815 1043.4 595.431 1042.56 598.767 1042.56ZM622.779 1042.56C626.115 1042.56 628.731 1043.41 630.627 1045.12C632.547 1046.8 633.507 1049.26 633.507 1052.5C633.507 1055.74 632.547 1058.21 630.627 1059.91C628.731 1061.59 626.115 1062.43 622.779 1062.43C619.443 1062.43 616.827 1061.59 614.931 1059.91C613.035 1058.23 612.087 1055.76 612.087 1052.5C612.087 1049.23 613.035 1046.76 614.931 1045.08C616.827 1043.4 619.443 1042.56 622.779 1042.56ZM622.779 1047.42C620.427 1047.42 619.251 1048.78 619.251 1051.49V1053.54C619.251 1056.23 620.427 1057.57 622.779 1057.57C625.155 1057.57 626.343 1056.23 626.343 1053.54V1051.49C626.343 1048.78 625.155 1047.42 622.779 1047.42ZM640.772 1062L633.572 1042.99H641.276L644.768 1054.84H645.02L648.512 1042.99H655.568L648.296 1062H640.772ZM666.619 1042.56C670.099 1042.56 672.751 1043.38 674.575 1045.01C676.423 1046.64 677.347 1049.14 677.347 1052.5V1053.72H663.091C663.091 1055.09 663.391 1056.12 663.991 1056.82C664.615 1057.51 665.587 1057.86 666.907 1057.86C668.107 1057.86 668.983 1057.61 669.535 1057.1C670.111 1056.6 670.399 1055.93 670.399 1055.09H677.347C677.347 1057.39 676.471 1059.19 674.719 1060.49C672.967 1061.78 670.411 1062.43 667.051 1062.43C663.523 1062.43 660.787 1061.62 658.843 1059.98C656.899 1058.33 655.927 1055.83 655.927 1052.5C655.927 1049.23 656.875 1046.76 658.771 1045.08C660.667 1043.4 663.283 1042.56 666.619 1042.56ZM666.907 1047.13C664.651 1047.13 663.391 1048.2 663.127 1050.34H670.111C670.111 1049.35 669.823 1048.57 669.247 1048C668.695 1047.42 667.915 1047.13 666.907 1047.13ZM692.359 1042.52C692.911 1042.52 693.403 1042.6 693.835 1042.74C694.267 1042.86 694.483 1042.93 694.483 1042.96V1048.97H692.179C690.691 1048.97 689.611 1049.35 688.939 1050.12C688.291 1050.89 687.967 1052.03 687.967 1053.54V1062H680.803V1042.99H686.671L687.139 1045.87C687.571 1044.77 688.255 1043.94 689.191 1043.39C690.127 1042.81 691.183 1042.52 692.359 1042.52ZM721.891 1042.56C724.099 1042.56 725.755 1043.17 726.859 1044.4C727.963 1045.62 728.515 1047.38 728.515 1049.69V1062H721.351V1050.55C721.351 1049.74 721.135 1049.09 720.703 1048.61C720.295 1048.1 719.707 1047.85 718.939 1047.85C718.051 1047.85 717.331 1048.14 716.779 1048.72C716.227 1049.29 715.951 1050 715.951 1050.84V1062H708.787V1042.99H714.655L715.123 1045.87C715.867 1044.86 716.839 1044.06 718.039 1043.46C719.263 1042.86 720.547 1042.56 721.891 1042.56ZM742.627 1042.56C746.107 1042.56 748.759 1043.38 750.583 1045.01C752.431 1046.64 753.355 1049.14 753.355 1052.5V1053.72H739.099C739.099 1055.09 739.399 1056.12 739.999 1056.82C740.623 1057.51 741.595 1057.86 742.915 1057.86C744.115 1057.86 744.991 1057.61 745.543 1057.1C746.119 1056.6 746.407 1055.93 746.407 1055.09H753.355C753.355 1057.39 752.479 1059.19 750.727 1060.49C748.975 1061.78 746.419 1062.43 743.059 1062.43C739.531 1062.43 736.795 1061.62 734.851 1059.98C732.907 1058.33 731.935 1055.83 731.935 1052.5C731.935 1049.23 732.883 1046.76 734.779 1045.08C736.675 1043.4 739.291 1042.56 742.627 1042.56ZM742.915 1047.13C740.659 1047.13 739.399 1048.2 739.135 1050.34H746.119C746.119 1049.35 745.831 1048.57 745.255 1048C744.703 1047.42 743.923 1047.13 742.915 1047.13ZM774.666 1062L771.714 1051.42H771.57L768.582 1062H761.598L754.65 1042.99H762.354L765.234 1054.22H765.486L768.474 1042.99H775.602L778.482 1054.22H778.734L781.65 1042.99H788.634L781.65 1062H774.666ZM814.351 1042.52C814.903 1042.52 815.395 1042.6 815.827 1042.74C816.259 1042.86 816.475 1042.93 816.475 1042.96V1048.97H814.171C812.683 1048.97 811.603 1049.35 810.931 1050.12C810.283 1050.89 809.959 1052.03 809.959 1053.54V1062H802.795V1042.99H808.663L809.131 1045.87C809.563 1044.77 810.247 1043.94 811.183 1043.39C812.119 1042.81 813.175 1042.52 814.351 1042.52ZM829.181 1042.56C832.661 1042.56 835.313 1043.38 837.137 1045.01C838.985 1046.64 839.909 1049.14 839.909 1052.5V1053.72H825.653C825.653 1055.09 825.953 1056.12 826.553 1056.82C827.177 1057.51 828.149 1057.86 829.469 1057.86C830.669 1057.86 831.545 1057.61 832.097 1057.1C832.673 1056.6 832.961 1055.93 832.961 1055.09H839.909C839.909 1057.39 839.033 1059.19 837.281 1060.49C835.529 1061.78 832.973 1062.43 829.613 1062.43C826.085 1062.43 823.349 1061.62 821.405 1059.98C819.461 1058.33 818.489 1055.83 818.489 1052.5C818.489 1049.23 819.437 1046.76 821.333 1045.08C823.229 1043.4 825.845 1042.56 829.181 1042.56ZM829.469 1047.13C827.213 1047.13 825.953 1048.2 825.689 1050.34H832.673C832.673 1049.35 832.385 1048.57 831.809 1048C831.257 1047.42 830.477 1047.13 829.469 1047.13ZM853.193 1042.56C856.313 1042.56 858.833 1043.23 860.753 1044.58C862.697 1045.9 863.669 1047.92 863.669 1050.66H856.721C856.721 1048.5 855.545 1047.42 853.193 1047.42C850.841 1047.42 849.665 1048.78 849.665 1051.49V1053.54C849.665 1056.23 850.889 1057.57 853.337 1057.57C855.785 1057.57 857.009 1056.47 857.009 1054.26H863.669C863.669 1057.02 862.697 1059.07 860.753 1060.42C858.833 1061.76 856.313 1062.43 853.193 1062.43C849.857 1062.43 847.241 1061.59 845.345 1059.91C843.449 1058.23 842.501 1055.76 842.501 1052.5C842.501 1049.23 843.449 1046.76 845.345 1045.08C847.241 1043.4 849.857 1042.56 853.193 1042.56ZM867.629 1040.76V1035.9H874.793V1040.76H867.629ZM867.629 1062V1042.99H874.793V1062H867.629ZM891.893 1042.56C894.461 1042.56 896.441 1043.4 897.833 1045.08C899.225 1046.76 899.921 1049.24 899.921 1052.53C899.921 1055.8 899.225 1058.27 897.833 1059.95C896.441 1061.6 894.461 1062.43 891.893 1062.43C889.685 1062.43 887.909 1061.71 886.565 1060.27V1069.09H879.401V1042.99H885.233L885.845 1045.69C887.237 1043.6 889.253 1042.56 891.893 1042.56ZM889.661 1047.85C888.605 1047.85 887.813 1048.22 887.285 1048.97C886.757 1049.71 886.493 1050.68 886.493 1051.88V1053.07C886.493 1054.27 886.757 1055.26 887.285 1056.02C887.813 1056.77 888.605 1057.14 889.661 1057.14C891.725 1057.14 892.757 1055.9 892.757 1053.43V1051.52C892.757 1049.08 891.725 1047.85 889.661 1047.85ZM913.205 1042.56C916.685 1042.56 919.337 1043.38 921.161 1045.01C923.009 1046.64 923.933 1049.14 923.933 1052.5V1053.72H909.677C909.677 1055.09 909.977 1056.12 910.577 1056.82C911.201 1057.51 912.173 1057.86 913.493 1057.86C914.693 1057.86 915.569 1057.61 916.121 1057.1C916.697 1056.6 916.985 1055.93 916.985 1055.09H923.933C923.933 1057.39 923.057 1059.19 921.305 1060.49C919.553 1061.78 916.997 1062.43 913.637 1062.43C910.109 1062.43 907.373 1061.62 905.429 1059.98C903.485 1058.33 902.513 1055.83 902.513 1052.5C902.513 1049.23 903.461 1046.76 905.357 1045.08C907.253 1043.4 909.869 1042.56 913.205 1042.56ZM913.493 1047.13C911.237 1047.13 909.977 1048.2 909.713 1050.34H916.697C916.697 1049.35 916.409 1048.57 915.833 1048C915.281 1047.42 914.501 1047.13 913.493 1047.13ZM936.425 1042.56C938.969 1042.56 941.117 1043.06 942.869 1044.07C944.645 1045.06 945.533 1046.59 945.533 1048.68H938.873C938.873 1047.98 938.561 1047.49 937.937 1047.2C937.505 1046.96 936.965 1046.84 936.317 1046.84C934.589 1046.84 933.725 1047.25 933.725 1048.07C933.725 1048.52 934.025 1048.85 934.625 1049.04C935.225 1049.23 936.209 1049.44 937.577 1049.65C939.257 1049.89 940.661 1050.18 941.789 1050.52C942.917 1050.83 943.901 1051.4 944.741 1052.24C945.581 1053.06 946.001 1054.21 946.001 1055.7C946.001 1058.12 945.089 1059.85 943.265 1060.88C941.465 1061.92 939.101 1062.43 936.173 1062.43C934.493 1062.43 932.909 1062.2 931.421 1061.75C929.933 1061.27 928.721 1060.54 927.785 1059.55C926.849 1058.57 926.381 1057.32 926.381 1055.81H933.041V1055.95C933.065 1056.77 933.401 1057.34 934.049 1057.68C934.721 1057.99 935.429 1058.15 936.173 1058.15C938.165 1058.15 939.161 1057.68 939.161 1056.74C939.161 1056.26 938.849 1055.92 938.225 1055.7C937.601 1055.48 936.581 1055.26 935.165 1055.02C933.461 1054.73 932.057 1054.42 930.953 1054.08C929.873 1053.74 928.925 1053.18 928.109 1052.39C927.293 1051.57 926.885 1050.44 926.885 1049C926.885 1046.68 927.761 1045.02 929.513 1044.04C931.289 1043.05 933.593 1042.56 936.425 1042.56ZM950.908 1053.14L948.928 1037.23H957.532L955.48 1053.14H950.908ZM949.648 1062V1055.34H956.776V1062H949.648Z" fill="#90F1B7"/>
<line y1="1272" x2="1440" y2="1272" stroke="#FAAB78" stroke-width="2"/>
<g clip-path="url(#clip1_287_100)">
<path d="M680 1230.13C680 1218.53 670.597 1209.13 659 1209.13C647.403 1209.13 638 1218.53 638 1230.13C638 1240.61 645.679 1249.3 655.719 1250.87V1236.2H650.387V1230.13H655.719V1225.5C655.719 1220.24 658.855 1217.33 663.651 1217.33C665.948 1217.33 668.352 1217.74 668.352 1217.74V1222.91H665.702C663.093 1222.91 662.279 1224.53 662.279 1226.19V1230.13H668.103L667.173 1236.2H662.279V1250.87C672.321 1249.3 680 1240.61 680 1230.13Z" fill="white"/>
</g>
<path d="M740.918 1217C739.345 1217.69 737.68 1218.15 735.974 1218.35C737.77 1217.27 739.114 1215.58 739.759 1213.59C738.095 1214.56 736.25 1215.27 734.287 1215.66C732.992 1214.28 731.275 1213.36 729.404 1213.05C727.533 1212.74 725.612 1213.05 723.939 1213.95C722.267 1214.84 720.936 1216.26 720.154 1217.99C719.372 1219.72 719.183 1221.66 719.615 1223.5C712.457 1223.17 706.117 1219.73 701.87 1214.53C701.098 1215.85 700.695 1217.34 700.704 1218.86C700.704 1221.86 702.227 1224.49 704.533 1226.03C703.167 1225.99 701.83 1225.62 700.635 1224.95V1225.06C700.634 1227.05 701.321 1228.98 702.58 1230.52C703.838 1232.06 705.591 1233.11 707.54 1233.51C706.277 1233.85 704.954 1233.9 703.669 1233.66C704.222 1235.37 705.296 1236.86 706.74 1237.94C708.185 1239.01 709.928 1239.6 711.726 1239.64C708.68 1242.03 704.919 1243.32 701.047 1243.32C700.365 1243.32 699.684 1243.28 699 1243.2C702.947 1245.73 707.537 1247.07 712.225 1247.07C728.068 1247.07 736.721 1233.95 736.721 1222.59C736.721 1222.23 736.721 1221.86 736.695 1221.49C738.385 1220.28 739.844 1218.76 741 1217.03L740.918 1217Z" fill="white"/>
<g clip-path="url(#clip2_287_100)">
<path d="M781 1209C775.295 1209 774.583 1209.03 772.343 1209.13C770.106 1209.23 768.584 1209.58 767.245 1210.1C765.864 1210.64 764.692 1211.36 763.524 1212.52C762.357 1213.69 761.636 1214.86 761.102 1216.24C760.583 1217.58 760.229 1219.11 760.126 1221.34C760.021 1223.58 760 1224.3 760 1230C760 1235.7 760.026 1236.42 760.126 1238.66C760.231 1240.89 760.583 1242.42 761.102 1243.76C761.638 1245.13 762.357 1246.31 763.524 1247.48C764.692 1248.64 765.862 1249.36 767.245 1249.9C768.585 1250.42 770.108 1250.77 772.343 1250.87C774.583 1250.98 775.295 1251 781 1251C786.705 1251 787.417 1250.97 789.657 1250.87C791.892 1250.77 793.416 1250.42 794.755 1249.9C796.134 1249.36 797.308 1248.64 798.476 1247.48C799.641 1246.31 800.364 1245.14 800.898 1243.76C801.416 1242.42 801.771 1240.89 801.874 1238.66C801.979 1236.42 802 1235.7 802 1230C802 1224.3 801.974 1223.58 801.874 1221.34C801.769 1219.11 801.416 1217.58 800.898 1216.24C800.362 1214.86 799.641 1213.69 798.476 1212.52C797.308 1211.36 796.139 1210.64 794.755 1210.1C793.416 1209.58 791.892 1209.23 789.657 1209.13C787.417 1209.02 786.705 1209 781 1209ZM781 1212.78C786.605 1212.78 787.274 1212.81 789.488 1212.9C791.535 1213 792.646 1213.34 793.385 1213.63C794.368 1214.01 795.065 1214.47 795.803 1215.2C796.536 1215.93 796.991 1216.63 797.371 1217.62C797.658 1218.35 798.001 1219.47 798.094 1221.51C798.194 1223.73 798.216 1224.39 798.216 1230C798.216 1235.61 798.19 1236.27 798.087 1238.49C797.98 1240.54 797.639 1241.65 797.35 1242.38C796.958 1243.37 796.512 1244.06 795.777 1244.8C795.044 1245.54 794.335 1245.99 793.362 1246.37C792.627 1246.66 791.498 1247 789.451 1247.09C787.221 1247.19 786.565 1247.22 780.948 1247.22C775.328 1247.22 774.672 1247.19 772.444 1247.09C770.395 1246.98 769.266 1246.64 768.531 1246.35C767.535 1245.96 766.851 1245.51 766.118 1244.78C765.381 1244.04 764.91 1243.33 764.543 1242.36C764.254 1241.63 763.915 1240.5 763.808 1238.45C763.729 1236.25 763.701 1235.56 763.701 1229.97C763.701 1224.38 763.729 1223.7 763.808 1221.47C763.915 1219.42 764.254 1218.29 764.543 1217.56C764.91 1216.56 765.381 1215.88 766.118 1215.14C766.851 1214.41 767.535 1213.94 768.531 1213.57C769.266 1213.28 770.371 1212.94 772.418 1212.83C774.649 1212.75 775.305 1212.73 780.921 1212.73L781 1212.78V1212.78ZM781 1219.22C775.041 1219.22 770.216 1224.05 770.216 1230C770.216 1235.96 775.047 1240.78 781 1240.78C786.959 1240.78 791.784 1235.95 791.784 1230C791.784 1224.04 786.953 1219.22 781 1219.22ZM781 1237C777.132 1237 774 1233.87 774 1230C774 1226.13 777.132 1223 781 1223C784.868 1223 788 1226.13 788 1230C788 1233.87 784.868 1237 781 1237ZM794.731 1218.79C794.731 1220.18 793.6 1221.31 792.211 1221.31C790.819 1221.31 789.69 1220.18 789.69 1218.79C789.69 1217.4 790.821 1216.27 792.211 1216.27C793.598 1216.27 794.731 1217.4 794.731 1218.79Z" fill="white"/>
</g>
<line x1="601" y1="1230.5" x2="445" y2="1230.5" stroke="white"/>
<line x1="1000" y1="1230.5" x2="844" y2="1230.5" stroke="white"/>
</g>
<path d="M1388.31 65.1993L1389.7 68.2663C1390.11 69.1793 1390.79 69.955 1391.64 70.4994C1392.49 71.0438 1393.49 71.3335 1394.5 71.3333C1395.52 71.3335 1396.52 71.0438 1397.37 70.4994C1398.22 69.955 1398.89 69.1793 1399.31 68.2663L1400.7 65.1993C1401.19 64.111 1402.02 63.2037 1403.07 62.6067C1404.13 62.008 1405.35 61.753 1406.56 61.8781L1409.96 62.2333C1410.97 62.3384 1411.99 62.153 1412.89 61.6998C1413.8 61.2465 1414.55 60.5447 1415.06 59.6796C1415.57 58.815 1415.81 57.824 1415.76 56.8267C1415.71 55.8295 1415.36 54.8689 1414.76 54.0615L1412.75 51.347C1412.03 50.3733 1411.65 49.2012 1411.66 48C1411.66 46.802 1412.04 45.6348 1412.76 44.6659L1414.77 41.9515C1415.37 41.1441 1415.72 40.1835 1415.77 39.1862C1415.82 38.189 1415.58 37.1979 1415.07 36.3333C1414.56 35.4682 1413.81 34.7665 1412.91 34.3132C1412 33.8599 1410.98 33.6746 1409.97 33.7796L1406.57 34.1348C1405.36 34.2599 1404.14 34.0049 1403.08 33.4063C1402.03 32.8059 1401.2 31.8938 1400.71 30.8007L1399.31 27.7337C1398.89 26.8207 1398.22 26.045 1397.37 25.5006C1396.52 24.9562 1395.52 24.6665 1394.5 24.6667C1393.49 24.6665 1392.49 24.9562 1391.64 25.5006C1390.79 26.045 1390.11 26.8207 1389.7 27.7337L1388.31 30.8007C1387.82 31.8938 1386.99 32.8059 1385.94 33.4063C1384.88 34.0049 1383.66 34.2599 1382.45 34.1348L1379.04 33.7796C1378.03 33.6746 1377.01 33.8599 1376.1 34.3132C1375.2 34.7665 1374.44 35.4682 1373.94 36.3333C1373.43 37.1979 1373.19 38.189 1373.24 39.1862C1373.29 40.1835 1373.64 41.1441 1374.24 41.9515L1376.25 44.6659C1376.97 45.6348 1377.35 46.802 1377.35 48C1377.35 49.198 1376.97 50.3652 1376.25 51.3341L1374.24 54.0485C1373.64 54.8559 1373.29 55.8165 1373.24 56.8138C1373.19 57.811 1373.43 58.8021 1373.94 59.6667C1374.45 60.5313 1375.2 61.2327 1376.1 61.6859C1377.01 62.1391 1378.03 62.3248 1379.04 62.2204L1382.44 61.8652C1383.65 61.74 1384.87 61.995 1385.93 62.5937C1386.98 63.1924 1387.82 64.1046 1388.31 65.1993Z" stroke="#FAAB78" stroke-width="2" stroke-linecap="round" stroke-linejoin="round"/>
<path d="M1394.5 55C1398.44 55 1401.63 51.866 1401.63 48C1401.63 44.134 1398.44 41 1394.5 41C1390.57 41 1387.38 44.134 1387.38 48C1387.38 51.866 1390.57 55 1394.5 55Z" stroke="#FAAB78" stroke-width="2" stroke-linecap="round" stroke-linejoin="round"/>
<defs>
<clipPath id="clip0_287_100">
<rect width="1440" height="1293" fill="white"/>
</clipPath>
<clipPath id="clip1_287_100">
<rect width="42" height="42" fill="white" transform="translate(638 1209)"/>
</clipPath>
<clipPath id="clip2_287_100">
<rect width="42" height="42" fill="white" transform="translate(760 1209)"/>
</clipPath>
</defs>
</svg>
