<svg width="375" height="677" viewBox="0 0 375 677" fill="none" xmlns="http://www.w3.org/2000/svg">
<rect width="375" height="677" fill="#3D002A"/>
<path d="M98.734 306.432C98.734 309.719 97.8833 312.735 96.182 315.48C94.4807 318.225 92.006 320.468 88.758 322.208C85.51 323.948 81.6433 324.973 77.158 325.282L74.664 339.26C73.6973 344.635 71.068 347.322 66.776 347.322C64.4173 347.322 62.2327 346.626 60.222 345.234C58.25 343.842 56.6647 341.715 55.466 338.854C54.2673 335.993 53.668 332.474 53.668 328.298C53.668 320.449 54.9247 313.798 57.438 308.346C59.99 302.855 63.3927 298.757 67.646 296.05C71.938 293.305 76.6553 291.932 81.798 291.932C85.4327 291.932 88.5067 292.57 91.02 293.846C93.572 295.122 95.486 296.862 96.762 299.066C98.0767 301.231 98.734 303.687 98.734 306.432ZM78.202 319.308C86.1287 318.303 90.092 314.185 90.092 306.954C90.092 304.402 89.2413 302.333 87.54 300.748C85.8773 299.124 83.2867 298.312 79.768 298.312C75.7853 298.312 72.3053 299.569 69.328 302.082C66.3893 304.595 64.108 308.095 62.484 312.58C60.8987 317.027 60.106 322.111 60.106 327.834C60.106 330.231 60.338 332.358 60.802 334.214C61.3047 336.07 61.9233 337.52 62.658 338.564C63.4313 339.569 64.166 340.072 64.862 340.072C65.8287 340.072 66.5633 338.738 67.066 336.07L68.98 325.108C67.472 324.876 66.8147 324.779 67.008 324.818C65.848 324.625 65.094 324.277 64.746 323.774C64.398 323.233 64.224 322.556 64.224 321.744C64.224 320.893 64.456 320.217 64.92 319.714C65.4227 319.211 66.0993 318.96 66.95 318.96C67.3367 318.96 67.6267 318.979 67.82 319.018C68.748 319.173 69.4633 319.269 69.966 319.308C70.4687 316.292 71.184 312.251 72.112 307.186C72.344 305.871 72.866 304.943 73.678 304.402C74.5287 303.822 75.5147 303.532 76.636 303.532C77.912 303.532 78.8207 303.783 79.362 304.286C79.942 304.75 80.232 305.504 80.232 306.548C80.232 307.167 80.1933 307.669 80.116 308.056L78.202 319.308ZM101.119 341.29C99.6495 341.29 98.6055 340.517 97.9868 338.97C97.4068 337.423 97.1168 334.949 97.1168 331.546C97.1168 326.519 97.8321 321.744 99.2628 317.22C99.6108 316.099 100.171 315.287 100.945 314.784C101.757 314.243 102.878 313.972 104.309 313.972C105.082 313.972 105.623 314.069 105.933 314.262C106.242 314.455 106.397 314.823 106.397 315.364C106.397 315.983 106.107 317.375 105.527 319.54C105.14 321.087 104.831 322.44 104.599 323.6C104.367 324.76 104.173 326.191 104.019 327.892C105.295 324.567 106.725 321.86 108.311 319.772C109.896 317.684 111.443 316.195 112.951 315.306C114.497 314.417 115.909 313.972 117.185 313.972C119.698 313.972 120.955 315.229 120.955 317.742C120.955 318.245 120.781 319.463 120.433 321.396C120.123 322.943 119.969 323.909 119.969 324.296C119.969 325.649 120.452 326.326 121.419 326.326C122.501 326.326 123.893 325.475 125.595 323.774C126.097 323.271 126.619 323.02 127.161 323.02C127.663 323.02 128.05 323.252 128.321 323.716C128.63 324.141 128.785 324.721 128.785 325.456C128.785 326.887 128.398 328.008 127.625 328.82C126.542 329.941 125.266 330.908 123.797 331.72C122.366 332.493 120.839 332.88 119.215 332.88C117.165 332.88 115.599 332.358 114.517 331.314C113.473 330.27 112.951 328.859 112.951 327.08C112.951 326.5 113.009 325.92 113.125 325.34C113.202 324.567 113.241 324.045 113.241 323.774C113.241 323.155 113.028 322.846 112.603 322.846C112.023 322.846 111.249 323.503 110.283 324.818C109.355 326.094 108.427 327.795 107.499 329.922C106.571 332.049 105.817 334.291 105.237 336.65C104.811 338.467 104.309 339.705 103.729 340.362C103.187 340.981 102.317 341.29 101.119 341.29ZM130.993 310.144C129.369 310.144 128.151 309.777 127.339 309.042C126.527 308.269 126.121 307.205 126.121 305.852C126.121 304.499 126.643 303.377 127.687 302.488C128.77 301.56 130.104 301.096 131.689 301.096C133.12 301.096 134.28 301.444 135.169 302.14C136.059 302.836 136.503 303.822 136.503 305.098C136.503 306.645 136.001 307.882 134.995 308.81C133.99 309.699 132.656 310.144 130.993 310.144ZM130.529 341.29C128.016 341.29 126.179 340.401 125.019 338.622C123.898 336.843 123.337 334.485 123.337 331.546C123.337 329.806 123.55 327.583 123.975 324.876C124.439 322.131 125.019 319.579 125.715 317.22C126.063 315.983 126.527 315.132 127.107 314.668C127.687 314.204 128.615 313.972 129.891 313.972C131.863 313.972 132.849 314.629 132.849 315.944C132.849 316.911 132.482 319.153 131.747 322.672C130.819 326.925 130.355 329.806 130.355 331.314C130.355 332.474 130.51 333.363 130.819 333.982C131.129 334.601 131.651 334.91 132.385 334.91C133.081 334.91 133.951 334.427 134.995 333.46C136.039 332.493 137.431 330.966 139.171 328.878C139.635 328.337 140.157 328.066 140.737 328.066C141.24 328.066 141.627 328.298 141.897 328.762C142.207 329.226 142.361 329.864 142.361 330.676C142.361 332.223 141.994 333.421 141.259 334.272C137.431 338.951 133.855 341.29 130.529 341.29ZM141.787 341.29C140.317 341.29 139.273 340.517 138.655 338.97C138.075 337.423 137.785 334.949 137.785 331.546C137.785 326.519 138.5 321.744 139.931 317.22C140.279 316.099 140.839 315.287 141.613 314.784C142.425 314.243 143.546 313.972 144.977 313.972C145.75 313.972 146.291 314.069 146.601 314.262C146.91 314.455 147.065 314.823 147.065 315.364C147.065 315.983 146.775 317.375 146.195 319.54C145.808 321.087 145.499 322.44 145.267 323.6C145.035 324.721 144.841 326.133 144.687 327.834C145.731 324.818 146.968 322.266 148.399 320.178C149.868 318.09 151.357 316.543 152.865 315.538C154.411 314.494 155.861 313.972 157.215 313.972C158.568 313.972 159.515 314.281 160.057 314.9C160.637 315.519 160.927 316.466 160.927 317.742C160.927 318.979 160.559 321.222 159.825 324.47C159.515 325.862 159.303 326.906 159.187 327.602C161.12 322.846 163.266 319.385 165.625 317.22C167.983 315.055 170.187 313.972 172.237 313.972C174.75 313.972 176.007 315.229 176.007 317.742C176.007 319.25 175.581 321.976 174.731 325.92C173.996 329.284 173.629 331.507 173.629 332.59C173.629 334.137 174.189 334.91 175.311 334.91C176.084 334.91 176.993 334.446 178.037 333.518C179.119 332.551 180.55 331.005 182.329 328.878C182.793 328.337 183.315 328.066 183.895 328.066C184.397 328.066 184.784 328.298 185.055 328.762C185.364 329.226 185.519 329.864 185.519 330.676C185.519 332.223 185.151 333.421 184.417 334.272C182.754 336.321 180.956 338.003 179.023 339.318C177.128 340.633 174.963 341.29 172.527 341.29C170.555 341.29 169.066 340.729 168.061 339.608C167.055 338.448 166.553 336.785 166.553 334.62C166.553 333.537 166.823 331.604 167.365 328.82C167.867 326.384 168.119 324.702 168.119 323.774C168.119 323.155 167.906 322.846 167.481 322.846C166.978 322.846 166.263 323.503 165.335 324.818C164.407 326.094 163.479 327.795 162.551 329.922C161.623 332.049 160.869 334.291 160.289 336.65C159.863 338.506 159.361 339.743 158.781 340.362C158.239 340.981 157.35 341.29 156.113 341.29C154.837 341.29 153.87 340.691 153.213 339.492C152.594 338.255 152.285 336.766 152.285 335.026C152.285 333.557 152.478 331.43 152.865 328.646C153.174 326.171 153.329 324.547 153.329 323.774C153.329 323.155 153.116 322.846 152.691 322.846C152.111 322.846 151.376 323.542 150.487 324.934C149.597 326.326 148.727 328.105 147.877 330.27C147.065 332.435 146.407 334.562 145.905 336.65C145.479 338.467 144.977 339.705 144.397 340.362C143.855 340.981 142.985 341.29 141.787 341.29ZM210.409 323.194C210.912 323.194 211.298 323.445 211.569 323.948C211.84 324.451 211.975 325.089 211.975 325.862C211.975 327.718 211.414 328.82 210.293 329.168C207.973 329.98 205.421 330.444 202.637 330.56C201.902 333.808 200.452 336.418 198.287 338.39C196.122 340.323 193.666 341.29 190.921 341.29C188.601 341.29 186.61 340.729 184.947 339.608C183.323 338.487 182.086 336.998 181.235 335.142C180.384 333.286 179.959 331.275 179.959 329.11C179.959 326.171 180.52 323.561 181.641 321.28C182.762 318.96 184.309 317.162 186.281 315.886C188.253 314.571 190.438 313.914 192.835 313.914C195.774 313.914 198.132 314.939 199.911 316.988C201.728 318.999 202.792 321.493 203.101 324.47C204.918 324.354 207.084 323.967 209.597 323.31C209.906 323.233 210.177 323.194 210.409 323.194ZM191.385 335.142C192.622 335.142 193.686 334.639 194.575 333.634C195.503 332.629 196.122 331.179 196.431 329.284C195.232 328.472 194.304 327.409 193.647 326.094C193.028 324.779 192.719 323.387 192.719 321.918C192.719 321.299 192.777 320.681 192.893 320.062H192.603C191.056 320.062 189.761 320.816 188.717 322.324C187.712 323.793 187.209 325.881 187.209 328.588C187.209 330.715 187.615 332.339 188.427 333.46C189.278 334.581 190.264 335.142 191.385 335.142ZM211.115 341.29C209.646 341.29 208.602 340.517 207.983 338.97C207.403 337.423 207.113 334.949 207.113 331.546C207.113 326.519 207.828 321.744 209.259 317.22C209.607 316.099 210.168 315.287 210.941 314.784C211.753 314.243 212.874 313.972 214.305 313.972C215.078 313.972 215.62 314.069 215.929 314.262C216.238 314.455 216.393 314.823 216.393 315.364C216.393 315.983 216.103 317.375 215.523 319.54C215.136 321.087 214.827 322.44 214.595 323.6C214.363 324.76 214.17 326.191 214.015 327.892C215.291 324.567 216.722 321.86 218.307 319.772C219.892 317.684 221.439 316.195 222.947 315.306C224.494 314.417 225.905 313.972 227.181 313.972C229.694 313.972 230.951 315.229 230.951 317.742C230.951 318.245 230.777 319.463 230.429 321.396C230.12 322.943 229.965 323.909 229.965 324.296C229.965 325.649 230.448 326.326 231.415 326.326C232.498 326.326 233.89 325.475 235.591 323.774C236.094 323.271 236.616 323.02 237.157 323.02C237.66 323.02 238.046 323.252 238.317 323.716C238.626 324.141 238.781 324.721 238.781 325.456C238.781 326.887 238.394 328.008 237.621 328.82C236.538 329.941 235.262 330.908 233.793 331.72C232.362 332.493 230.835 332.88 229.211 332.88C227.162 332.88 225.596 332.358 224.513 331.314C223.469 330.27 222.947 328.859 222.947 327.08C222.947 326.5 223.005 325.92 223.121 325.34C223.198 324.567 223.237 324.045 223.237 323.774C223.237 323.155 223.024 322.846 222.599 322.846C222.019 322.846 221.246 323.503 220.279 324.818C219.351 326.094 218.423 327.795 217.495 329.922C216.567 332.049 215.813 334.291 215.233 336.65C214.808 338.467 214.305 339.705 213.725 340.362C213.184 340.981 212.314 341.29 211.115 341.29ZM266.335 328.066C266.838 328.066 267.225 328.298 267.495 328.762C267.805 329.226 267.959 329.864 267.959 330.676C267.959 332.223 267.592 333.421 266.857 334.272C265.272 336.205 263.532 337.868 261.637 339.26C259.743 340.613 257.867 341.29 256.011 341.29C253.073 341.29 250.83 339.569 249.283 336.128C247.659 338.177 246.229 339.55 244.991 340.246C243.793 340.942 242.381 341.29 240.757 341.29C238.399 341.29 236.446 340.42 234.899 338.68C233.391 336.901 232.637 334.601 232.637 331.778C232.637 328.685 233.295 325.823 234.609 323.194C235.924 320.526 237.722 318.361 240.003 316.698C242.323 314.997 244.914 313.991 247.775 313.682C248.51 306.181 249.902 299.781 251.951 294.484C254.039 289.148 256.765 286.48 260.129 286.48C261.792 286.48 263.165 287.234 264.247 288.742C265.369 290.25 265.929 292.531 265.929 295.586C265.929 299.917 264.866 304.982 262.739 310.782C260.613 316.582 257.771 322.537 254.213 328.646C254.368 330.889 254.697 332.493 255.199 333.46C255.741 334.427 256.417 334.91 257.229 334.91C258.273 334.91 259.337 334.446 260.419 333.518C261.502 332.59 262.952 331.043 264.769 328.878C265.233 328.337 265.755 328.066 266.335 328.066ZM259.491 292.164C258.757 292.164 258.022 293.479 257.287 296.108C256.553 298.699 255.915 302.101 255.373 306.316C254.871 310.531 254.503 314.939 254.271 319.54C258.602 310.105 260.767 302.527 260.767 296.804C260.767 295.335 260.632 294.194 260.361 293.382C260.129 292.57 259.839 292.164 259.491 292.164ZM242.787 335.432C243.522 335.432 244.257 335.142 244.991 334.562C245.726 333.943 246.654 332.822 247.775 331.198C247.389 329.11 247.195 326.771 247.195 324.18C247.195 323.252 247.234 321.744 247.311 319.656C245.185 320.313 243.406 321.744 241.975 323.948C240.583 326.113 239.887 328.53 239.887 331.198C239.887 334.021 240.854 335.432 242.787 335.432ZM270.839 310.144C269.215 310.144 267.997 309.777 267.185 309.042C266.373 308.269 265.967 307.205 265.967 305.852C265.967 304.499 266.489 303.377 267.533 302.488C268.616 301.56 269.95 301.096 271.535 301.096C272.966 301.096 274.126 301.444 275.015 302.14C275.904 302.836 276.349 303.822 276.349 305.098C276.349 306.645 275.846 307.882 274.841 308.81C273.836 309.699 272.502 310.144 270.839 310.144ZM270.375 341.29C267.862 341.29 266.025 340.401 264.865 338.622C263.744 336.843 263.183 334.485 263.183 331.546C263.183 329.806 263.396 327.583 263.821 324.876C264.285 322.131 264.865 319.579 265.561 317.22C265.909 315.983 266.373 315.132 266.953 314.668C267.533 314.204 268.461 313.972 269.737 313.972C271.709 313.972 272.695 314.629 272.695 315.944C272.695 316.911 272.328 319.153 271.593 322.672C270.665 326.925 270.201 329.806 270.201 331.314C270.201 332.474 270.356 333.363 270.665 333.982C270.974 334.601 271.496 334.91 272.231 334.91C272.927 334.91 273.797 334.427 274.841 333.46C275.885 332.493 277.277 330.966 279.017 328.878C279.481 328.337 280.003 328.066 280.583 328.066C281.086 328.066 281.472 328.298 281.743 328.762C282.052 329.226 282.207 329.864 282.207 330.676C282.207 332.223 281.84 333.421 281.105 334.272C277.277 338.951 273.7 341.29 270.375 341.29ZM284.648 341.29C282.251 341.29 280.337 340.42 278.906 338.68C277.476 336.94 276.76 334.659 276.76 331.836C276.76 328.743 277.476 325.823 278.906 323.078C280.337 320.294 282.232 318.071 284.59 316.408C286.988 314.707 289.52 313.856 292.188 313.856C293.039 313.856 293.6 314.03 293.87 314.378C294.18 314.687 294.431 315.267 294.624 316.118C295.436 315.963 296.287 315.886 297.176 315.886C299.071 315.886 300.018 316.563 300.018 317.916C300.018 318.728 299.728 320.661 299.148 323.716C298.259 328.163 297.814 331.256 297.814 332.996C297.814 333.576 297.95 334.04 298.22 334.388C298.53 334.736 298.916 334.91 299.38 334.91C300.115 334.91 301.004 334.446 302.048 333.518C303.092 332.551 304.504 331.005 306.282 328.878C306.746 328.337 307.268 328.066 307.848 328.066C308.351 328.066 308.738 328.298 309.008 328.762C309.318 329.226 309.472 329.864 309.472 330.676C309.472 332.223 309.105 333.421 308.37 334.272C306.785 336.244 305.103 337.907 303.324 339.26C301.546 340.613 299.825 341.29 298.162 341.29C296.886 341.29 295.707 340.865 294.624 340.014C293.58 339.125 292.788 337.926 292.246 336.418C290.236 339.666 287.703 341.29 284.648 341.29ZM286.736 335.432C287.587 335.432 288.399 334.929 289.172 333.924C289.946 332.919 290.506 331.585 290.854 329.922L293 319.25C291.376 319.289 289.868 319.907 288.476 321.106C287.123 322.266 286.04 323.813 285.228 325.746C284.416 327.679 284.01 329.729 284.01 331.894C284.01 333.093 284.242 333.982 284.706 334.562C285.209 335.142 285.886 335.432 286.736 335.432ZM321.521 332.822C321.946 332.435 322.371 332.242 322.797 332.242C323.261 332.242 323.628 332.513 323.899 333.054C324.208 333.557 324.363 334.175 324.363 334.91C324.363 336.534 323.783 337.829 322.623 338.796C320.612 340.459 318.331 341.29 315.779 341.29C312.105 341.29 309.418 339.763 307.717 336.708C306.015 333.615 305.165 329.593 305.165 324.644C305.165 319.927 305.764 314.552 306.963 308.52C308.2 302.488 309.998 297.307 312.357 292.976C314.754 288.645 317.596 286.48 320.883 286.48C322.739 286.48 324.189 287.35 325.233 289.09C326.315 290.791 326.857 293.247 326.857 296.456C326.857 301.057 325.581 306.393 323.029 312.464C320.515 318.535 317.074 324.528 312.705 330.444C312.975 332.029 313.459 333.17 314.155 333.866C314.851 334.562 315.798 334.91 316.997 334.91C317.654 334.91 318.389 334.717 319.201 334.33C320.051 333.943 320.825 333.441 321.521 332.822ZM319.607 292.222C318.717 292.222 317.712 293.827 316.591 297.036C315.469 300.245 314.483 304.228 313.633 308.984C312.782 313.74 312.318 318.303 312.241 322.672C314.986 318.148 317.171 313.624 318.795 309.1C320.419 304.537 321.231 300.381 321.231 296.63C321.231 293.691 320.689 292.222 319.607 292.222Z" fill="#FF9933"/>
<rect x="126" y="367" width="120" height="45" rx="10" fill="#9999FF"/>
<path d="M168.948 395V384.091H173.252C174.08 384.091 174.784 384.249 175.367 384.565C175.949 384.877 176.393 385.312 176.699 385.87C177.007 386.424 177.162 387.063 177.162 387.788C177.162 388.512 177.006 389.151 176.693 389.705C176.381 390.259 175.928 390.691 175.335 391C174.745 391.309 174.032 391.463 173.194 391.463H170.45V389.615H172.821C173.265 389.615 173.63 389.538 173.918 389.386C174.209 389.229 174.426 389.015 174.568 388.741C174.713 388.464 174.786 388.146 174.786 387.788C174.786 387.425 174.713 387.109 174.568 386.839C174.426 386.566 174.209 386.355 173.918 386.206C173.627 386.053 173.257 385.977 172.81 385.977H171.255V395H168.948ZM178.66 395V384.091H180.967V393.098H185.643V395H178.66ZM189.329 395H186.858L190.624 384.091H193.596L197.357 395H194.885L192.153 386.584H192.067L189.329 395ZM189.175 390.712H195.013V392.512H189.175V390.712ZM196.917 384.091H199.501L201.988 388.789H202.095L204.582 384.091H207.166L203.187 391.143V395H200.896V391.143L196.917 384.091Z" fill="white"/>
</svg>
