<svg width="1722" height="982" viewBox="0 0 1722 982" fill="none" xmlns="http://www.w3.org/2000/svg">
<rect width="1722" height="982" fill="#3D002A"/>
<path d="M692.53 434.44C692.53 440.673 690.917 446.393 687.69 451.6C684.463 456.807 679.77 461.06 673.61 464.36C667.45 467.66 660.117 469.603 651.61 470.19L646.88 496.7C645.047 506.893 640.06 511.99 631.92 511.99C627.447 511.99 623.303 510.67 619.49 508.03C615.75 505.39 612.743 501.357 610.47 495.93C608.197 490.503 607.06 483.83 607.06 475.91C607.06 461.023 609.443 448.41 614.21 438.07C619.05 427.657 625.503 419.883 633.57 414.75C641.71 409.543 650.657 406.94 660.41 406.94C667.303 406.94 673.133 408.15 677.9 410.57C682.74 412.99 686.37 416.29 688.79 420.47C691.283 424.577 692.53 429.233 692.53 434.44ZM653.59 458.86C668.623 456.953 676.14 449.143 676.14 435.43C676.14 430.59 674.527 426.667 671.3 423.66C668.147 420.58 663.233 419.04 656.56 419.04C649.007 419.04 642.407 421.423 636.76 426.19C631.187 430.957 626.86 437.593 623.78 446.1C620.773 454.533 619.27 464.177 619.27 475.03C619.27 479.577 619.71 483.61 620.59 487.13C621.543 490.65 622.717 493.4 624.11 495.38C625.577 497.287 626.97 498.24 628.29 498.24C630.123 498.24 631.517 495.71 632.47 490.65L636.1 469.86C633.24 469.42 631.993 469.237 632.36 469.31C630.16 468.943 628.73 468.283 628.07 467.33C627.41 466.303 627.08 465.02 627.08 463.48C627.08 461.867 627.52 460.583 628.4 459.63C629.353 458.677 630.637 458.2 632.25 458.2C632.983 458.2 633.533 458.237 633.9 458.31C635.66 458.603 637.017 458.787 637.97 458.86C638.923 453.14 640.28 445.477 642.04 435.87C642.48 433.377 643.47 431.617 645.01 430.59C646.623 429.49 648.493 428.94 650.62 428.94C653.04 428.94 654.763 429.417 655.79 430.37C656.89 431.25 657.44 432.68 657.44 434.66C657.44 435.833 657.367 436.787 657.22 437.52L653.59 458.86ZM697.053 500.55C694.266 500.55 692.286 499.083 691.113 496.15C690.013 493.217 689.463 488.523 689.463 482.07C689.463 472.537 690.82 463.48 693.533 454.9C694.193 452.773 695.256 451.233 696.723 450.28C698.263 449.253 700.39 448.74 703.103 448.74C704.57 448.74 705.596 448.923 706.183 449.29C706.77 449.657 707.063 450.353 707.063 451.38C707.063 452.553 706.513 455.193 705.413 459.3C704.68 462.233 704.093 464.8 703.653 467C703.213 469.2 702.846 471.913 702.553 475.14C704.973 468.833 707.686 463.7 710.693 459.74C713.7 455.78 716.633 452.957 719.493 451.27C722.426 449.583 725.103 448.74 727.523 448.74C732.29 448.74 734.673 451.123 734.673 455.89C734.673 456.843 734.343 459.153 733.683 462.82C733.096 465.753 732.803 467.587 732.803 468.32C732.803 470.887 733.72 472.17 735.553 472.17C737.606 472.17 740.246 470.557 743.473 467.33C744.426 466.377 745.416 465.9 746.443 465.9C747.396 465.9 748.13 466.34 748.643 467.22C749.23 468.027 749.523 469.127 749.523 470.52C749.523 473.233 748.79 475.36 747.323 476.9C745.27 479.027 742.85 480.86 740.063 482.4C737.35 483.867 734.453 484.6 731.373 484.6C727.486 484.6 724.516 483.61 722.463 481.63C720.483 479.65 719.493 476.973 719.493 473.6C719.493 472.5 719.603 471.4 719.823 470.3C719.97 468.833 720.043 467.843 720.043 467.33C720.043 466.157 719.64 465.57 718.833 465.57C717.733 465.57 716.266 466.817 714.433 469.31C712.673 471.73 710.913 474.957 709.153 478.99C707.393 483.023 705.963 487.277 704.863 491.75C704.056 495.197 703.103 497.543 702.003 498.79C700.976 499.963 699.326 500.55 697.053 500.55ZM753.711 441.48C750.631 441.48 748.321 440.783 746.781 439.39C745.241 437.923 744.471 435.907 744.471 433.34C744.471 430.773 745.461 428.647 747.441 426.96C749.495 425.2 752.025 424.32 755.031 424.32C757.745 424.32 759.945 424.98 761.631 426.3C763.318 427.62 764.161 429.49 764.161 431.91C764.161 434.843 763.208 437.19 761.301 438.95C759.395 440.637 756.865 441.48 753.711 441.48ZM752.831 500.55C748.065 500.55 744.581 498.863 742.381 495.49C740.255 492.117 739.191 487.643 739.191 482.07C739.191 478.77 739.595 474.553 740.401 469.42C741.281 464.213 742.381 459.373 743.701 454.9C744.361 452.553 745.241 450.94 746.341 450.06C747.441 449.18 749.201 448.74 751.621 448.74C755.361 448.74 757.231 449.987 757.231 452.48C757.231 454.313 756.535 458.567 755.141 465.24C753.381 473.307 752.501 478.77 752.501 481.63C752.501 483.83 752.795 485.517 753.381 486.69C753.968 487.863 754.958 488.45 756.351 488.45C757.671 488.45 759.321 487.533 761.301 485.7C763.281 483.867 765.921 480.97 769.221 477.01C770.101 475.983 771.091 475.47 772.191 475.47C773.145 475.47 773.878 475.91 774.391 476.79C774.978 477.67 775.271 478.88 775.271 480.42C775.271 483.353 774.575 485.627 773.181 487.24C765.921 496.113 759.138 500.55 752.831 500.55ZM774.182 500.55C771.395 500.55 769.415 499.083 768.242 496.15C767.142 493.217 766.592 488.523 766.592 482.07C766.592 472.537 767.948 463.48 770.662 454.9C771.322 452.773 772.385 451.233 773.852 450.28C775.392 449.253 777.518 448.74 780.232 448.74C781.698 448.74 782.725 448.923 783.312 449.29C783.898 449.657 784.192 450.353 784.192 451.38C784.192 452.553 783.642 455.193 782.542 459.3C781.808 462.233 781.222 464.8 780.782 467C780.342 469.127 779.975 471.803 779.682 475.03C781.662 469.31 784.008 464.47 786.722 460.51C789.508 456.55 792.332 453.617 795.192 451.71C798.125 449.73 800.875 448.74 803.442 448.74C806.008 448.74 807.805 449.327 808.832 450.5C809.932 451.673 810.482 453.47 810.482 455.89C810.482 458.237 809.785 462.49 808.392 468.65C807.805 471.29 807.402 473.27 807.182 474.59C810.848 465.57 814.918 459.007 819.392 454.9C823.865 450.793 828.045 448.74 831.932 448.74C836.698 448.74 839.082 451.123 839.082 455.89C839.082 458.75 838.275 463.92 836.662 471.4C835.268 477.78 834.572 481.997 834.572 484.05C834.572 486.983 835.635 488.45 837.762 488.45C839.228 488.45 840.952 487.57 842.932 485.81C844.985 483.977 847.698 481.043 851.072 477.01C851.952 475.983 852.942 475.47 854.042 475.47C854.995 475.47 855.728 475.91 856.242 476.79C856.828 477.67 857.122 478.88 857.122 480.42C857.122 483.353 856.425 485.627 855.032 487.24C851.878 491.127 848.468 494.317 844.802 496.81C841.208 499.303 837.102 500.55 832.482 500.55C828.742 500.55 825.918 499.487 824.012 497.36C822.105 495.16 821.152 492.007 821.152 487.9C821.152 485.847 821.665 482.18 822.692 476.9C823.645 472.28 824.122 469.09 824.122 467.33C824.122 466.157 823.718 465.57 822.912 465.57C821.958 465.57 820.602 466.817 818.842 469.31C817.082 471.73 815.322 474.957 813.562 478.99C811.802 483.023 810.372 487.277 809.272 491.75C808.465 495.27 807.512 497.617 806.412 498.79C805.385 499.963 803.698 500.55 801.352 500.55C798.932 500.55 797.098 499.413 795.852 497.14C794.678 494.793 794.092 491.97 794.092 488.67C794.092 485.883 794.458 481.85 795.192 476.57C795.778 471.877 796.072 468.797 796.072 467.33C796.072 466.157 795.668 465.57 794.862 465.57C793.762 465.57 792.368 466.89 790.682 469.53C788.995 472.17 787.345 475.543 785.732 479.65C784.192 483.757 782.945 487.79 781.992 491.75C781.185 495.197 780.232 497.543 779.132 498.79C778.105 499.963 776.455 500.55 774.182 500.55ZM904.327 466.23C905.281 466.23 906.014 466.707 906.527 467.66C907.041 468.613 907.297 469.823 907.297 471.29C907.297 474.81 906.234 476.9 904.107 477.56C899.707 479.1 894.867 479.98 889.587 480.2C888.194 486.36 885.444 491.31 881.337 495.05C877.231 498.717 872.574 500.55 867.367 500.55C862.967 500.55 859.191 499.487 856.037 497.36C852.957 495.233 850.611 492.41 848.997 488.89C847.384 485.37 846.577 481.557 846.577 477.45C846.577 471.877 847.641 466.927 849.767 462.6C851.894 458.2 854.827 454.79 858.567 452.37C862.307 449.877 866.451 448.63 870.997 448.63C876.571 448.63 881.044 450.573 884.417 454.46C887.864 458.273 889.881 463.003 890.467 468.65C893.914 468.43 898.021 467.697 902.787 466.45C903.374 466.303 903.887 466.23 904.327 466.23ZM868.247 488.89C870.594 488.89 872.611 487.937 874.297 486.03C876.057 484.123 877.231 481.373 877.817 477.78C875.544 476.24 873.784 474.223 872.537 471.73C871.364 469.237 870.777 466.597 870.777 463.81C870.777 462.637 870.887 461.463 871.107 460.29H870.557C867.624 460.29 865.167 461.72 863.187 464.58C861.281 467.367 860.327 471.327 860.327 476.46C860.327 480.493 861.097 483.573 862.637 485.7C864.251 487.827 866.121 488.89 868.247 488.89ZM905.666 500.55C902.88 500.55 900.9 499.083 899.726 496.15C898.626 493.217 898.076 488.523 898.076 482.07C898.076 472.537 899.433 463.48 902.146 454.9C902.806 452.773 903.87 451.233 905.336 450.28C906.876 449.253 909.003 448.74 911.716 448.74C913.183 448.74 914.21 448.923 914.796 449.29C915.383 449.657 915.676 450.353 915.676 451.38C915.676 452.553 915.126 455.193 914.026 459.3C913.293 462.233 912.706 464.8 912.266 467C911.826 469.2 911.46 471.913 911.166 475.14C913.586 468.833 916.3 463.7 919.306 459.74C922.313 455.78 925.246 452.957 928.106 451.27C931.04 449.583 933.716 448.74 936.136 448.74C940.903 448.74 943.286 451.123 943.286 455.89C943.286 456.843 942.956 459.153 942.296 462.82C941.71 465.753 941.416 467.587 941.416 468.32C941.416 470.887 942.333 472.17 944.166 472.17C946.22 472.17 948.86 470.557 952.086 467.33C953.04 466.377 954.03 465.9 955.056 465.9C956.01 465.9 956.743 466.34 957.256 467.22C957.843 468.027 958.136 469.127 958.136 470.52C958.136 473.233 957.403 475.36 955.936 476.9C953.883 479.027 951.463 480.86 948.676 482.4C945.963 483.867 943.066 484.6 939.986 484.6C936.1 484.6 933.13 483.61 931.076 481.63C929.096 479.65 928.106 476.973 928.106 473.6C928.106 472.5 928.216 471.4 928.436 470.3C928.583 468.833 928.656 467.843 928.656 467.33C928.656 466.157 928.253 465.57 927.446 465.57C926.346 465.57 924.88 466.817 923.046 469.31C921.286 471.73 919.526 474.957 917.766 478.99C916.006 483.023 914.576 487.277 913.476 491.75C912.67 495.197 911.716 497.543 910.616 498.79C909.59 499.963 907.94 500.55 905.666 500.55ZM1010.39 475.47C1011.35 475.47 1012.08 475.91 1012.59 476.79C1013.18 477.67 1013.47 478.88 1013.47 480.42C1013.47 483.353 1012.78 485.627 1011.38 487.24C1008.38 490.907 1005.08 494.06 1001.48 496.7C997.891 499.267 994.335 500.55 990.815 500.55C985.241 500.55 980.988 497.287 978.055 490.76C974.975 494.647 972.261 497.25 969.915 498.57C967.641 499.89 964.965 500.55 961.885 500.55C957.411 500.55 953.708 498.9 950.775 495.6C947.915 492.227 946.485 487.863 946.485 482.51C946.485 476.643 947.731 471.217 950.225 466.23C952.718 461.17 956.128 457.063 960.455 453.91C964.855 450.683 969.768 448.777 975.195 448.19C976.588 433.963 979.228 421.827 983.115 411.78C987.075 401.66 992.245 396.6 998.625 396.6C1001.78 396.6 1004.38 398.03 1006.43 400.89C1008.56 403.75 1009.62 408.077 1009.62 413.87C1009.62 422.083 1007.61 431.69 1003.57 442.69C999.541 453.69 994.151 464.983 987.405 476.57C987.698 480.823 988.321 483.867 989.275 485.7C990.301 487.533 991.585 488.45 993.125 488.45C995.105 488.45 997.121 487.57 999.175 485.81C1001.23 484.05 1003.98 481.117 1007.42 477.01C1008.3 475.983 1009.29 475.47 1010.39 475.47ZM997.415 407.38C996.021 407.38 994.628 409.873 993.235 414.86C991.841 419.773 990.631 426.227 989.605 434.22C988.651 442.213 987.955 450.573 987.515 459.3C995.728 441.407 999.835 427.033 999.835 416.18C999.835 413.393 999.578 411.23 999.065 409.69C998.625 408.15 998.075 407.38 997.415 407.38ZM965.735 489.44C967.128 489.44 968.521 488.89 969.915 487.79C971.308 486.617 973.068 484.49 975.195 481.41C974.461 477.45 974.095 473.013 974.095 468.1C974.095 466.34 974.168 463.48 974.315 459.52C970.281 460.767 966.908 463.48 964.195 467.66C961.555 471.767 960.235 476.35 960.235 481.41C960.235 486.763 962.068 489.44 965.735 489.44ZM1018.94 441.48C1015.86 441.48 1013.55 440.783 1012.01 439.39C1010.47 437.923 1009.7 435.907 1009.7 433.34C1009.7 430.773 1010.69 428.647 1012.67 426.96C1014.72 425.2 1017.25 424.32 1020.26 424.32C1022.97 424.32 1025.17 424.98 1026.86 426.3C1028.54 427.62 1029.39 429.49 1029.39 431.91C1029.39 434.843 1028.43 437.19 1026.53 438.95C1024.62 440.637 1022.09 441.48 1018.94 441.48ZM1018.06 500.55C1013.29 500.55 1009.81 498.863 1007.61 495.49C1005.48 492.117 1004.42 487.643 1004.42 482.07C1004.42 478.77 1004.82 474.553 1005.63 469.42C1006.51 464.213 1007.61 459.373 1008.93 454.9C1009.59 452.553 1010.47 450.94 1011.57 450.06C1012.67 449.18 1014.43 448.74 1016.85 448.74C1020.59 448.74 1022.46 449.987 1022.46 452.48C1022.46 454.313 1021.76 458.567 1020.37 465.24C1018.61 473.307 1017.73 478.77 1017.73 481.63C1017.73 483.83 1018.02 485.517 1018.61 486.69C1019.19 487.863 1020.18 488.45 1021.58 488.45C1022.9 488.45 1024.55 487.533 1026.53 485.7C1028.51 483.867 1031.15 480.97 1034.45 477.01C1035.33 475.983 1036.32 475.47 1037.42 475.47C1038.37 475.47 1039.1 475.91 1039.62 476.79C1040.2 477.67 1040.5 478.88 1040.5 480.42C1040.5 483.353 1039.8 485.627 1038.41 487.24C1031.15 496.113 1024.36 500.55 1018.06 500.55ZM1045.13 500.55C1040.58 500.55 1036.95 498.9 1034.24 495.6C1031.52 492.3 1030.17 487.973 1030.17 482.62C1030.17 476.753 1031.52 471.217 1034.24 466.01C1036.95 460.73 1040.54 456.513 1045.02 453.36C1049.56 450.133 1054.37 448.52 1059.43 448.52C1061.04 448.52 1062.1 448.85 1062.62 449.51C1063.2 450.097 1063.68 451.197 1064.05 452.81C1065.59 452.517 1067.2 452.37 1068.89 452.37C1072.48 452.37 1074.28 453.653 1074.28 456.22C1074.28 457.76 1073.73 461.427 1072.63 467.22C1070.94 475.653 1070.1 481.52 1070.1 484.82C1070.1 485.92 1070.35 486.8 1070.87 487.46C1071.45 488.12 1072.19 488.45 1073.07 488.45C1074.46 488.45 1076.15 487.57 1078.13 485.81C1080.11 483.977 1082.78 481.043 1086.16 477.01C1087.04 475.983 1088.03 475.47 1089.13 475.47C1090.08 475.47 1090.81 475.91 1091.33 476.79C1091.91 477.67 1092.21 478.88 1092.21 480.42C1092.21 483.353 1091.51 485.627 1090.12 487.24C1087.11 490.98 1083.92 494.133 1080.55 496.7C1077.17 499.267 1073.91 500.55 1070.76 500.55C1068.34 500.55 1066.1 499.743 1064.05 498.13C1062.07 496.443 1060.56 494.17 1059.54 491.31C1055.72 497.47 1050.92 500.55 1045.13 500.55ZM1049.09 489.44C1050.7 489.44 1052.24 488.487 1053.71 486.58C1055.17 484.673 1056.24 482.143 1056.9 478.99L1060.97 458.75C1057.89 458.823 1055.03 459.997 1052.39 462.27C1049.82 464.47 1047.77 467.403 1046.23 471.07C1044.69 474.737 1043.92 478.623 1043.92 482.73C1043.92 485.003 1044.36 486.69 1045.24 487.79C1046.19 488.89 1047.47 489.44 1049.09 489.44ZM1115.06 484.49C1115.86 483.757 1116.67 483.39 1117.48 483.39C1118.36 483.39 1119.05 483.903 1119.57 484.93C1120.15 485.883 1120.45 487.057 1120.45 488.45C1120.45 491.53 1119.35 493.987 1117.15 495.82C1113.33 498.973 1109.01 500.55 1104.17 500.55C1097.2 500.55 1092.1 497.653 1088.88 491.86C1085.65 485.993 1084.04 478.367 1084.04 468.98C1084.04 460.033 1085.17 449.84 1087.45 438.4C1089.79 426.96 1093.2 417.133 1097.68 408.92C1102.22 400.707 1107.61 396.6 1113.85 396.6C1117.37 396.6 1120.12 398.25 1122.1 401.55C1124.15 404.777 1125.18 409.433 1125.18 415.52C1125.18 424.247 1122.76 434.367 1117.92 445.88C1113.15 457.393 1106.62 468.76 1098.34 479.98C1098.85 482.987 1099.77 485.15 1101.09 486.47C1102.41 487.79 1104.2 488.45 1106.48 488.45C1107.72 488.45 1109.12 488.083 1110.66 487.35C1112.27 486.617 1113.74 485.663 1115.06 484.49ZM1111.43 407.49C1109.74 407.49 1107.83 410.533 1105.71 416.62C1103.58 422.707 1101.71 430.26 1100.1 439.28C1098.48 448.3 1097.6 456.953 1097.46 465.24C1102.66 456.66 1106.81 448.08 1109.89 439.5C1112.97 430.847 1114.51 422.963 1114.51 415.85C1114.51 410.277 1113.48 407.49 1111.43 407.49Z" fill="#FF9933"/>
<rect x="762" y="550" width="200" height="75" rx="10" fill="#9999FF"/>
<path d="M837.264 595V580.455H843.003C844.106 580.455 845.046 580.665 845.822 581.087C846.599 581.503 847.191 582.083 847.598 582.827C848.01 583.565 848.216 584.418 848.216 585.384C848.216 586.349 848.008 587.202 847.591 587.94C847.174 588.679 846.571 589.254 845.78 589.666C844.994 590.078 844.042 590.284 842.925 590.284H839.267V587.82H842.428C843.019 587.82 843.507 587.718 843.891 587.514C844.279 587.306 844.568 587.019 844.757 586.655C844.951 586.286 845.048 585.862 845.048 585.384C845.048 584.901 844.951 584.479 844.757 584.119C844.568 583.755 844.279 583.473 843.891 583.274C843.502 583.071 843.01 582.969 842.413 582.969H840.339V595H837.264ZM850.213 595V580.455H853.289V592.464H859.525V595H850.213ZM864.439 595H861.144L866.165 580.455H870.128L875.142 595H871.847L868.203 583.778H868.09L864.439 595ZM864.233 589.283H872.017V591.683H864.233V589.283ZM874.556 580.455H878.001L881.318 586.719H881.46L884.777 580.455H888.221L882.916 589.858V595H879.862V589.858L874.556 580.455Z" fill="white"/>
</svg>
